<?xml version="1.0" encoding="utf-8"?>
<!-- Generator: Adobe Illustrator 20.0.0, SVG Export Plug-In . SVG Version: 6.00 Build 0)  -->
<svg version="1.1" id="Layer_1" xmlns="http://www.w3.org/2000/svg" xmlns:xlink="http://www.w3.org/1999/xlink" x="0px" y="0px"
	 viewBox="0 0 26.6 26.6" style="enable-background:new 0 0 26.6 26.6;" xml:space="preserve">
<style type="text/css">
	.st0{fill:#FFFFFF;}
	.st1{opacity:0.5;}
</style>
<path id="XMLID_2_" class="st0" d="M13.3,0C5.9,0,0,6,0,13.3s6,13.3,13.3,13.3s13.3-6,13.3-13.3S20.7,0,13.3,0z M19,20.1h-1.1
	l-4.6-6l-4.6,6H7.6l5.1-6.7L7.4,6.5h1.1l4.8,6.2L18,6.5h1.1l-5.3,6.9L19,20.1z"/>
<polygon class="st1" points="18,6.5 13.3,12.7 8.5,6.5 7.4,6.5 12.7,13.4 7.6,20.1 8.7,20.1 13.3,14.1 17.9,20.1 19,20.1 13.8,13.4 
	19.1,6.5 "/>
</svg>
