<?xml version="1.0" encoding="utf-8"?>
<!-- Generator: Adobe Illustrator 20.0.0, SVG Export Plug-In . SVG Version: 6.00 Build 0)  -->
<svg version="1.1" id="Layer_1" xmlns="http://www.w3.org/2000/svg" xmlns:xlink="http://www.w3.org/1999/xlink" x="0px" y="0px"
	 viewBox="0 0 93.3 93.3" style="enable-background:new 0 0 93.3 93.3;" xml:space="preserve">
<style type="text/css">
	.st0{fill:#F0DA0B;}
	.st1{fill:#FFFFFF;}
</style>
<g id="XMLID_6363_">
	<circle id="XMLID_6369_" class="st0" cx="46.7" cy="46.7" r="46.6"/>
	<g id="XMLID_6364_">
		<path id="XMLID_6366_" class="st1" d="M22.9,36.6H33v32.4H22.9V36.6z M28,20.7c3.2,0,5.9,2.7,5.9,5.9s-2.7,5.9-5.9,5.9
			S22,29.8,22,26.6C22,22.9,24.8,20.7,28,20.7"/>
		<path id="XMLID_6365_" class="st1" d="M39.4,36.6H49v4.6l0,0c1.4-2.7,4.6-5,9.6-5c10.1,0,11.9,6.9,11.9,15.5v17.8H60.4v-16
			c0-3.7,0-8.7-5-8.7s-5.9,4.1-5.9,8.2v16H39.4C39.4,69.1,39.4,36.6,39.4,36.6z"/>
	</g>
</g>
</svg>
