<?xml version="1.0" encoding="utf-8"?>
<!-- Generator: Adobe Illustrator 20.0.0, SVG Export Plug-In . SVG Version: 6.00 Build 0)  -->
<svg version="1.1" id="Layer_1" xmlns="http://www.w3.org/2000/svg" xmlns:xlink="http://www.w3.org/1999/xlink" x="0px" y="0px"
	 viewBox="0 0 185.4 185.4" style="enable-background:new 0 0 185.4 185.4;" xml:space="preserve">
<style type="text/css">
	.st0{fill:#7E7E7E;}
</style>
<g>
	<g id="XMLID_1714_">
		<path id="XMLID_1163_" class="st0" d="M185.4,185.4H0V0h185.4V185.4z M3,182.4h179.4V3H3V182.4z"/>
	</g>
	<g id="XMLID_1267_">
		<g id="XMLID_320_">
			<path id="XMLID_1689_" class="st0" d="M66.2,107.6c-6.3,0-19.1-1.3-29.6-10.5c-3.9-3.4-5.9-7.3-6-11.6
				c-0.2-8.9,7.8-16.7,10.4-19.3l0.4-0.4c2.7-2.7,14.8-14.5,15-14.6c0.3-0.3,6.1-5,13.3-5c6.2,0,10.9,3.7,13.1,5.5
				c0.3,0.3,0.6,0.5,0.9,0.7c0,0,0.1,0.1,0.1,0.1l24.7,23.2c0.1,0.1,0.1,0.1,0.2,0.2c0.2,0.4,5.7,9.7,2.5,17.9
				c-1.7,4.5-5.7,7.6-11.7,9.5c-15.6,4.7-22.8,4.4-28.1,4.2l-1.2,0C69.6,107.5,68.2,107.6,66.2,107.6z M69.6,48.3
				c-6.4,0-11.8,4.4-11.8,4.5c-0.1,0.1-12.1,11.8-14.9,14.5l-0.4,0.4c-2.5,2.4-10,9.8-9.8,17.7c0.1,3.7,1.9,7,5.3,10
				c13.4,11.9,31.6,9.8,31.8,9.8c0.1,0,0.1,0,0.2,0l1.3,0c5.1,0.2,12.2,0.5,27.4-4.1c5.4-1.6,8.9-4.4,10.3-8.2
				c2.6-6.7-1.7-14.8-2.3-15.9l-24.5-23c-0.3-0.2-0.6-0.4-0.9-0.7C79.1,51.6,75.1,48.3,69.6,48.3z"/>
		</g>
		<g id="XMLID_325_">
			<path id="XMLID_1688_" class="st0" d="M71.3,107.5c-0.2,0-0.3,0-0.5-0.1l-39.2-18c-0.5-0.2-0.8-0.9-0.5-1.4
				c0.2-0.5,0.9-0.8,1.4-0.5l28.7,13.2L32.2,80c-0.5-0.3-0.6-1-0.3-1.5c0.3-0.5,1-0.6,1.5-0.3l38.4,27.3c0.5,0.3,0.6,0.9,0.3,1.4
				C72,107.3,71.7,107.5,71.3,107.5z"/>
		</g>
		<g id="XMLID_326_">
			<path id="XMLID_1687_" class="st0" d="M71.3,107.5c-0.3,0-0.5-0.1-0.7-0.3L35.6,73.8c-0.4-0.4-0.4-1.1,0-1.5
				c0.4-0.4,1.1-0.4,1.5,0l21.8,20.8L39.3,69.3c-0.4-0.5-0.3-1.1,0.1-1.5c0.5-0.4,1.1-0.3,1.5,0.1l31.2,37.8
				c0.4,0.4,0.3,1.1-0.1,1.5C71.8,107.4,71.5,107.5,71.3,107.5z"/>
		</g>
		<g id="XMLID_522_">
			<path id="XMLID_1686_" class="st0" d="M71.3,107.5c-0.4,0-0.7-0.2-0.9-0.5L43,65.4c-0.3-0.5-0.2-1.2,0.3-1.5
				c0.5-0.3,1.2-0.2,1.5,0.3l17.7,26.8l-15-30.2c-0.3-0.5,0-1.2,0.5-1.4c0.5-0.3,1.2,0,1.4,0.5l22.8,46c0.3,0.5,0.1,1.1-0.4,1.4
				C71.7,107.5,71.5,107.5,71.3,107.5z"/>
		</g>
		<g id="XMLID_531_">
			<path id="XMLID_1685_" class="st0" d="M71.3,107.5c-0.4,0-0.8-0.3-1-0.7L51.6,56.7c-0.2-0.6,0.1-1.2,0.6-1.4
				c0.6-0.2,1.2,0.1,1.4,0.6l11.3,30.3L56,52.2c-0.2-0.6,0.2-1.2,0.8-1.3c0.6-0.1,1.2,0.2,1.3,0.8l14.2,54.5
				c0.1,0.6-0.2,1.1-0.7,1.3C71.5,107.5,71.4,107.5,71.3,107.5z"/>
		</g>
		<g id="XMLID_1072_">
			<path id="XMLID_1684_" class="st0" d="M71.3,107.5c-0.5,0-1-0.4-1.1-0.9l-7.9-58c-0.1-0.6,0.3-1.1,0.9-1.2
				c0.6-0.1,1.1,0.3,1.2,0.9l5.2,38l-1.1-39c0-0.6,0.5-1.1,1-1.1c0.6,0,1.1,0.5,1.1,1l1.7,59.2C72.4,107,71.9,107.5,71.3,107.5
				C71.3,107.5,71.3,107.5,71.3,107.5z"/>
		</g>
		<g id="XMLID_1073_">
			<path id="XMLID_1683_" class="st0" d="M71.3,107.5c0,0-0.1,0-0.1,0c-0.6-0.1-1-0.6-0.9-1.1l4-58c0-0.6,0.6-1,1.2-1
				c0.6,0,1,0.6,1,1.2l-2.5,36.1l5.6-33.3c0.1-0.6,0.7-1,1.2-0.9c0.6,0.1,1,0.7,0.9,1.2l-9.3,55C72.3,107.1,71.8,107.5,71.3,107.5z"
				/>
		</g>
		<g id="XMLID_1078_">
			<path id="XMLID_1682_" class="st0" d="M71.3,107.5c-0.1,0-0.3,0-0.4-0.1c-0.5-0.2-0.8-0.8-0.7-1.3l15.1-49.9
				c0.2-0.6,0.8-0.9,1.3-0.7c0.6,0.2,0.9,0.8,0.7,1.3L77.4,90l13-29.3c0.2-0.5,0.9-0.8,1.4-0.6c0.5,0.2,0.8,0.9,0.6,1.4l-20,45.3
				C72.1,107.3,71.7,107.5,71.3,107.5z"/>
		</g>
		<g id="XMLID_1080_">
			<path id="XMLID_1681_" class="st0" d="M71.3,107.5c-0.2,0-0.4-0.1-0.6-0.2c-0.5-0.3-0.6-1-0.3-1.4l25-40.5c0.3-0.5,1-0.7,1.5-0.4
				c0.5,0.3,0.7,1,0.4,1.5L79.5,95.1l21.3-24.9c0.4-0.5,1.1-0.5,1.5-0.1c0.5,0.4,0.5,1.1,0.1,1.5l-30.4,35.5
				C71.9,107.4,71.6,107.5,71.3,107.5z"/>
		</g>
		<g id="XMLID_1094_">
			<path id="XMLID_1680_" class="st0" d="M71.3,107.5c-0.4,0-0.7-0.2-0.9-0.5c-0.3-0.5-0.2-1,0.2-1.4l35.4-30.9
				c0.4-0.4,1.1-0.3,1.5,0.1c0.4,0.4,0.3,1.1-0.1,1.5l-29.7,25.9l32.8-15.2c0.5-0.3,1.2,0,1.4,0.5c0.3,0.5,0,1.2-0.5,1.4l-39.6,18.4
				C71.6,107.5,71.4,107.5,71.3,107.5z"/>
		</g>
		<g id="XMLID_1095_">
			<path id="XMLID_1679_" class="st0" d="M69.9,107.5c-0.4,0-0.7-0.2-0.9-0.5c-0.3-0.5-0.2-1.2,0.3-1.5l39.9-24.9
				c0.5-0.3,1.2-0.2,1.5,0.3s0.2,1.2-0.3,1.5l-39.9,24.9C70.3,107.4,70.1,107.5,69.9,107.5z"/>
		</g>
		<g id="XMLID_1098_">
			<path id="XMLID_1678_" class="st0" d="M37.6,138.5c-0.1,0-0.3,0-0.4-0.1c-0.5-0.2-0.8-0.9-0.6-1.4l14.1-33.1
				c0.2-0.5,0.9-0.8,1.4-0.6c0.5,0.2,0.8,0.9,0.6,1.4l-14.1,33.1C38.4,138.2,38,138.5,37.6,138.5z"/>
		</g>
		<g id="XMLID_1169_">
			<path id="XMLID_1677_" class="st0" d="M106.2,138.5c-0.4,0-0.8-0.2-1-0.7l-14.1-33.1c-0.2-0.5,0-1.2,0.6-1.4
				c0.5-0.2,1.2,0,1.4,0.6l14.1,33.1c0.2,0.5,0,1.2-0.6,1.4C106.5,138.4,106.4,138.5,106.2,138.5z"/>
		</g>
		<g id="XMLID_1247_">
			<path id="XMLID_1674_" class="st0" d="M44.6,121.9c-0.5,0-1-0.4-1.1-0.9c-0.1-0.5,0.2-1.1,0.8-1.2l26.6-8c0.2-0.1,0.4-0.1,0.5,0
				l27,5.9c0.5,0.1,0.9,0.6,0.8,1.1c0,0.5-0.5,1-1,1L44.6,121.9C44.7,121.9,44.6,121.9,44.6,121.9z M71.3,114l-18.2,5.5l36.7-1.4
				L71.3,114z"/>
		</g>
		<g id="XMLID_1250_">
			<path id="XMLID_1673_" class="st0" d="M71.3,114c-0.6,0-1.1-0.5-1.1-1.1v-6.4c0-0.5,0.3-0.9,0.8-1l37.4-10.6
				c0.6-0.2,1.2,0.2,1.3,0.7c0.2,0.6-0.2,1.2-0.7,1.3l-36.7,10.4v5.6C72.4,113.5,71.9,114,71.3,114z"/>
		</g>
		<g id="XMLID_322_">
			<path id="XMLID_1670_" class="st0" d="M140.7,134.9h-10.1c-0.4,0-0.8-0.3-1-0.7l-7.1-18.2c-0.1-0.3-0.1-0.7,0.1-1
				c0.2-0.3,0.5-0.5,0.9-0.5h25c0.4,0,0.7,0.2,0.9,0.5c0.2,0.3,0.2,0.7,0.1,1l-7.8,18.2C141.5,134.6,141.2,134.9,140.7,134.9z
				 M131.4,132.7h8.6l6.9-16h-21.8L131.4,132.7z"/>
		</g>
		<g id="XMLID_1253_">
			<path id="XMLID_1667_" class="st0" d="M134.5,116.7c-0.6,0-1.1-0.5-1.1-1.1V88.2v0v-6.7c0-0.2,0-0.3,0.1-0.5
				c0.1-0.3,3.2-6.5,12.5-6.5c2.6,0,3.7,1,4.2,1.9c0.7,1.3,0.5,3.1-0.7,5.1c-2.3,3.8-7.9,7.6-13.9,7.8v26.4
				C135.6,116.2,135.1,116.7,134.5,116.7z M135.6,81.7v5.4c5.2-0.2,10-3.5,12-6.8c0.7-1.2,1-2.3,0.7-2.9c-0.3-0.5-1.1-0.8-2.3-0.8
				C138.9,76.6,136.2,80.8,135.6,81.7z"/>
		</g>
		<g id="XMLID_1097_">
			<path id="XMLID_1666_" class="st0" d="M134.5,105.7c-0.1,0-0.2,0-0.3,0c-8.3-2.3-13.8-8.4-13.7-12.6c0-2,1.3-3.4,3.3-3.9
				c6.8-1.6,11.4,6.2,11.6,6.5c0.3,0.5,0.1,1.2-0.4,1.5c-0.5,0.3-1.2,0.1-1.5-0.4c0-0.1-4-6.8-9.2-5.5c-1.5,0.4-1.7,1.2-1.7,1.8
				c-0.1,2.9,4.5,8.3,12.1,10.5c0.6,0.2,0.9,0.8,0.7,1.3C135.5,105.4,135,105.7,134.5,105.7z"/>
		</g>
		<g id="XMLID_1262_">
			<path id="XMLID_1271_" class="st0" d="M134.5,110.6c-0.5,0-1-0.4-1.1-0.9c-0.1-0.6,0.3-1.1,0.9-1.2c8.9-1.5,14-7.8,13.8-10.6
				c0-0.3-0.1-1.2-2-1.2c-6.7,0-10.8,4.3-10.8,4.3c-0.4,0.4-1.1,0.5-1.5,0.1c-0.4-0.4-0.5-1.1-0.1-1.5c0.2-0.2,4.7-5,12.4-5
				c2.4,0,4,1.2,4.2,3.2c0.3,4-5.7,11.2-15.6,12.9C134.7,110.6,134.6,110.6,134.5,110.6z"/>
		</g>
		<g id="XMLID_1693_">
			
				<rect id="XMLID_1694_" x="53.3" y="83.9" transform="matrix(0.2923 -0.9563 0.9563 0.2923 -58.7094 123.8791)" class="st0" width="2.2" height="35.4"/>
		</g>
	</g>
</g>
</svg>
