<?xml version="1.0" encoding="utf-8"?>
<!-- Generator: Adobe Illustrator 20.0.0, SVG Export Plug-In . SVG Version: 6.00 Build 0)  -->
<svg version="1.1" id="Layer_1" xmlns="http://www.w3.org/2000/svg" xmlns:xlink="http://www.w3.org/1999/xlink" x="0px" y="0px"
	 viewBox="0 0 185.4 185.4" style="enable-background:new 0 0 185.4 185.4;" xml:space="preserve">
<style type="text/css">
	.st0{fill:#7E7E7E;}
</style>
<g>
	<g id="XMLID_1707_">
		<path id="XMLID_1175_" class="st0" d="M185.4,185.4H0V0h185.4V185.4z M3,182.4h179.4V3H3V182.4z"/>
	</g>
	<g id="XMLID_1408_">
		<g id="XMLID_1423_">
			<path id="XMLID_1438_" class="st0" d="M113.6,137L113.6,137l-43.8,0c-12.8,0-23.2-10.4-23.2-23.2l0-3.6c0-3.3-2.7-6-6-6
				c-0.7,0-1.3-0.6-1.3-1.3v-5.5c0-0.7,0.6-1.3,1.3-1.3h102.2c0.7,0,1.3,0.6,1.3,1.3v5.5c0,0.7-0.6,1.3-1.3,1.3
				c-1.6,0-3.1,0.6-4.3,1.8c-1.1,1.1-1.8,2.6-1.8,4.3v3.6C136.8,126.6,126.4,137,113.6,137z M41.9,101.7c4.1,0.6,7.3,4.2,7.3,8.5
				l0,3.6c0,11.4,9.2,20.6,20.6,20.6l43.8,0c11.4,0,20.6-9.2,20.6-20.6v-3.6c0-2.3,0.9-4.4,2.5-6.1c1.3-1.3,3-2.2,4.8-2.4v-3H41.9
				V101.7z"/>
		</g>
		<g id="XMLID_1421_">
			<path id="XMLID_1437_" class="st0" d="M142.8,104.2H40.6c-0.7,0-1.3-0.6-1.3-1.3c0-0.7,0.6-1.3,1.3-1.3h102.2
				c0.7,0,1.3,0.6,1.3,1.3C144,103.6,143.5,104.2,142.8,104.2z"/>
		</g>
		<g id="XMLID_1420_">
			<path id="XMLID_1434_" class="st0" d="M63.9,142.5h-5c-0.5,0-0.9-0.2-1.1-0.6c-0.2-0.4-0.2-0.9,0-1.3l3.8-6.7
				c0.3-0.5,1-0.8,1.5-0.6c2.2,0.8,4.5,1.1,6.7,1.1h7.3c0.7,0,1.3,0.6,1.3,1.3s-0.6,1.3-1.3,1.3c-4.7,0-9,1.8-12.3,5.1
				C64.5,142.3,64.2,142.5,63.9,142.5z M61.1,139.9h2.3c1.3-1.2,2.7-2.2,4.2-3c-1.4-0.1-2.8-0.4-4.2-0.8L61.1,139.9z"/>
		</g>
		<g id="XMLID_1419_">
			<path id="XMLID_1431_" class="st0" d="M124.5,142.5h-5c-0.3,0-0.7-0.1-0.9-0.4c-3.3-3.3-7.7-5.1-12.3-5.1c-0.7,0-1.3-0.6-1.3-1.3
				s0.6-1.3,1.3-1.3h7.3c2.2,0,4.5-0.4,6.7-1.1c0.6-0.2,1.2,0,1.5,0.6l3.8,6.7c0.2,0.4,0.2,0.9,0,1.3
				C125.4,142.2,125,142.5,124.5,142.5z M120,139.9h2.3l-2.2-3.9c-1.4,0.4-2.8,0.7-4.2,0.8C117.4,137.7,118.8,138.7,120,139.9z"/>
		</g>
		<g id="XMLID_1418_">
			<path id="XMLID_1430_" class="st0" d="M47.9,98.7c-0.7,0-1.3-0.6-1.3-1.3V46.3c0-4.7,3.8-8.6,8.6-8.6c2.3,0,4.4,0.9,6.1,2.5
				c0.2,0.2,0.4,0.6,0.4,0.9c0,0.3-0.1,0.7-0.4,0.9c-0.5,0.5-1.3,0.5-1.8,0c-1.1-1.1-2.6-1.8-4.3-1.8c-3.3,0-6,2.7-6,6V84
				c0.7-0.4,1.5-0.6,2.4-0.6c2.7,0,4.9,2.2,4.9,4.9c0,0.7-0.6,1.3-1.3,1.3s-1.3-0.6-1.3-1.3c0-1.3-1.1-2.4-2.4-2.4
				c-1.3,0-2.4,1.1-2.4,2.4v9.1C49.2,98.1,48.6,98.7,47.9,98.7z"/>
		</g>
		<g id="XMLID_1412_">
			<path id="XMLID_1425_" class="st0" d="M60.4,50.2c-0.1,0-0.2,0-0.4-0.1c-0.5-0.1-0.8-0.5-0.9-1l-1.3-6.4c-0.1-0.4,0-0.9,0.3-1.2
				l2.6-2.6c0.3-0.3,0.7-0.4,1.2-0.3l6.5,1.3c0.5,0.1,0.8,0.4,1,0.9c0.1,0.5,0,0.9-0.3,1.3l-7.7,7.7C61,50.1,60.7,50.2,60.4,50.2z
				 M60.5,42.9l0.7,3.4l4.4-4.4l-3.4-0.7L60.5,42.9z"/>
		</g>
	</g>
</g>
</svg>
