<?xml version="1.0" encoding="utf-8"?>
<!-- Generator: Adobe Illustrator 20.0.0, SVG Export Plug-In . SVG Version: 6.00 Build 0)  -->
<svg version="1.1" id="Layer_1" xmlns="http://www.w3.org/2000/svg" xmlns:xlink="http://www.w3.org/1999/xlink" x="0px" y="0px"
	 viewBox="0 0 185.4 185.4" style="enable-background:new 0 0 185.4 185.4;" xml:space="preserve">
<style type="text/css">
	.st0{fill:#7E7E7E;}
</style>
<g>
	<g id="XMLID_1709_">
		<g>
			<path class="st0" d="M185.4,185.4H0V0h185.4V185.4z M3,182.4h179.4V3H3V182.4z"/>
		</g>
	</g>
	<g id="XMLID_1557_">
		<g>
			<g id="XMLID_368_">
				<rect x="52.7" y="85.3" class="st0" width="3.7" height="12.7"/>
			</g>
			<g id="XMLID_367_">
				<rect x="52.7" y="54.8" class="st0" width="3.7" height="12.7"/>
			</g>
			<g id="XMLID_364_">
				<path class="st0" d="M63.3,137.1H22.7c-0.6,0-1.1-0.5-1.1-1.1V41.7c0-0.6,0.5-1.1,1.1-1.1h40.6c0.6,0,1.1,0.5,1.1,1.1v94.3
					C64.3,136.7,63.9,137.1,63.3,137.1z M23.8,135h38.4V42.8H23.8V135z"/>
			</g>
			<g id="XMLID_361_">
				<path class="st0" d="M160,137.1H63.3c-0.6,0-1.1-0.5-1.1-1.1V92.6c0-0.6,0.5-1.1,1.1-1.1H160c0.6,0,1.1,0.5,1.1,1.1v43.5
					C161,136.7,160.5,137.1,160,137.1z M64.3,135h94.6V93.7H64.3V135z"/>
			</g>
			<g id="XMLID_360_">
				<path class="st0" d="M63.3,77.1H22.7c-0.6,0-1.1-0.5-1.1-1.1c0-0.6,0.5-1.1,1.1-1.1h40.6c0.6,0,1.1,0.5,1.1,1.1
					C64.3,76.6,63.9,77.1,63.3,77.1z"/>
			</g>
			<g id="XMLID_359_">
				<path class="st0" d="M118,115.9H63.3c-0.6,0-1.1-0.5-1.1-1.1c0-0.6,0.5-1.1,1.1-1.1H118c0.6,0,1.1,0.5,1.1,1.1
					C119,115.4,118.5,115.9,118,115.9z"/>
			</g>
			<g id="XMLID_358_">
				<path class="st0" d="M158.9,103.7H118c-0.6,0-1.1-0.5-1.1-1.1s0.5-1.1,1.1-1.1h40.9c0.6,0,1.1,0.5,1.1,1.1
					S159.5,103.7,158.9,103.7z"/>
			</g>
			<g id="XMLID_357_">
				<path class="st0" d="M118,137.1c-0.6,0-1.1-0.5-1.1-1.1V92.6c0-0.6,0.5-1.1,1.1-1.1s1.1,0.5,1.1,1.1v43.5
					C119,136.7,118.5,137.1,118,137.1z"/>
			</g>
			<g id="XMLID_356_">
				<rect x="52.7" y="54.8" class="st0" width="3.7" height="12.7"/>
			</g>
			<g id="XMLID_355_">
				<rect x="52.7" y="85.3" class="st0" width="3.7" height="12.7"/>
			</g>
			<g id="XMLID_352_">
				<path class="st0" d="M95.4,107.8h-9c-1.6,0-2.9-1.3-2.9-2.9c0-1.6,1.3-2.9,2.9-2.9h9c1.6,0,2.9,1.3,2.9,2.9
					C98.3,106.5,97,107.8,95.4,107.8z M86.4,104.1c-0.4,0-0.8,0.4-0.8,0.8c0,0.4,0.4,0.8,0.8,0.8h9c0.4,0,0.8-0.4,0.8-0.8
					c0-0.4-0.4-0.8-0.8-0.8H86.4z"/>
			</g>
			<g id="XMLID_349_">
				<path class="st0" d="M95.4,129h-9c-1.6,0-2.9-1.3-2.9-2.9c0-1.6,1.3-2.9,2.9-2.9h9c1.6,0,2.9,1.3,2.9,2.9
					C98.3,127.6,97,129,95.4,129z M86.4,125.2c-0.4,0-0.8,0.4-0.8,0.8c0,0.4,0.4,0.8,0.8,0.8h9c0.4,0,0.8-0.4,0.8-0.8
					c0-0.4-0.4-0.8-0.8-0.8H86.4z"/>
			</g>
			<g id="XMLID_346_">
				<path class="st0" d="M152.3,129.5h-27.1c-0.6,0-1.1-0.5-1.1-1.1V108c0-0.6,0.5-1.1,1.1-1.1h27.1c0.6,0,1.1,0.5,1.1,1.1v20.4
					C153.4,129,152.9,129.5,152.3,129.5z M126.3,127.4h24.9v-18.3h-24.9V127.4z"/>
			</g>
			<g id="XMLID_343_">
				<path class="st0" d="M127.8,102c-2.4,0-4.4-2-4.4-4.4c0-2.4,2-4.4,4.4-4.4c2.4,0,4.4,2,4.4,4.4C132.2,100,130.2,102,127.8,102z
					 M127.8,95.3c-1.3,0-2.3,1-2.3,2.3s1,2.3,2.3,2.3c1.3,0,2.3-1,2.3-2.3S129,95.3,127.8,95.3z"/>
			</g>
			<g id="XMLID_340_">
				<path class="st0" d="M138.5,102c-2.4,0-4.4-2-4.4-4.4c0-2.4,2-4.4,4.4-4.4s4.4,2,4.4,4.4C142.9,100,140.9,102,138.5,102z
					 M138.5,95.3c-1.3,0-2.3,1-2.3,2.3s1,2.3,2.3,2.3s2.3-1,2.3-2.3S139.8,95.3,138.5,95.3z"/>
			</g>
			<g id="XMLID_337_">
				<path class="st0" d="M149.2,102c-2.4,0-4.4-2-4.4-4.4c0-2.4,2-4.4,4.4-4.4c2.4,0,4.4,2,4.4,4.4C153.6,100,151.6,102,149.2,102z
					 M149.2,95.3c-1.3,0-2.3,1-2.3,2.3s1,2.3,2.3,2.3s2.3-1,2.3-2.3S150.5,95.3,149.2,95.3z"/>
			</g>
			<g id="XMLID_336_">
				<rect x="125.9" y="89.2" class="st0" width="10.4" height="1.4"/>
			</g>
			<g id="XMLID_335_">
				<rect x="140.6" y="89.2" class="st0" width="10.4" height="1.4"/>
			</g>
			<g id="XMLID_334_">
				<path class="st0" d="M148.9,71.1h-21.1c-0.6,0-1.1-0.5-1.1-1.1V39.6c0-0.6,0.5-1.1,1.1-1.1c0.6,0,1.1,0.5,1.1,1.1V69h19V39.6
					c0-0.6,0.5-1.1,1.1-1.1s1.1,0.5,1.1,1.1v30.4C149.9,70.7,149.5,71.1,148.9,71.1z"/>
			</g>
			<g id="XMLID_333_">
				<path class="st0" d="M160.5,71.1H117c-0.6,0-1.1-0.5-1.1-1.1c0-0.6,0.5-1.1,1.1-1.1h43.5c0.6,0,1.1,0.5,1.1,1.1
					C161.6,70.7,161.1,71.1,160.5,71.1z"/>
			</g>
		</g>
	</g>
</g>
</svg>
