<?xml version="1.0" encoding="utf-8"?>
<!-- Generator: Adobe Illustrator 20.0.0, SVG Export Plug-In . SVG Version: 6.00 Build 0)  -->
<svg version="1.1" id="Layer_1" xmlns="http://www.w3.org/2000/svg" xmlns:xlink="http://www.w3.org/1999/xlink" x="0px" y="0px"
	 viewBox="0 0 185.4 185.4" style="enable-background:new 0 0 185.4 185.4;" xml:space="preserve">
<style type="text/css">
	.st0{fill:#7E7E7E;}
</style>
<g>
	<g id="XMLID_115_">
		<g id="XMLID_567_">
			<path id="XMLID_617_" class="st0" d="M942.6,429.7c-0.2,0-0.3,0-0.5-0.1L910.7,411c-0.3-0.2-0.5-0.5-0.5-0.8l0-35.9
				c0-0.3,0.2-0.6,0.5-0.8l27.8-16.4c0.3-0.2,0.6-0.2,0.9,0l14,5.6l-0.4,1.7l17.1,9.9c0.9,0.5,1.5,1.1,1.6,1.7
				c0.1,0.3,0.1,0.5,0,0.6l1,35.5c0,0.3-0.2,0.7-0.5,0.8L943,429.5C942.9,429.6,942.7,429.7,942.6,429.7z M912.1,409.7l30.5,18
				l28.3-16l-1-35.1c0,0,0-0.1,0-0.1c-0.1-0.1-0.3-0.3-0.7-0.5l-17.8-10.3l0.9-2.4L939,359l-26.9,15.8L912.1,409.7z"/>
		</g>
		<g id="XMLID_566_">
			<path id="XMLID_616_" class="st0" d="M942.5,393.2c-0.2,0-0.3,0-0.5-0.1l-31.3-17.9c-0.4-0.3-0.6-0.8-0.3-1.3
				c0.3-0.5,0.8-0.6,1.3-0.3l30.8,17.7l27.9-15.9c0.4-0.3,1-0.1,1.3,0.3c0.3,0.4,0.1,1-0.3,1.3L942.9,393
				C942.8,393.1,942.6,393.2,942.5,393.2z"/>
		</g>
		<g id="XMLID_564_">
			<path id="XMLID_614_" class="st0" d="M942.6,429.7c-0.5,0-0.9-0.4-0.9-0.9l-0.1-36.5c0-0.5,0.4-0.9,0.9-0.9h0
				c0.5,0,0.9,0.4,0.9,0.9l0.1,36.5C943.5,429.2,943.1,429.7,942.6,429.7L942.6,429.7z"/>
		</g>
		<g id="XMLID_563_">
			<path id="XMLID_596_" class="st0" d="M926.9,379.6c-0.1,0-0.2,0-0.2,0l-15.7-4.1c-0.4-0.1-0.6-0.4-0.7-0.8
				c-0.1-0.4,0.1-0.7,0.4-0.9l27.9-16.6c0.2-0.1,0.5-0.2,0.8-0.1l15.6,5.1c0.4,0.1,0.6,0.4,0.6,0.8c0,0.4-0.1,0.7-0.5,0.9
				l-27.8,15.7C927.2,379.6,927,379.6,926.9,379.6z M913.5,374.2l13.2,3.5l25.6-14.4l-13.2-4.3L913.5,374.2z"/>
		</g>
		<g id="XMLID_562_">
			<path id="XMLID_592_" class="st0" d="M926.9,384.2c-0.3,0-0.6-0.2-0.8-0.5c-0.3-0.4-0.1-1,0.3-1.3l28.3-16.5
				c0.4-0.3,1-0.1,1.3,0.3c0.3,0.4,0.1,1-0.3,1.3l-28.3,16.5C927.2,384.2,927,384.2,926.9,384.2z"/>
		</g>
		<g id="XMLID_561_">
			<path id="XMLID_585_" class="st0" d="M957.4,475.2c-0.2,0-0.3,0-0.5-0.1l-28.4-15.9c-0.3-0.2-0.5-0.5-0.5-0.8l0.6-37
				c0-0.3,0.2-0.6,0.5-0.8c0.3-0.2,0.6-0.2,0.9,0l27.3,16.6l29.9-16.6c0.3-0.2,0.6-0.2,0.9,0c0.3,0.2,0.5,0.5,0.5,0.8v35.5
				c0,0.3-0.2,0.6-0.5,0.8l-30.4,17.4C957.8,475.1,957.6,475.2,957.4,475.2z M930,457.8l27.4,15.4l29.4-16.9V423l-29,16.1
				c-0.3,0.2-0.6,0.2-0.9,0l-26.4-16L930,457.8z"/>
		</g>
		<g id="XMLID_560_">
			<path id="XMLID_583_" class="st0" d="M987.8,422.3c-0.2,0-0.3,0-0.5-0.1l-15.9-9.2c-0.4-0.3-0.6-0.8-0.3-1.3
				c0.3-0.4,0.8-0.6,1.3-0.3l15.9,9.2c0.4,0.3,0.6,0.8,0.3,1.3C988.4,422.1,988.1,422.3,987.8,422.3z"/>
		</g>
		<g id="XMLID_558_">
			<path id="XMLID_582_" class="st0" d="M957.4,475.2L957.4,475.2c-0.5,0-0.9-0.4-0.9-0.9l0-36c0-0.5,0.4-0.9,0.9-0.9l0,0
				c0.5,0,0.9,0.4,0.9,0.9l0,36C958.4,474.8,957.9,475.2,957.4,475.2z"/>
		</g>
		<g id="XMLID_554_">
			<path id="XMLID_578_" class="st0" d="M924.6,463.3c-0.2,0-0.3,0-0.4-0.1l-27.4-15c-0.3-0.2-0.5-0.5-0.5-0.8v-39.2
				c0-0.3,0.2-0.6,0.5-0.8c0.3-0.2,0.7-0.2,0.9,0l28,17.3c0.3,0.2,0.5,0.5,0.4,0.8l-0.6,37c0,0.3-0.2,0.6-0.5,0.8
				C924.9,463.2,924.7,463.3,924.6,463.3z M898.1,446.8l25.6,14l0.6-34.9l-26.2-16.1V446.8z"/>
		</g>
		<g id="XMLID_551_">
			<path id="XMLID_577_" class="st0" d="M897.1,409.1c-0.3,0-0.7-0.2-0.8-0.5c-0.2-0.5-0.1-1,0.4-1.3l14-7.5c0.5-0.2,1-0.1,1.3,0.4
				c0.2,0.5,0.1,1-0.4,1.3l-14,7.5C897.4,409,897.3,409.1,897.1,409.1z"/>
		</g>
		<g id="XMLID_569_">
			<path id="XMLID_576_" class="st0" d="M925.2,426.3c-0.3,0-0.5-0.1-0.7-0.3c-0.3-0.4-0.3-1,0.1-1.3l4.5-4c0.4-0.3,1-0.3,1.3,0.1
				c0.3,0.4,0.3,1-0.1,1.3l-4.5,4C925.6,426.2,925.4,426.3,925.2,426.3z"/>
		</g>
		<g id="XMLID_572_">
			<path id="XMLID_573_" class="st0" d="M924.6,463.3c-0.3,0-0.5-0.1-0.7-0.3c-0.3-0.4-0.3-1,0.1-1.3l4.5-4c0.4-0.3,1-0.3,1.3,0.1
				c0.3,0.4,0.3,1-0.1,1.3l-4.5,4C925,463.2,924.8,463.3,924.6,463.3z"/>
		</g>
	</g>
	<g id="XMLID_1713_">
		<path id="XMLID_1137_" class="st0" d="M1035.5,512H850.1V326.6h185.4V512z M853.1,509h179.4V329.6H853.1V509z"/>
	</g>
</g>
<g>
	<g id="XMLID_737_">
		<g id="XMLID_927_">
			<g id="XMLID_957_">
				<path id="XMLID_30_" class="st0" d="M1196.3,426.6c-3.8,0-6.2-2.3-7.6-4.8c-0.4,0.8-0.9,1.5-1.5,2.2c-1.6,1.7-3.9,2.5-6.7,2.5
					c-2.9,0-5.1-0.9-6.6-2.5c-0.4-0.5-0.7-1-1-1.5c-1.3,2.2-3.7,4-7.6,4c-2.5,0-4.5-0.8-6-2.3c-0.6-0.6-1-1.3-1.4-2
					c-1.3,2.3-3.6,4.3-7.5,4.3c-4.3,0-6.8-2.3-8.1-4.8c-1.3,2.5-3.7,4.8-7.7,4.8c-4,0-6.5-2.4-7.9-4.9c-1.2,2.5-3.4,4.9-7.5,4.9
					c-4.1,0-6.6-2.4-7.9-4.9c-1.2,2.5-3.5,4.9-7.2,4.9c-4,0-6.6-2.1-8.1-4.5c-0.3,0.6-0.7,1.3-1.3,1.9c-1.6,1.7-3.9,2.6-6.8,2.6
					c-2.8,0-5-0.9-6.5-2.6c-2.3-2.6-2-6.3-1.9-7v-8.4c0-0.2,0-0.3,0.1-0.5l15.6-34.6l0-14.9c0-0.7,0.5-1.2,1.2-1.2h91.8
					c0.7,0,1.2,0.5,1.2,1.2v15.1l15.4,34.5c0.1,0.2,0.1,0.3,0.1,0.5v9.9c0,0,0,0.1,0,0.1C1204.6,421.5,1202.4,426.6,1196.3,426.6z
					 M1188.5,416.3c0.6,0,1.1,0.4,1.2,1c0,0.3,1.2,6.8,6.7,6.8c5.3,0,6.2-5,6.3-5.7V409l-15.4-34.5c-0.1-0.2-0.1-0.3-0.1-0.5v-14.1
					h-89.4l0,14c0,0.2,0,0.3-0.1,0.5L1082,409v8.2c0,0.1,0,0.1,0,0.2c0,0-0.4,3.2,1.3,5.2c1,1.1,2.6,1.7,4.7,1.7
					c2.2,0,3.9-0.6,5-1.8c1.4-1.6,1.5-3.8,1.5-4.4c0-0.1,0-0.2,0-0.3c0-0.6,0.5-1.2,1.1-1.2c0.7,0,1.2,0.5,1.2,1.1c0,0,0,0.1,0,0.3
					c0.2,1.6,2,6.3,7.2,6.3c5,0,6-6.3,6-6.6c0.1-0.6,0.6-1,1.2-1h0c0.6,0,1.1,0.4,1.2,1c0,0.3,1,6.6,6.8,6.6c5.7,0,6.1-6.3,6.1-6.6
					c0-0.6,0.5-1.1,1.1-1.1c0.6,0,1.2,0.4,1.2,1c0,0.3,1.1,6.7,6.9,6.7c5.7,0,6.5-6.3,6.5-6.5c0.1-0.6,0.6-1,1.2-1.1
					c0.6,0,1.1,0.5,1.2,1.1c0,0.3,0.6,6.5,6.8,6.5c6.1,0,6.4-6.4,6.4-6.7v0c0-0.7,0.6-1.2,1.2-1.2c0.7,0,1.2,0.6,1.2,1.2l0,0
					c0,0.2,0,3.2,1.8,5.1c1,1,2.4,1.6,4.2,1.6c5.8,0,6.6-5.3,6.7-6.3c0-0.1,0-0.2,0-0.2c0.1-0.6,0.7-1.1,1.3-1
					c0.6,0.1,1.1,0.6,1.1,1.3c0,0.1,0,0.2,0,0.3c0,0.7,0,2.8,1.3,4.3c1,1.1,2.6,1.7,4.8,1.7c2.2,0,3.8-0.6,5-1.8
					c1.9-1.9,1.8-4.8,1.8-4.8c0-0.6,0.5-1.2,1.1-1.2C1188.4,416.3,1188.4,416.3,1188.5,416.3z"/>
			</g>
		</g>
		<g id="XMLID_765_">
			<g id="XMLID_956_">
				<path id="XMLID_37_" class="st0" d="M1188.3,375.1h-91.8c-0.7,0-1.2-0.5-1.2-1.2c0-0.7,0.5-1.2,1.2-1.2h91.8
					c0.7,0,1.2,0.5,1.2,1.2C1189.5,374.5,1189,375.1,1188.3,375.1z"/>
			</g>
		</g>
		<g id="XMLID_764_">
			<g id="XMLID_955_">
				<path id="XMLID_39_" class="st0" d="M1203.8,409.9h-123c-0.7,0-1.2-0.5-1.2-1.2c0-0.7,0.5-1.2,1.2-1.2h123
					c0.7,0,1.2,0.5,1.2,1.2C1205,409.4,1204.4,409.9,1203.8,409.9z"/>
			</g>
		</g>
		<g id="XMLID_763_">
			<g id="XMLID_954_">
				<path id="XMLID_49_" class="st0" d="M1188.5,483.4h-92.2c-0.7,0-1.2-0.5-1.2-1.2v-62.3c0-0.7,0.5-1.2,1.2-1.2
					c0.7,0,1.2,0.5,1.2,1.2V481h89.8v-63.5c0-0.7,0.5-1.2,1.2-1.2c0.7,0,1.2,0.5,1.2,1.2v64.7
					C1189.7,482.9,1189.1,483.4,1188.5,483.4z"/>
			</g>
		</g>
		<g id="XMLID_761_">
			<g id="XMLID_953_">
				<path id="XMLID_50_" class="st0" d="M1096.2,483.4h-15.4c-0.7,0-1.2-0.5-1.2-1.2s0.5-1.2,1.2-1.2h15.4c0.7,0,1.2,0.5,1.2,1.2
					S1096.9,483.4,1096.2,483.4z"/>
			</g>
		</g>
		<g id="XMLID_760_">
			<g id="XMLID_952_">
				<path id="XMLID_52_" class="st0" d="M1203.8,483.4h-15.3c-0.7,0-1.2-0.5-1.2-1.2s0.5-1.2,1.2-1.2h15.3c0.7,0,1.2,0.5,1.2,1.2
					S1204.4,483.4,1203.8,483.4z"/>
			</g>
		</g>
		<g id="XMLID_756_">
			<g id="XMLID_949_">
				<path id="XMLID_61_" class="st0" d="M1127.2,483.4h-22.5c-0.7,0-1.2-0.5-1.2-1.2v-43.7c0-0.7,0.5-1.2,1.2-1.2h22.5
					c0.7,0,1.2,0.5,1.2,1.2v43.7C1128.4,482.9,1127.9,483.4,1127.2,483.4z M1106,481h20.1v-41.3H1106V481z"/>
			</g>
		</g>
		<g id="XMLID_755_">
			<g id="XMLID_945_">
				<path id="XMLID_62_" class="st0" d="M1180.1,466.5h-43.8c-0.7,0-1.2-0.5-1.2-1.2v-26.8c0-0.7,0.5-1.2,1.2-1.2h43.8
					c0.7,0,1.2,0.5,1.2,1.2v26.8C1181.3,466,1180.8,466.5,1180.1,466.5z M1137.5,464.1h41.4v-24.4h-41.4V464.1z"/>
			</g>
		</g>
		<g id="XMLID_754_">
			<g id="XMLID_944_">
				<path id="XMLID_63_" class="st0" d="M1139.3,460.7c-0.1,0-0.2,0-0.3-0.1c-0.2-0.2-0.2-0.4,0-0.6l6.8-6.6c0.2-0.2,0.4-0.2,0.6,0
					c0.2,0.2,0.2,0.4,0,0.6l-6.8,6.6C1139.5,460.6,1139.4,460.7,1139.3,460.7z"/>
			</g>
		</g>
		<g id="XMLID_748_">
			<g id="XMLID_943_">
				<path id="XMLID_64_" class="st0" d="M1140.7,463.2c-0.1,0-0.2,0-0.3-0.1c-0.2-0.2-0.1-0.4,0-0.6l4-3.9c0.2-0.2,0.4-0.1,0.6,0
					c0.2,0.2,0.1,0.4,0,0.6l-4,3.9C1140.9,463.2,1140.8,463.2,1140.7,463.2z"/>
			</g>
		</g>
		<g id="XMLID_747_">
			<g id="XMLID_942_">
				<path id="XMLID_77_" class="st0" d="M1168.7,448.4c-0.1,0-0.2,0-0.3-0.1c-0.2-0.2-0.2-0.4,0-0.6l6.8-6.6c0.2-0.2,0.4-0.2,0.6,0
					c0.2,0.2,0.2,0.4,0,0.6l-6.8,6.6C1168.9,448.4,1168.8,448.4,1168.7,448.4z"/>
			</g>
		</g>
		<g id="XMLID_746_">
			<g id="XMLID_941_">
				<path id="XMLID_79_" class="st0" d="M1173,447.9c-0.1,0-0.2,0-0.3-0.1c-0.2-0.2-0.1-0.4,0-0.6l4.8-4.6c0.2-0.2,0.4-0.1,0.6,0
					c0.2,0.2,0.1,0.4,0,0.6l-4.8,4.6C1173.2,447.9,1173.1,447.9,1173,447.9z"/>
			</g>
		</g>
	</g>
	<g id="XMLID_1719_">
		<path id="XMLID_1296_" class="st0" d="M1234.8,512.2h-185.4V326.9h185.4V512.2z M1052.4,509.2h179.4V329.9h-179.4V509.2z"/>
	</g>
</g>
<g>
	<g id="XMLID_223_">
		<g id="XMLID_703_">
			<path id="XMLID_1010_" class="st0" d="M1279.9,482c-0.6,0-1.1-0.5-1.1-1.1v-54c0-0.6,0.5-1.1,1.1-1.1h119.7
				c0.6,0,1.1,0.5,1.1,1.1v52.5c0,0.6-0.5,1.1-1.1,1.1h-34c-0.6,0-1.1-0.5-1.1-1.1v-46.1c0-0.6,0.5-1.1,1.1-1.1
				c0.6,0,1.1,0.5,1.1,1.1v44.9h31.8v-50.3H1281v52.9C1281,481.5,1280.5,482,1279.9,482z"/>
		</g>
		<g id="XMLID_704_">
			<path id="XMLID_1009_" class="st0" d="M1399.6,434.2h-119.7c-0.6,0-1.1-0.5-1.1-1.1c0-0.6,0.5-1.1,1.1-1.1h119.7
				c0.6,0,1.1,0.5,1.1,1.1C1400.7,433.7,1400.2,434.2,1399.6,434.2z"/>
		</g>
		<g id="XMLID_637_">
			<path id="XMLID_1006_" class="st0" d="M1329,454.2h-27.1c-3.1,0-5.7-2.6-5.7-5.7s2.6-5.7,5.7-5.7h27.1c3.1,0,5.7,2.6,5.7,5.7
				S1332.1,454.2,1329,454.2z M1301.8,445c-1.9,0-3.5,1.6-3.5,3.5s1.6,3.5,3.5,3.5h27.1c1.9,0,3.5-1.6,3.5-3.5s-1.6-3.5-3.5-3.5
				H1301.8z"/>
		</g>
		<g id="XMLID_705_">
			<path id="XMLID_1005_" class="st0" d="M1329.1,480.4c-0.1,0-0.3,0-0.4-0.1l-13.8-6.1c-0.4-0.2-0.7-0.6-0.7-1v-20.1
				c0-0.6,0.5-1.1,1.1-1.1c0.6,0,1.1,0.5,1.1,1.1v19.4l13.2,5.8c0.6,0.2,0.8,0.9,0.6,1.5C1329.9,480.1,1329.5,480.4,1329.1,480.4z"
				/>
		</g>
		<g id="XMLID_12_">
			<path id="XMLID_1004_" class="st0" d="M1301.4,480.4c-0.4,0-0.8-0.2-1-0.7c-0.2-0.6,0-1.2,0.6-1.5l13.8-6.1
				c0.6-0.2,1.2,0,1.5,0.6c0.2,0.6,0,1.2-0.6,1.5l-13.8,6.1C1301.7,480.3,1301.6,480.4,1301.4,480.4z"/>
		</g>
		<g id="XMLID_16_">
			<path id="XMLID_1003_" class="st0" d="M1399.6,464.8h-34c-0.6,0-1.1-0.5-1.1-1.1c0-0.6,0.5-1.1,1.1-1.1h34c0.6,0,1.1,0.5,1.1,1.1
				C1400.7,464.4,1400.2,464.8,1399.6,464.8z"/>
		</g>
		<g id="XMLID_81_">
			<path id="XMLID_1002_" class="st0" d="M1399.6,449.6h-34c-0.6,0-1.1-0.5-1.1-1.1s0.5-1.1,1.1-1.1h34c0.6,0,1.1,0.5,1.1,1.1
				S1400.2,449.6,1399.6,449.6z"/>
		</g>
		<g id="XMLID_83_">
			<path id="XMLID_999_" class="st0" d="M1386,443.5h-6.2c-1.4,0-2.6-1.2-2.6-2.6c0-1.4,1.2-2.6,2.6-2.6h6.2c1.4,0,2.6,1.2,2.6,2.6
				C1388.7,442.3,1387.5,443.5,1386,443.5z M1379.8,440.5c-0.2,0-0.4,0.2-0.4,0.4c0,0.2,0.2,0.4,0.4,0.4h6.2c0.2,0,0.4-0.2,0.4-0.4
				c0-0.2-0.2-0.4-0.4-0.4H1379.8z"/>
		</g>
		<g id="XMLID_86_">
			<path id="XMLID_996_" class="st0" d="M1386,458.9h-6.2c-1.4,0-2.6-1.2-2.6-2.6c0-1.4,1.2-2.6,2.6-2.6h6.2c1.4,0,2.6,1.2,2.6,2.6
				C1388.7,457.7,1387.5,458.9,1386,458.9z M1379.8,455.8c-0.2,0-0.4,0.2-0.4,0.4c0,0.2,0.2,0.4,0.4,0.4h6.2c0.2,0,0.4-0.2,0.4-0.4
				c0-0.2-0.2-0.4-0.4-0.4H1379.8z"/>
		</g>
		<g id="XMLID_87_">
			<path id="XMLID_993_" class="st0" d="M1386,474.3h-6.2c-1.4,0-2.6-1.2-2.6-2.6c0-1.4,1.2-2.6,2.6-2.6h6.2c1.4,0,2.6,1.2,2.6,2.6
				C1388.7,473.1,1387.5,474.3,1386,474.3z M1379.8,471.2c-0.2,0-0.4,0.2-0.4,0.4c0,0.2,0.2,0.4,0.4,0.4h6.2c0.2,0,0.4-0.2,0.4-0.4
				c0-0.2-0.2-0.4-0.4-0.4H1379.8z"/>
		</g>
		<g id="XMLID_88_">
			<path id="XMLID_992_" class="st0" d="M1333.5,427.9c-0.6,0-1.1-0.5-1.1-1.1v-3.1h-34.2v3.1c0,0.6-0.5,1.1-1.1,1.1
				c-0.6,0-1.1-0.5-1.1-1.1v-4.2c0-0.6,0.5-1.1,1.1-1.1h36.4c0.6,0,1.1,0.5,1.1,1.1v4.2C1334.6,427.4,1334.1,427.9,1333.5,427.9z"/>
		</g>
		<g id="XMLID_89_">
			<path id="XMLID_987_" class="st0" d="M1330.6,423.7h-30.7c-0.6,0-1.1-0.5-1.1-1.1v-22.1c0-0.6,0.5-1.1,1.1-1.1h30.7
				c0.6,0,1.1,0.5,1.1,1.1v22.1C1331.7,423.3,1331.2,423.7,1330.6,423.7z M1301,421.5h28.5v-19.9H1301V421.5z"/>
		</g>
		<g id="XMLID_90_">
			<path id="XMLID_986_" class="st0" d="M1304,406.1c-0.1,0-0.2,0-0.3-0.1l-2.4-2.7c-0.1-0.2-0.1-0.4,0-0.5c0.2-0.1,0.4-0.1,0.5,0
				l2.4,2.7c0.1,0.2,0.1,0.4,0,0.5C1304.1,406,1304.1,406.1,1304,406.1z"/>
		</g>
		<g id="XMLID_92_">
			<path id="XMLID_974_" class="st0" d="M1307.1,406.9c-0.1,0-0.2,0-0.3-0.1l-3.5-3.9c-0.1-0.2-0.1-0.4,0-0.5c0.2-0.1,0.4-0.1,0.5,0
				l3.5,3.9c0.1,0.2,0.1,0.4,0,0.5C1307.3,406.9,1307.2,406.9,1307.1,406.9z"/>
		</g>
		<g id="XMLID_99_">
			<path id="XMLID_973_" class="st0" d="M1328.1,420.5c-0.1,0-0.2,0-0.3-0.1l-2.4-2.7c-0.1-0.2-0.1-0.4,0-0.5c0.2-0.1,0.4-0.1,0.5,0
				l2.4,2.7c0.1,0.2,0.1,0.4,0,0.5C1328.3,420.5,1328.2,420.5,1328.1,420.5z"/>
		</g>
		<g id="XMLID_93_">
			<path id="XMLID_972_" class="st0" d="M1325.9,420.7c-0.1,0-0.2,0-0.3-0.1l-3.5-3.9c-0.1-0.2-0.1-0.4,0-0.5c0.2-0.1,0.4-0.1,0.5,0
				l3.5,3.9c0.1,0.2,0.1,0.4,0,0.5C1326.1,420.7,1326,420.7,1325.9,420.7z"/>
		</g>
		<g id="XMLID_100_">
			<path id="XMLID_969_" class="st0" d="M1353.5,427.9h-11.9c-0.6,0-1.1-0.5-1.1-1.1v-18c0-0.6,0.5-1.1,1.1-1.1h11.9
				c0.6,0,1.1,0.5,1.1,1.1v18C1354.6,427.4,1354.1,427.9,1353.5,427.9z M1342.6,425.7h9.7v-15.8h-9.7V425.7z"/>
		</g>
		<g id="XMLID_101_">
			<path id="XMLID_968_" class="st0" d="M1353.5,423.1c-0.5,0-1-0.4-1.1-0.9c-0.1-0.6,0.2-1.2,0.8-1.3c0.2,0,4.3-1,4.3-4.4
				c0-3.4-4.1-4.4-4.3-4.5c-0.6-0.1-1-0.7-0.8-1.3c0.1-0.6,0.7-1,1.3-0.8c2.1,0.5,6,2.5,6,6.6c0,4.2-3.9,6.1-6,6.6
				C1353.6,423.1,1353.5,423.1,1353.5,423.1z"/>
		</g>
		<g id="XMLID_102_">
			<path id="XMLID_965_" class="st0" d="M1399.6,427.9h-32c-0.6,0-1.1-0.5-1.1-1.1v-29.5c0-0.6,0.5-1.1,1.1-1.1h32
				c0.6,0,1.1,0.5,1.1,1.1v29.5C1400.7,427.4,1400.2,427.9,1399.6,427.9z M1368.7,425.7h29.8v-27.3h-29.8V425.7z"/>
		</g>
		<g id="XMLID_103_">
			<path id="XMLID_964_" class="st0" d="M1389,427.9c-0.6,0-1.1-0.5-1.1-1.1v-29.5c0-0.6,0.5-1.1,1.1-1.1c0.6,0,1.1,0.5,1.1,1.1
				v29.5C1390.1,427.4,1389.7,427.9,1389,427.9z"/>
		</g>
		<g id="XMLID_105_">
			<path id="XMLID_963_" class="st0" d="M1378.3,427.9c-0.6,0-1.1-0.5-1.1-1.1v-29.5c0-0.6,0.5-1.1,1.1-1.1c0.6,0,1.1,0.5,1.1,1.1
				v29.5C1379.4,427.4,1378.9,427.9,1378.3,427.9z"/>
		</g>
		<g id="XMLID_107_">
			<path id="XMLID_960_" class="st0" d="M1395.2,423.5h-1.5c-1.5,0-2.6-1.2-2.6-2.6c0-1.5,1.2-2.6,2.6-2.6h1.5
				c1.5,0,2.6,1.2,2.6,2.6C1397.9,422.3,1396.7,423.5,1395.2,423.5z M1393.7,420.4c-0.2,0-0.4,0.2-0.4,0.4c0,0.2,0.2,0.4,0.4,0.4
				h1.5c0.2,0,0.4-0.2,0.4-0.4c0-0.2-0.2-0.4-0.4-0.4H1393.7z"/>
		</g>
		<g id="XMLID_156_">
			<path id="XMLID_916_" class="st0" d="M1384.5,423.5h-1.5c-1.5,0-2.6-1.2-2.6-2.6c0-1.5,1.2-2.6,2.6-2.6h1.5
				c1.5,0,2.6,1.2,2.6,2.6C1387.1,422.3,1385.9,423.5,1384.5,423.5z M1382.9,420.4c-0.2,0-0.4,0.2-0.4,0.4c0,0.2,0.2,0.4,0.4,0.4
				h1.5c0.2,0,0.4-0.2,0.4-0.4c0-0.2-0.2-0.4-0.4-0.4H1382.9z"/>
		</g>
		<g id="XMLID_731_">
			<path id="XMLID_913_" class="st0" d="M1373.8,423.5h-1.5c-1.5,0-2.6-1.2-2.6-2.6c0-1.5,1.2-2.6,2.6-2.6h1.5
				c1.5,0,2.6,1.2,2.6,2.6C1376.4,422.3,1375.2,423.5,1373.8,423.5z M1372.2,420.4c-0.2,0-0.4,0.2-0.4,0.4c0,0.2,0.2,0.4,0.4,0.4
				h1.5c0.2,0,0.4-0.2,0.4-0.4c0-0.2-0.2-0.4-0.4-0.4H1372.2z"/>
		</g>
		<g id="XMLID_148_">
			<path id="XMLID_910_" class="st0" d="M1299.1,388.6c-8.5,0-15.4-6.9-15.4-15.4s6.9-15.4,15.4-15.4c8.5,0,15.4,6.9,15.4,15.4
				S1307.6,388.6,1299.1,388.6z M1299.1,360c-7.3,0-13.2,5.9-13.2,13.2c0,7.3,5.9,13.2,13.2,13.2s13.2-5.9,13.2-13.2
				C1312.3,365.9,1306.4,360,1299.1,360z"/>
		</g>
		<g id="XMLID_228_">
			<path id="XMLID_886_" class="st0" d="M1307.1,375.8h-8.5c-0.6,0-1.1-0.5-1.1-1.1v-11.3c0-0.6,0.5-1.1,1.1-1.1
				c0.6,0,1.1,0.5,1.1,1.1v10.2h7.4c0.6,0,1.1,0.5,1.1,1.1C1308.2,375.3,1307.7,375.8,1307.1,375.8z"/>
		</g>
		<g id="XMLID_232_">
			<path id="XMLID_878_" class="st0" d="M1401.4,388.1h-72.3c-0.6,0-1.1-0.5-1.1-1.1s0.5-1.1,1.1-1.1h72.3c0.6,0,1.1,0.5,1.1,1.1
				S1402,388.1,1401.4,388.1z"/>
		</g>
		<g id="XMLID_229_">
			<path id="XMLID_861_" class="st0" d="M1347.6,388.1h-12.5c-0.6,0-1.1-0.5-1.1-1.1v-26c0-0.6,0.5-1.1,1.1-1.1h12.5
				c0.6,0,1.1,0.5,1.1,1.1v26C1348.7,387.6,1348.2,388.1,1347.6,388.1z M1336.2,385.9h10.3v-23.8h-10.3V385.9z"/>
		</g>
		<g id="XMLID_237_">
			<path id="XMLID_807_" class="st0" d="M1353.8,388.1h-6.2c-0.6,0-1.1-0.5-1.1-1.1v-23.2c0-0.6,0.5-1.1,1.1-1.1h6.2
				c0.6,0,1.1,0.5,1.1,1.1V387C1354.9,387.6,1354.4,388.1,1353.8,388.1z M1348.7,385.9h4v-21h-4V385.9z"/>
		</g>
		<g id="XMLID_706_">
			<path id="XMLID_799_" class="st0" d="M1370.4,388.1c-0.3,0-0.7-0.2-0.9-0.5l-16.2-23.1c-0.2-0.2-0.2-0.5-0.2-0.8
				c0.1-0.3,0.2-0.5,0.5-0.7l5.1-3.6c0.5-0.3,1.2-0.2,1.5,0.3l16.2,23.1c0.2,0.2,0.2,0.5,0.2,0.8c-0.1,0.3-0.2,0.5-0.5,0.7l-5.1,3.6
				C1370.9,388.1,1370.6,388.1,1370.4,388.1z M1355.7,364.2l14.9,21.3l3.3-2.3l-14.9-21.3L1355.7,364.2z"/>
		</g>
		<g id="XMLID_709_">
			<path id="XMLID_793_" class="st0" d="M1393.7,388.1h-8.3c-0.5,0-1-0.4-1.1-0.9l-0.3-1.5l-2.3-9.1c-0.1-0.3,0-0.7,0.2-0.9
				s0.5-0.4,0.9-0.4h13.6c0.3,0,0.7,0.2,0.9,0.4c0.2,0.3,0.3,0.6,0.2,0.9l-2.7,10.7C1394.6,387.8,1394.2,388.1,1393.7,388.1z
				 M1386.2,385.9h6.6l2.1-8.5h-10.8l2,7.8c0,0,0,0,0,0.1L1386.2,385.9z"/>
		</g>
		<g id="XMLID_235_">
			<path id="XMLID_775_" class="st0" d="M1394.3,377.5h-9.6c-0.5,0-0.9-0.3-1.1-0.8c-0.2-0.6-1.7-5.6-1.6-7.9
				c0.2-3.5,2.3-7.2,7.5-7.2c0,0,0,0,0.1,0c0.2,0,3.9,0.2,6.1,2.7c1.1,1.2,1.6,2.7,1.4,4.5c-0.4,5.7-1.7,7.9-1.8,8.2
				C1395,377.3,1394.6,377.5,1394.3,377.5z M1385.4,375.3h8.1c0.4-0.9,1-2.9,1.3-6.6c0.1-1.2-0.2-2.1-0.9-2.9
				c-1.5-1.6-4.3-1.9-4.5-1.9c-4.5,0-5.1,3.6-5.2,5.1C1384.1,370.3,1384.9,373.5,1385.4,375.3z"/>
		</g>
		<g id="XMLID_732_">
			<path id="XMLID_774_" class="st0" d="M1398.7,371.2h-5.6c-0.6,0-1.1-0.5-1.1-1.1s0.5-1.1,1.1-1.1h5.6c0.6,0,1.1,0.5,1.1,1.1
				S1399.3,371.2,1398.7,371.2z"/>
		</g>
		<g id="XMLID_739_">
			<path id="XMLID_773_" class="st0" d="M1388.5,365.5c-0.5,0-0.9-0.3-1-0.7l-2.1-6.1c-0.2-0.6,0.1-1.2,0.7-1.4
				c0.6-0.2,1.2,0.1,1.4,0.7l2.1,6.1c0.2,0.6-0.1,1.2-0.7,1.4C1388.8,365.5,1388.6,365.5,1388.5,365.5z"/>
		</g>
		<g id="XMLID_740_">
			<path id="XMLID_772_" class="st0" d="M1385.8,367.9c-0.3,0-0.5-0.1-0.7-0.3l-4.8-4.4c-0.5-0.4-0.5-1.1-0.1-1.6
				c0.4-0.5,1.1-0.5,1.6-0.1l4.8,4.4c0.5,0.4,0.5,1.1,0.1,1.6C1386.4,367.8,1386.1,367.9,1385.8,367.9z"/>
		</g>
		<g id="XMLID_635_">
			<path id="XMLID_636_" class="st0" d="M1341.3,388.1c-0.6,0-1.1-0.5-1.1-1.1v-25.7c0-0.6,0.5-1.1,1.1-1.1c0.6,0,1.1,0.5,1.1,1.1
				V387C1342.4,387.6,1341.9,388.1,1341.3,388.1z"/>
		</g>
	</g>
	<g id="XMLID_1717_">
		<path id="XMLID_533_" class="st0" d="M1437.4,512.2h-185.4V326.8h185.4V512.2z M1255.1,509.2h179.4V329.8h-179.4V509.2z"/>
	</g>
</g>
<g>
	<g id="XMLID_1708_">
		<path id="XMLID_1188_" class="st0" d="M185.4,185.4H0V0h185.4V185.4z M3,182.4h179.4V3H3V182.4z"/>
	</g>
	<g id="XMLID_1410_">
		<path id="XMLID_1480_" class="st0" d="M67.4,120.2h-6.2H45.8h-4l-3-33.5c-0.1-1-1-1.7-1.9-1.6c-1,0.1-1.7,0.9-1.6,1.9l3.2,35.1
			c0.1,0.9,0.8,1.6,1.7,1.6h3.4l-4.3,20.6c-0.2,0.9,0.4,1.9,1.3,2.1c0.9,0.2,1.9-0.4,2.1-1.3l1.9-8.9h17.8l1.9,8.9
			c0.2,0.8,0.9,1.4,1.7,1.4c0.1,0,0.2,0,0.4,0c0.9-0.2,1.5-1.1,1.3-2.1L65.5,134l0,0l-2.2-10.3h4c1,0,1.7-0.8,1.7-1.7
			C69.1,121,68.3,120.2,67.4,120.2z M61.7,132.6H45.4l1.9-9h12.5L61.7,132.6z"/>
		<path id="XMLID_1483_" class="st0" d="M146.7,85.1c-0.9-0.1-1.8,0.6-1.9,1.6l-3,33.5h-4h-15.3h-6.2c-1,0-1.7,0.8-1.7,1.7
			c0,1,0.8,1.7,1.7,1.7h4l-4.3,20.6c-0.2,0.9,0.4,1.9,1.3,2.1c0.1,0,0.2,0,0.4,0c0.8,0,1.5-0.6,1.7-1.4l1.9-8.9H139l1.9,8.9
			c0.2,0.9,1.1,1.5,2.1,1.3c0.9-0.2,1.5-1.1,1.3-2.1l-2.2-10.3l0,0l-2.2-10.3h3.4c0.9,0,1.6-0.7,1.7-1.6l3.2-35.1
			C148.3,86,147.6,85.2,146.7,85.1z M138.2,132.6h-16.3l1.9-9h12.5L138.2,132.6z"/>
		<path id="XMLID_1484_" class="st0" d="M104.3,142.9h-9.4v-36.8h31.7c1,0,1.7-0.8,1.7-1.7c0-1-0.8-1.7-1.7-1.7H57.3
			c-1,0-1.7,0.8-1.7,1.7c0,1,0.8,1.7,1.7,1.7h34.1v36.8H82c-1,0-1.7,0.8-1.7,1.7s0.8,1.7,1.7,1.7h22.3c1,0,1.7-0.8,1.7-1.7
			S105.2,142.9,104.3,142.9z"/>
		<path id="XMLID_1487_" class="st0" d="M71.7,79.3h40.9c1,0,1.7-0.8,1.7-1.7c0-5.7-8.7-10-20.4-10.4V40.3c0-1-0.8-1.7-1.7-1.7
			c-1,0-1.7,0.8-1.7,1.7v26.9c-11.8,0.4-20.4,4.7-20.4,10.4C69.9,78.5,70.7,79.3,71.7,79.3z M92.1,70.6c8.8,0,15.8,2.5,18,5.2h-36
			C76.3,73.1,83.3,70.6,92.1,70.6z"/>
	</g>
</g>
<g>
	<g id="XMLID_1707_">
		<path id="XMLID_1175_" class="st0" d="M1137.6,249H952.3V63.6h185.4V249z M955.3,246h179.4V66.6H955.3V246z"/>
	</g>
	<g id="XMLID_1408_">
		<g id="XMLID_1423_">
			<path id="XMLID_1438_" class="st0" d="M1065.8,200.6L1065.8,200.6l-43.8,0c-12.8,0-23.2-10.4-23.2-23.2l0-3.6c0-3.3-2.7-6-6-6
				c-0.7,0-1.3-0.6-1.3-1.3V161c0-0.7,0.6-1.3,1.3-1.3H1095c0.7,0,1.3,0.6,1.3,1.3v5.5c0,0.7-0.6,1.3-1.3,1.3
				c-1.6,0-3.1,0.6-4.3,1.8c-1.1,1.1-1.8,2.6-1.8,4.3v3.6C1089,190.2,1078.6,200.6,1065.8,200.6z M994.1,165.3
				c4.1,0.6,7.3,4.2,7.3,8.5l0,3.6c0,11.4,9.2,20.6,20.6,20.6l43.8,0c11.4,0,20.6-9.2,20.6-20.6v-3.6c0-2.3,0.9-4.4,2.5-6.1
				c1.3-1.3,3-2.2,4.8-2.4v-3h-99.6V165.3z"/>
		</g>
		<g id="XMLID_1421_">
			<path id="XMLID_1437_" class="st0" d="M1095,167.8H992.9c-0.7,0-1.3-0.6-1.3-1.3s0.6-1.3,1.3-1.3H1095c0.7,0,1.3,0.6,1.3,1.3
				S1095.7,167.8,1095,167.8z"/>
		</g>
		<g id="XMLID_1420_">
			<path id="XMLID_1434_" class="st0" d="M1016.1,206.1h-5c-0.5,0-0.9-0.2-1.1-0.6s-0.2-0.9,0-1.3l3.8-6.7c0.3-0.5,1-0.8,1.5-0.6
				c2.2,0.8,4.5,1.1,6.7,1.1h7.3c0.7,0,1.3,0.6,1.3,1.3s-0.6,1.3-1.3,1.3c-4.7,0-9,1.8-12.3,5.1
				C1016.8,205.9,1016.5,206.1,1016.1,206.1z M1013.3,203.5h2.3c1.3-1.2,2.7-2.2,4.2-3c-1.4-0.1-2.8-0.4-4.2-0.8L1013.3,203.5z"/>
		</g>
		<g id="XMLID_1419_">
			<path id="XMLID_1431_" class="st0" d="M1076.8,206.1h-5c-0.3,0-0.7-0.1-0.9-0.4c-3.3-3.3-7.7-5.1-12.3-5.1
				c-0.7,0-1.3-0.6-1.3-1.3s0.6-1.3,1.3-1.3h7.3c2.2,0,4.5-0.4,6.7-1.1c0.6-0.2,1.2,0,1.5,0.6l3.8,6.7c0.2,0.4,0.2,0.9,0,1.3
				C1077.7,205.8,1077.2,206.1,1076.8,206.1z M1072.3,203.5h2.3l-2.2-3.9c-1.4,0.4-2.8,0.7-4.2,0.8
				C1069.6,201.3,1071,202.3,1072.3,203.5z"/>
		</g>
		<g id="XMLID_1418_">
			<path id="XMLID_1430_" class="st0" d="M1000.2,162.3c-0.7,0-1.3-0.6-1.3-1.3v-51.1c0-4.7,3.8-8.6,8.6-8.6c2.3,0,4.4,0.9,6.1,2.5
				c0.2,0.2,0.4,0.6,0.4,0.9c0,0.3-0.1,0.7-0.4,0.9c-0.5,0.5-1.3,0.5-1.8,0c-1.1-1.1-2.6-1.8-4.3-1.8c-3.3,0-6,2.7-6,6v37.6
				c0.7-0.4,1.5-0.6,2.4-0.6c2.7,0,4.9,2.2,4.9,4.9c0,0.7-0.6,1.3-1.3,1.3s-1.3-0.6-1.3-1.3c0-1.3-1.1-2.4-2.4-2.4
				c-1.3,0-2.4,1.1-2.4,2.4v9.1C1001.4,161.7,1000.9,162.3,1000.2,162.3z"/>
		</g>
		<g id="XMLID_1412_">
			<path id="XMLID_1425_" class="st0" d="M1012.6,113.8c-0.1,0-0.2,0-0.4-0.1c-0.5-0.1-0.8-0.5-0.9-1l-1.3-6.4
				c-0.1-0.4,0-0.9,0.3-1.2l2.6-2.6c0.3-0.3,0.7-0.4,1.2-0.3l6.5,1.3c0.5,0.1,0.8,0.4,1,0.9c0.1,0.5,0,0.9-0.3,1.3l-7.7,7.7
				C1013.3,113.7,1013,113.8,1012.6,113.8z M1012.7,106.5l0.7,3.4l4.4-4.4l-3.4-0.7L1012.7,106.5z"/>
		</g>
	</g>
</g>
<g>
	<g id="XMLID_1715_">
		<path id="XMLID_1168_" class="st0" d="M1336.1,249.8h-185.4V64.4h185.4V249.8z M1153.7,246.8h179.4V67.4h-179.4V246.8z"/>
	</g>
	<g id="XMLID_1424_">
		<g id="XMLID_1443_">
			<path id="XMLID_1628_" class="st0" d="M1292.5,184h-49.8c-1,0-1.9-0.8-1.9-1.9s0.8-1.9,1.9-1.9h49.8c1,0,1.9,0.8,1.9,1.9
				S1293.6,184,1292.5,184z"/>
		</g>
		<g id="XMLID_1477_">
			<path id="XMLID_1625_" class="st0" d="M1245.7,208.8c-0.2,0-0.4,0-0.6-0.1c-1-0.4-1.5-1.4-1.1-2.4l9-24.8c0.4-1,1.4-1.5,2.4-1.1
				c1,0.4,1.5,1.4,1.1,2.4l-9,24.8C1247.2,208.4,1246.4,208.8,1245.7,208.8z"/>
		</g>
		<g id="XMLID_1490_">
			<path id="XMLID_1624_" class="st0" d="M1289.6,208.8c-0.8,0-1.5-0.5-1.8-1.3l-8.4-24.8c-0.3-1,0.2-2.1,1.2-2.4
				c1-0.3,2.1,0.2,2.4,1.2l8.4,24.8c0.3,1-0.2,2.1-1.2,2.4C1290,208.8,1289.8,208.8,1289.6,208.8z"/>
		</g>
		<g id="XMLID_1491_">
			<path id="XMLID_1559_" class="st0" d="M1289.9,131.2v-18.2h-44.6v21.4v6.1h44.6V131.2z M1248.8,116.5h37.7v11.3l-4.2-4.2
				c-2.3-2.3-6.3-2.5-8.8-0.3l-6.4,5.5c-0.9,0.7-2.1,0.9-3.1,0.5l-3.6-1.4c-2-0.8-4.3-0.5-6,0.6l-5.5,3.7V116.5z M1286.5,137.1
				h-37.7v-0.8l7.4-5c0.8-0.5,1.9-0.7,2.8-0.3l3.6,1.4c2.2,0.9,4.8,0.4,6.6-1.1l6.4-5.5c1.2-1,3.1-0.9,4.1,0.2l6.7,6.7V137.1z"/>
			<path id="XMLID_1492_" class="st0" d="M1297.9,205.7h-68.3c0.2-0.5,0.3-1.1,0.3-1.7c0-2.8-2.3-5.1-5.1-5.1h-8.6v-31.9l15.4-15.4
				c1,0.6,2.2,1,3.5,1c3.8,0,6.9-3.1,6.9-6.9c0-3.8-3.1-6.9-6.9-6.9s-6.9,3.1-6.9,6.9c0,1.3,0.4,2.4,1,3.5l-13,13v-20.9l6.8-6.8
				c1,0.6,2.2,1,3.5,1c3.8,0,6.9-3.1,6.9-6.9c0-3.8-3.1-6.9-6.9-6.9s-6.9,3.1-6.9,6.9c0,1.3,0.4,2.4,1,3.5l-4.4,4.4v-16.7
				c2.9-0.8,5.1-3.4,5.1-6.6c0-3.8-3.1-6.9-6.9-6.9s-6.9,3.1-6.9,6.9c0,3.2,2.2,5.8,5.1,6.6v33.8l-6.1-6.1c0.6-1,1-2.2,1-3.5
				c0-3.8-3.1-6.9-6.9-6.9c-3.8,0-6.9,3.1-6.9,6.9c0,3.8,3.1,6.9,6.9,6.9c1.3,0,2.4-0.4,3.5-1l8.5,8.5v40.4h-8.6
				c-2.8,0-5.1,2.3-5.1,5.1c0,0.6,0.1,1.2,0.3,1.7h-7.2c-0.9,0-1.7,0.8-1.7,1.7s0.8,1.7,1.7,1.7h12h20.6h73.2c0.9,0,1.7-0.8,1.7-1.7
				S1298.9,205.7,1297.9,205.7z M1235.1,142.2c1.9,0,3.4,1.5,3.4,3.4s-1.5,3.4-3.4,3.4s-3.4-1.5-3.4-3.4S1233.2,142.2,1235.1,142.2z
				 M1226.5,125.1c1.9,0,3.4,1.5,3.4,3.4s-1.5,3.4-3.4,3.4c-1.9,0-3.4-1.5-3.4-3.4S1224.6,125.1,1226.5,125.1z M1197.3,143.9
				c0-1.9,1.5-3.4,3.4-3.4c1.9,0,3.4,1.5,3.4,3.4s-1.5,3.4-3.4,3.4C1198.9,147.4,1197.3,145.8,1197.3,143.9z M1211,113.1
				c0-1.9,1.5-3.4,3.4-3.4s3.4,1.5,3.4,3.4s-1.5,3.4-3.4,3.4S1211,115,1211,113.1z M1204.2,205.7c-0.9,0-1.7-0.8-1.7-1.7
				s0.8-1.7,1.7-1.7h20.6c0.9,0,1.7,0.8,1.7,1.7s-0.8,1.7-1.7,1.7H1204.2z"/>
		</g>
	</g>
</g>
<g>
	<g id="XMLID_1714_">
		<path id="XMLID_1163_" class="st0" d="M1534.7,250.3h-185.4V65h185.4V250.3z M1352.3,247.3h179.4V68h-179.4V247.3z"/>
	</g>
	<g id="XMLID_1267_">
		<g id="XMLID_320_">
			<path id="XMLID_1689_" class="st0" d="M1415.5,172.6c-6.3,0-19.1-1.3-29.6-10.5c-3.9-3.4-5.9-7.3-6-11.6
				c-0.2-8.9,7.8-16.7,10.4-19.3l0.4-0.4c2.7-2.7,14.8-14.5,15-14.6c0.3-0.3,6.1-5,13.3-5c6.2,0,10.9,3.7,13.1,5.5
				c0.3,0.3,0.6,0.5,0.9,0.7c0,0,0.1,0.1,0.1,0.1l24.7,23.2c0.1,0.1,0.1,0.1,0.2,0.2c0.2,0.4,5.7,9.7,2.5,17.9
				c-1.7,4.5-5.7,7.6-11.7,9.5c-15.6,4.7-22.8,4.4-28.1,4.2l-1.2,0C1418.9,172.5,1417.5,172.6,1415.5,172.6z M1418.9,113.3
				c-6.4,0-11.8,4.4-11.8,4.5c-0.1,0.1-12.1,11.8-14.9,14.5l-0.4,0.4c-2.5,2.4-10,9.8-9.8,17.7c0.1,3.7,1.9,7,5.3,10
				c13.4,11.9,31.6,9.8,31.8,9.8c0.1,0,0.1,0,0.2,0l1.3,0c5.1,0.2,12.2,0.5,27.4-4.1c5.4-1.6,8.9-4.4,10.3-8.2
				c2.6-6.7-1.7-14.8-2.3-15.9l-24.5-23c-0.3-0.2-0.6-0.4-0.9-0.7C1428.5,116.6,1424.4,113.3,1418.9,113.3z"/>
		</g>
		<g id="XMLID_325_">
			<path id="XMLID_1688_" class="st0" d="M1420.6,172.5c-0.2,0-0.3,0-0.5-0.1l-39.2-18c-0.5-0.2-0.8-0.9-0.5-1.4
				c0.2-0.5,0.9-0.8,1.4-0.5l28.7,13.2l-29-20.6c-0.5-0.3-0.6-1-0.3-1.5c0.3-0.5,1-0.6,1.5-0.3l38.4,27.3c0.5,0.3,0.6,0.9,0.3,1.4
				C1421.4,172.3,1421,172.5,1420.6,172.5z"/>
		</g>
		<g id="XMLID_326_">
			<path id="XMLID_1687_" class="st0" d="M1420.6,172.5c-0.3,0-0.5-0.1-0.7-0.3l-34.9-33.4c-0.4-0.4-0.4-1.1,0-1.5
				c0.4-0.4,1.1-0.4,1.5,0l21.8,20.8l-19.6-23.8c-0.4-0.5-0.3-1.1,0.1-1.5c0.5-0.4,1.1-0.3,1.5,0.1l31.2,37.8
				c0.4,0.4,0.3,1.1-0.1,1.5C1421.2,172.4,1420.9,172.5,1420.6,172.5z"/>
		</g>
		<g id="XMLID_522_">
			<path id="XMLID_1686_" class="st0" d="M1420.6,172.5c-0.4,0-0.7-0.2-0.9-0.5l-27.4-41.6c-0.3-0.5-0.2-1.2,0.3-1.5
				c0.5-0.3,1.2-0.2,1.5,0.3l17.7,26.8l-15-30.2c-0.3-0.5,0-1.2,0.5-1.4c0.5-0.3,1.2,0,1.4,0.5l22.8,46c0.3,0.5,0.1,1.1-0.4,1.4
				C1421,172.4,1420.8,172.5,1420.6,172.5z"/>
		</g>
		<g id="XMLID_531_">
			<path id="XMLID_1685_" class="st0" d="M1420.6,172.5c-0.4,0-0.8-0.3-1-0.7l-18.7-50.1c-0.2-0.6,0.1-1.2,0.6-1.4
				c0.6-0.2,1.2,0.1,1.4,0.6l11.3,30.3l-8.9-34.1c-0.2-0.6,0.2-1.2,0.8-1.3c0.6-0.1,1.2,0.2,1.3,0.8l14.2,54.5
				c0.1,0.6-0.2,1.1-0.7,1.3C1420.8,172.5,1420.7,172.5,1420.6,172.5z"/>
		</g>
		<g id="XMLID_1072_">
			<path id="XMLID_1684_" class="st0" d="M1420.6,172.5c-0.5,0-1-0.4-1.1-0.9l-7.9-58c-0.1-0.6,0.3-1.1,0.9-1.2
				c0.6-0.1,1.1,0.3,1.2,0.9l5.2,38l-1.1-39c0-0.6,0.5-1.1,1-1.1c0.6,0,1.1,0.5,1.1,1l1.7,59.2
				C1421.7,171.9,1421.3,172.4,1420.6,172.5C1420.7,172.5,1420.7,172.5,1420.6,172.5z"/>
		</g>
		<g id="XMLID_1073_">
			<path id="XMLID_1683_" class="st0" d="M1420.6,172.5c0,0-0.1,0-0.1,0c-0.6-0.1-1-0.6-0.9-1.1l4-58c0-0.6,0.6-1,1.2-1
				c0.6,0,1,0.6,1,1.2l-2.5,36.1l5.6-33.3c0.1-0.6,0.7-1,1.2-0.9c0.6,0.1,1,0.7,0.9,1.2l-9.3,55
				C1421.6,172.1,1421.1,172.5,1420.6,172.5z"/>
		</g>
		<g id="XMLID_1078_">
			<path id="XMLID_1682_" class="st0" d="M1420.6,172.5c-0.1,0-0.3,0-0.4-0.1c-0.5-0.2-0.8-0.8-0.7-1.3l15.1-49.9
				c0.2-0.6,0.8-0.9,1.3-0.7c0.6,0.2,0.9,0.8,0.7,1.3l-10,33.2l13-29.3c0.2-0.5,0.9-0.8,1.4-0.6c0.5,0.2,0.8,0.9,0.6,1.4l-20,45.3
				C1421.4,172.2,1421,172.5,1420.6,172.5z"/>
		</g>
		<g id="XMLID_1080_">
			<path id="XMLID_1681_" class="st0" d="M1420.6,172.5c-0.2,0-0.4-0.1-0.6-0.2c-0.5-0.3-0.6-1-0.3-1.4l25-40.5
				c0.3-0.5,1-0.7,1.5-0.4c0.5,0.3,0.7,1,0.4,1.5l-17.7,28.7l21.3-24.9c0.4-0.5,1.1-0.5,1.5-0.1c0.5,0.4,0.5,1.1,0.1,1.5l-30.4,35.5
				C1421.2,172.3,1420.9,172.5,1420.6,172.5z"/>
		</g>
		<g id="XMLID_1094_">
			<path id="XMLID_1680_" class="st0" d="M1420.6,172.5c-0.4,0-0.7-0.2-0.9-0.5c-0.3-0.5-0.2-1,0.2-1.4l35.4-30.9
				c0.4-0.4,1.1-0.3,1.5,0.1c0.4,0.4,0.3,1.1-0.1,1.5l-29.7,25.9l32.8-15.2c0.5-0.3,1.2,0,1.4,0.5c0.3,0.5,0,1.2-0.5,1.4l-39.6,18.4
				C1420.9,172.4,1420.8,172.5,1420.6,172.5z"/>
		</g>
		<g id="XMLID_1095_">
			<path id="XMLID_1679_" class="st0" d="M1419.3,172.4c-0.4,0-0.7-0.2-0.9-0.5c-0.3-0.5-0.2-1.2,0.3-1.5l39.9-24.9
				c0.5-0.3,1.2-0.2,1.5,0.3s0.2,1.2-0.3,1.5l-39.9,24.9C1419.6,172.4,1419.4,172.4,1419.3,172.4z"/>
		</g>
		<g id="XMLID_1098_">
			<path id="XMLID_1678_" class="st0" d="M1386.9,203.4c-0.1,0-0.3,0-0.4-0.1c-0.5-0.2-0.8-0.9-0.6-1.4l14.1-33.1
				c0.2-0.5,0.9-0.8,1.4-0.6c0.5,0.2,0.8,0.9,0.6,1.4l-14.1,33.1C1387.8,203.2,1387.4,203.4,1386.9,203.4z"/>
		</g>
		<g id="XMLID_1169_">
			<path id="XMLID_1677_" class="st0" d="M1455.6,203.4c-0.4,0-0.8-0.2-1-0.7l-14.1-33.1c-0.2-0.5,0-1.2,0.6-1.4
				c0.5-0.2,1.2,0,1.4,0.6l14.1,33.1c0.2,0.5,0,1.2-0.6,1.4C1455.9,203.4,1455.7,203.4,1455.6,203.4z"/>
		</g>
		<g id="XMLID_1247_">
			<path id="XMLID_1674_" class="st0" d="M1394,186.9c-0.5,0-1-0.4-1.1-0.9c-0.1-0.5,0.2-1.1,0.8-1.2l26.6-8c0.2-0.1,0.4-0.1,0.5,0
				l27,5.9c0.5,0.1,0.9,0.6,0.8,1.1c0,0.5-0.5,1-1,1L1394,186.9C1394,186.9,1394,186.9,1394,186.9z M1420.7,179l-18.2,5.5l36.7-1.4
				L1420.7,179z"/>
		</g>
		<g id="XMLID_1250_">
			<path id="XMLID_1673_" class="st0" d="M1420.6,178.9c-0.6,0-1.1-0.5-1.1-1.1v-6.4c0-0.5,0.3-0.9,0.8-1l37.4-10.6
				c0.6-0.2,1.2,0.2,1.3,0.7c0.2,0.6-0.2,1.2-0.7,1.3l-36.7,10.4v5.6C1421.7,178.4,1421.2,178.9,1420.6,178.9z"/>
		</g>
		<g id="XMLID_322_">
			<path id="XMLID_1670_" class="st0" d="M1490.1,199.9H1480c-0.4,0-0.8-0.3-1-0.7l-7.1-18.2c-0.1-0.3-0.1-0.7,0.1-1
				c0.2-0.3,0.5-0.5,0.9-0.5h25c0.4,0,0.7,0.2,0.9,0.5c0.2,0.3,0.2,0.7,0.1,1l-7.8,18.2C1490.9,199.6,1490.5,199.9,1490.1,199.9z
				 M1480.7,197.7h8.6l6.9-16h-21.8L1480.7,197.7z"/>
		</g>
		<g id="XMLID_1253_">
			<path id="XMLID_1667_" class="st0" d="M1483.9,181.7c-0.6,0-1.1-0.5-1.1-1.1v-27.5v0v-6.7c0-0.2,0-0.3,0.1-0.5
				c0.1-0.3,3.2-6.5,12.5-6.5c2.6,0,3.7,1,4.2,1.9c0.7,1.3,0.5,3.1-0.7,5.1c-2.3,3.8-7.9,7.6-13.9,7.8v26.4
				C1485,181.2,1484.5,181.7,1483.9,181.7z M1485,146.7v5.4c5.2-0.2,10-3.5,12-6.8c0.7-1.2,1-2.3,0.7-2.9c-0.3-0.5-1.1-0.8-2.3-0.8
				C1488.3,141.6,1485.5,145.7,1485,146.7z"/>
		</g>
		<g id="XMLID_1097_">
			<path id="XMLID_1666_" class="st0" d="M1483.9,170.7c-0.1,0-0.2,0-0.3,0c-8.3-2.3-13.8-8.4-13.7-12.6c0-2,1.3-3.4,3.3-3.9
				c6.8-1.6,11.4,6.2,11.6,6.5c0.3,0.5,0.1,1.2-0.4,1.5c-0.5,0.3-1.2,0.1-1.5-0.4c0-0.1-4-6.8-9.2-5.5c-1.5,0.4-1.7,1.2-1.7,1.8
				c-0.1,2.9,4.5,8.3,12.1,10.5c0.6,0.2,0.9,0.8,0.7,1.3C1484.8,170.4,1484.4,170.7,1483.9,170.7z"/>
		</g>
		<g id="XMLID_1262_">
			<path id="XMLID_1271_" class="st0" d="M1483.9,175.6c-0.5,0-1-0.4-1.1-0.9c-0.1-0.6,0.3-1.1,0.9-1.2c8.9-1.5,14-7.8,13.8-10.6
				c0-0.3-0.1-1.2-2-1.2c-6.7,0-10.8,4.3-10.8,4.3c-0.4,0.4-1.1,0.5-1.5,0.1c-0.4-0.4-0.5-1.1-0.1-1.5c0.2-0.2,4.7-5,12.4-5
				c2.4,0,4,1.2,4.2,3.2c0.3,4-5.7,11.2-15.6,12.9C1484,175.6,1484,175.6,1483.9,175.6z"/>
		</g>
		<g id="XMLID_1693_">
			
				<rect id="XMLID_1694_" x="1402.6" y="148.9" transform="matrix(0.2923 -0.9563 0.9563 0.2923 834.0682 1460.2599)" class="st0" width="2.2" height="35.4"/>
		</g>
	</g>
</g>
</svg>
