<?xml version="1.0" encoding="utf-8"?>
<!-- Generator: Adobe Illustrator 20.0.0, SVG Export Plug-In . SVG Version: 6.00 Build 0)  -->
<svg version="1.1" id="Layer_1" xmlns="http://www.w3.org/2000/svg" xmlns:xlink="http://www.w3.org/1999/xlink" x="0px" y="0px"
	 viewBox="0 0 185.4 185.4" style="enable-background:new 0 0 185.4 185.4;" xml:space="preserve">
<style type="text/css">
	.st0{fill:#7E7E7E;}
</style>
<g>
	<g id="XMLID_737_">
		<g id="XMLID_927_">
			<g id="XMLID_957_">
				<path id="XMLID_30_" class="st0" d="M146.9,99.2c-3.8,0-6.2-2.3-7.6-4.8c-0.4,0.8-0.9,1.5-1.5,2.2c-1.6,1.7-3.9,2.5-6.7,2.5
					c-2.9,0-5.1-0.9-6.6-2.5c-0.4-0.5-0.7-1-1-1.5c-1.3,2.2-3.7,4-7.6,4c-2.5,0-4.5-0.8-6-2.3c-0.6-0.6-1-1.3-1.4-2
					c-1.3,2.3-3.6,4.3-7.5,4.3c-4.3,0-6.8-2.3-8.1-4.8c-1.3,2.5-3.7,4.8-7.7,4.8c-4,0-6.5-2.4-7.9-4.9c-1.2,2.5-3.4,4.9-7.5,4.9
					c-4.1,0-6.6-2.4-7.9-4.9c-1.2,2.5-3.5,4.9-7.2,4.9c-4,0-6.6-2.1-8.1-4.5c-0.3,0.6-0.7,1.3-1.3,1.9c-1.6,1.7-3.9,2.6-6.8,2.6
					c-2.8,0-5-0.9-6.5-2.6c-2.3-2.6-2-6.3-1.9-7v-8.4c0-0.2,0-0.3,0.1-0.5l15.6-34.6l0-14.9c0-0.7,0.5-1.2,1.2-1.2h91.8
					c0.7,0,1.2,0.5,1.2,1.2v15.1l15.4,34.5c0.1,0.2,0.1,0.3,0.1,0.5v9.9c0,0,0,0.1,0,0.1C155.2,94,153,99.2,146.9,99.2z M139.1,88.9
					c0.6,0,1.1,0.4,1.2,1c0,0.3,1.2,6.8,6.7,6.8c5.3,0,6.2-5,6.3-5.7v-9.6l-15.4-34.5c-0.1-0.2-0.1-0.3-0.1-0.5V32.5H48.3l0,14
					c0,0.2,0,0.3-0.1,0.5L32.6,81.6v8.2c0,0.1,0,0.1,0,0.2c0,0-0.4,3.2,1.3,5.2c1,1.1,2.6,1.7,4.7,1.7c2.2,0,3.9-0.6,5-1.8
					c1.4-1.6,1.5-3.8,1.5-4.4c0-0.1,0-0.2,0-0.3c0-0.6,0.5-1.2,1.1-1.2c0.7,0,1.2,0.5,1.2,1.1c0,0,0,0.1,0,0.3
					c0.2,1.6,2,6.3,7.2,6.3c5,0,6-6.3,6-6.6c0.1-0.6,0.6-1,1.2-1h0c0.6,0,1.1,0.4,1.2,1c0,0.3,1,6.6,6.8,6.6c5.7,0,6.1-6.3,6.1-6.6
					c0-0.6,0.5-1.1,1.1-1.1c0.6,0,1.2,0.4,1.2,1c0,0.3,1.1,6.7,6.9,6.7c5.7,0,6.5-6.3,6.5-6.5c0.1-0.6,0.6-1,1.2-1.1
					c0.6,0,1.1,0.5,1.2,1.1c0,0.3,0.6,6.5,6.8,6.5c6.1,0,6.4-6.4,6.4-6.7v0c0-0.7,0.6-1.2,1.2-1.2c0.7,0,1.2,0.6,1.2,1.2l0,0
					c0,0.2,0,3.2,1.8,5.1c1,1,2.4,1.6,4.2,1.6c5.8,0,6.6-5.3,6.7-6.3c0-0.1,0-0.2,0-0.2c0.1-0.6,0.7-1.1,1.3-1
					c0.6,0.1,1.1,0.6,1.1,1.3c0,0.1,0,0.2,0,0.3c0,0.7,0,2.8,1.3,4.3c1,1.1,2.6,1.7,4.8,1.7c2.2,0,3.8-0.6,5-1.8
					c1.9-1.9,1.8-4.8,1.8-4.8c0-0.6,0.5-1.2,1.1-1.2C139,88.9,139,88.9,139.1,88.9z"/>
			</g>
		</g>
		<g id="XMLID_765_">
			<g id="XMLID_956_">
				<path id="XMLID_37_" class="st0" d="M138.9,47.7H47.1c-0.7,0-1.2-0.5-1.2-1.2c0-0.7,0.5-1.2,1.2-1.2h91.8c0.7,0,1.2,0.5,1.2,1.2
					C140.1,47.1,139.6,47.7,138.9,47.7z"/>
			</g>
		</g>
		<g id="XMLID_764_">
			<g id="XMLID_955_">
				<path id="XMLID_39_" class="st0" d="M154.4,82.5h-123c-0.7,0-1.2-0.5-1.2-1.2c0-0.7,0.5-1.2,1.2-1.2h123c0.7,0,1.2,0.5,1.2,1.2
					C155.6,82,155,82.5,154.4,82.5z"/>
			</g>
		</g>
		<g id="XMLID_763_">
			<g id="XMLID_954_">
				<path id="XMLID_49_" class="st0" d="M139.1,156H46.8c-0.7,0-1.2-0.5-1.2-1.2V92.5c0-0.7,0.5-1.2,1.2-1.2c0.7,0,1.2,0.5,1.2,1.2
					v61.1h89.8V90.1c0-0.7,0.5-1.2,1.2-1.2c0.7,0,1.2,0.5,1.2,1.2v64.7C140.3,155.5,139.7,156,139.1,156z"/>
			</g>
		</g>
		<g id="XMLID_761_">
			<g id="XMLID_953_">
				<path id="XMLID_50_" class="st0" d="M46.8,156H31.4c-0.7,0-1.2-0.5-1.2-1.2c0-0.7,0.5-1.2,1.2-1.2h15.4c0.7,0,1.2,0.5,1.2,1.2
					C48,155.5,47.5,156,46.8,156z"/>
			</g>
		</g>
		<g id="XMLID_760_">
			<g id="XMLID_952_">
				<path id="XMLID_52_" class="st0" d="M154.4,156h-15.3c-0.7,0-1.2-0.5-1.2-1.2c0-0.7,0.5-1.2,1.2-1.2h15.3c0.7,0,1.2,0.5,1.2,1.2
					C155.6,155.5,155,156,154.4,156z"/>
			</g>
		</g>
		<g id="XMLID_756_">
			<g id="XMLID_949_">
				<path id="XMLID_61_" class="st0" d="M77.8,156H55.3c-0.7,0-1.2-0.5-1.2-1.2v-43.7c0-0.7,0.5-1.2,1.2-1.2h22.5
					c0.7,0,1.2,0.5,1.2,1.2v43.7C79,155.5,78.5,156,77.8,156z M56.5,153.6h20.1v-41.3H56.5V153.6z"/>
			</g>
		</g>
		<g id="XMLID_755_">
			<g id="XMLID_945_">
				<path id="XMLID_62_" class="st0" d="M130.7,139.1H86.9c-0.7,0-1.2-0.5-1.2-1.2v-26.8c0-0.7,0.5-1.2,1.2-1.2h43.8
					c0.7,0,1.2,0.5,1.2,1.2v26.8C131.9,138.6,131.3,139.1,130.7,139.1z M88.1,136.7h41.4v-24.4H88.1V136.7z"/>
			</g>
		</g>
		<g id="XMLID_754_">
			<g id="XMLID_944_">
				<path id="XMLID_63_" class="st0" d="M89.9,133.3c-0.1,0-0.2,0-0.3-0.1c-0.2-0.2-0.2-0.4,0-0.6l6.8-6.6c0.2-0.2,0.4-0.2,0.6,0
					c0.2,0.2,0.2,0.4,0,0.6l-6.8,6.6C90.1,133.2,90,133.3,89.9,133.3z"/>
			</g>
		</g>
		<g id="XMLID_748_">
			<g id="XMLID_943_">
				<path id="XMLID_64_" class="st0" d="M91.2,135.8c-0.1,0-0.2,0-0.3-0.1c-0.2-0.2-0.1-0.4,0-0.6l4-3.9c0.2-0.2,0.4-0.1,0.6,0
					c0.2,0.2,0.1,0.4,0,0.6l-4,3.9C91.4,135.7,91.3,135.8,91.2,135.8z"/>
			</g>
		</g>
		<g id="XMLID_747_">
			<g id="XMLID_942_">
				<path id="XMLID_77_" class="st0" d="M119.3,121c-0.1,0-0.2,0-0.3-0.1c-0.2-0.2-0.2-0.4,0-0.6l6.8-6.6c0.2-0.2,0.4-0.2,0.6,0
					c0.2,0.2,0.2,0.4,0,0.6l-6.8,6.6C119.5,121,119.4,121,119.3,121z"/>
			</g>
		</g>
		<g id="XMLID_746_">
			<g id="XMLID_941_">
				<path id="XMLID_79_" class="st0" d="M123.6,120.5c-0.1,0-0.2,0-0.3-0.1c-0.2-0.2-0.1-0.4,0-0.6l4.8-4.6c0.2-0.2,0.4-0.1,0.6,0
					c0.2,0.2,0.1,0.4,0,0.6l-4.8,4.6C123.8,120.5,123.7,120.5,123.6,120.5z"/>
			</g>
		</g>
	</g>
	<g id="XMLID_1719_">
		<path id="XMLID_1296_" class="st0" d="M185.4,184.8H0V-0.5h185.4V184.8z M3,181.8h179.4V2.5H3V181.8z"/>
	</g>
</g>
</svg>
