<?xml version="1.0" encoding="utf-8"?>
<!-- Generator: Adobe Illustrator 20.0.0, SVG Export Plug-In . SVG Version: 6.00 Build 0)  -->
<svg version="1.1" id="Layer_1" xmlns="http://www.w3.org/2000/svg" xmlns:xlink="http://www.w3.org/1999/xlink" x="0px" y="0px"
	 viewBox="0 0 185.4 185.4" style="enable-background:new 0 0 185.4 185.4;" xml:space="preserve">
<style type="text/css">
	.st0{fill:#7E7E7E;}
</style>
<g>
	<g id="XMLID_1013_">
		<g>
			<path class="st0" d="M185.4,185.4H0V0h185.4V185.4z M3,182.4h179.4V3H3V182.4z"/>
		</g>
	</g>
	<g id="XMLID_1319_">
		<g>
			<g id="XMLID_139_">
				<path class="st0" d="M134.5,147.2c-3.7,0-4.7-2.7-4.7-4.3v-2.4c0-0.1,0-0.9-0.5-1.5c-0.4-0.5-1.2-0.7-2.2-0.7H61
					c-0.4,0-1.5,0.1-2.1,0.7c-0.3,0.3-0.5,0.7-0.5,1.3v2.9c0,1.1-0.8,4-4.6,4c-1.4,0-2.5-0.4-3.3-1.3c-1.2-1.3-1.1-3-1.1-3.2l0-10
					c-1.3-0.5-2.9-1.8-2.9-4.3v-8.6c0-0.1,0-0.2,0-0.3l6.3-21.5c-0.3-0.3-0.6-0.8-0.6-1.4c0-0.1,0-0.2,0.1-0.3l3.4-10.6
					c0.2-0.7,0.9-2,2.5-2.8V47.6c0-0.6,0.5-1.1,1.1-1.1h69.3c0.6,0,1.1,0.5,1.1,1.1v35.6c1,0.6,2.8,2,3.2,3.9l2.6,8.9
					c0.1,0.2,0.3,1.5-0.7,2.8l6.4,20.5c0,0.1,0.1,0.2,0.1,0.3v9.4c0,0.1,0.1,1.8-1.1,3c-0.3,0.3-0.9,0.7-1.6,0.9v10
					c0,0.1,0,1.8-1.1,3.1C137.1,146.6,136.1,147.2,134.5,147.2z M127,136.2c1.7,0,2.9,0.5,3.8,1.4c1.2,1.3,1.1,2.9,1.1,3l0,2.3
					c0,0.6,0.2,2,2.5,2c0.7,0,1.2-0.2,1.5-0.5c0.5-0.6,0.5-1.5,0.5-1.5l0-11c0-0.6,0.5-1.1,1.1-1.1c0.5,0,0.9-0.1,1.1-0.4
					c0.5-0.5,0.5-1.4,0.5-1.4l0-9.3L132.7,99c-0.1-0.4,0-0.8,0.3-1.1c0.6-0.6,0.6-1.2,0.5-1.3l-2.6-8.9c-0.3-1.4-2.1-2.5-2.7-2.8
					c-0.4-0.2-0.6-0.6-0.6-1V48.7H60.6v35.1c0,0.5-0.3,0.9-0.8,1.1c-1.5,0.4-1.8,1.5-1.8,1.6l-3.3,10.1c0.2,0.1,0.4,0.2,0.5,0.4
					c0.2,0.3,0.2,0.6,0.1,0.9L48.8,120v8.4c0,2,1.9,2.4,1.9,2.4c0.5,0.1,0.9,0.6,0.9,1.1v10.9c0,0.1,0,1,0.5,1.6
					c0.3,0.4,0.9,0.5,1.6,0.5c2.3,0,2.4-1.6,2.4-1.7v-2.9c0-1.2,0.4-2.2,1.2-2.9c1.4-1.3,3.5-1.3,3.7-1.3L127,136.2z"/>
			</g>
			<g id="XMLID_138_">
				<path class="st0" d="M137.6,133.1H50.5c-0.6,0-1.1-0.5-1.1-1.1s0.5-1.1,1.1-1.1h87.1c0.6,0,1.1,0.5,1.1,1.1
					S138.2,133.1,137.6,133.1z"/>
			</g>
			<g id="XMLID_137_">
				<path class="st0" d="M47.7,121c-0.2,0-0.4-0.1-0.6-0.2c-0.5-0.3-0.7-1-0.4-1.5c1.9-3.1,4.2-3,4.9-2.9h85.2
					c3.2,0,4.5,2.7,4.5,2.8c0.3,0.6,0,1.2-0.5,1.5c-0.6,0.3-1.2,0-1.5-0.5c0-0.1-0.8-1.6-2.5-1.6H51.5c-0.1,0-0.2,0-0.3,0
					c0,0-1.3-0.2-2.6,1.9C48.4,120.8,48,121,47.7,121z"/>
			</g>
			<g id="XMLID_136_">
				<path class="st0" d="M133.8,99.7C133.7,99.7,133.7,99.7,133.8,99.7L61,94.9c-1.4-0.1-4.4,2-6,3.5c-0.5,0.4-1.2,0.4-1.6-0.1
					c-0.4-0.5-0.4-1.2,0.1-1.6c0.8-0.7,4.9-4.3,7.7-4.1l72.7,4.8c0.6,0,1.1,0.6,1,1.2C134.8,99.3,134.3,99.7,133.8,99.7z"/>
			</g>
			<g id="XMLID_135_">
				<path class="st0" d="M128.8,85H59.4c-0.6,0-1.1-0.5-1.1-1.1s0.5-1.1,1.1-1.1h69.3c0.6,0,1.1,0.5,1.1,1.1S129.4,85,128.8,85z"/>
			</g>
			<g id="XMLID_134_">
				<path class="st0" d="M91.6,85c-0.6,0-1.1-0.5-1.1-1.1v-9.9c0-2.4-2.3-2.6-2.5-2.6l-19.4,0c-2.2,0-2.6,1.7-2.7,2.1v10.4
					c0,0.6-0.5,1.1-1.1,1.1s-1.1-0.5-1.1-1.1V73.3c0-0.1,0-0.1,0-0.2c0.2-1.4,1.5-4.1,4.9-4.1H88c1.7,0.1,4.7,1.2,4.7,4.8v9.9
					C92.7,84.5,92.2,85,91.6,85z"/>
			</g>
			<g id="XMLID_133_">
				<path class="st0" d="M123.4,85c-0.6,0-1.1-0.5-1.1-1.1v-9.9c0-2.3-2.1-2.6-2.6-2.6l-19.4,0c-2.2,0-2.6,1.7-2.7,2.1v10.4
					c0,0.6-0.5,1.1-1.1,1.1s-1.1-0.5-1.1-1.1V73.3c0-0.1,0-0.1,0-0.2c0.2-1.4,1.5-4.1,4.9-4.1h19.4c1.7,0.1,4.7,1.2,4.7,4.8v9.9
					C124.6,84.5,124.1,85,123.4,85z"/>
			</g>
		</g>
	</g>
</g>
</svg>
