<?xml version="1.0" encoding="utf-8"?>
<!-- Generator: Adobe Illustrator 20.0.0, SVG Export Plug-In . SVG Version: 6.00 Build 0)  -->
<svg version="1.1" id="Layer_1" xmlns="http://www.w3.org/2000/svg" xmlns:xlink="http://www.w3.org/1999/xlink" x="0px" y="0px"
	 viewBox="0 0 185.4 185.4" style="enable-background:new 0 0 185.4 185.4;" xml:space="preserve">
<style type="text/css">
	.st0{fill:#7E7E7E;}
</style>
<g>
	<g id="XMLID_1014_">
		<g>
			<path class="st0" d="M185.5,185.4H0.1V0h185.4V185.4z M3.1,182.4h179.4V3H3.1V182.4z"/>
		</g>
	</g>
	<g id="XMLID_1367_">
		<g>
			<g id="XMLID_259_">
				<path class="st0" d="M147.4,92.9H37.8c-0.7,0-1.2-0.5-1.2-1.2s0.5-1.2,1.2-1.2h109.6c0.7,0,1.2,0.5,1.2,1.2
					S148.1,92.9,147.4,92.9z"/>
			</g>
			<g id="XMLID_256_">
				<path class="st0" d="M85,141.7H49c-0.7,0-1.2-0.5-1.2-1.2V91.7c0-0.7,0.5-1.2,1.2-1.2h36c0.7,0,1.2,0.5,1.2,1.2v48.8
					C86.2,141.1,85.7,141.7,85,141.7z M50.2,139.3h33.6V92.9H50.2V139.3z"/>
			</g>
			<g id="XMLID_255_">
				<path class="st0" d="M85,115.1H49c-0.7,0-1.2-0.5-1.2-1.2s0.5-1.2,1.2-1.2h36c0.7,0,1.2,0.5,1.2,1.2S85.7,115.1,85,115.1z"/>
			</g>
			<g id="XMLID_254_">
				<path class="st0" d="M85,122.9H49c-0.7,0-1.2-0.5-1.2-1.2s0.5-1.2,1.2-1.2h36c0.7,0,1.2,0.5,1.2,1.2S85.7,122.9,85,122.9z"/>
			</g>
			<g id="XMLID_253_">
				<path class="st0" d="M85,131.8H49c-0.7,0-1.2-0.5-1.2-1.2s0.5-1.2,1.2-1.2h36c0.7,0,1.2,0.5,1.2,1.2S85.7,131.8,85,131.8z"/>
			</g>
			<g id="XMLID_249_">
				<path class="st0" d="M71.1,106.1h-9.4c-1.3,0-2.4-1.1-2.4-2.4V101c0-1.3,1.1-2.4,2.4-2.4h9.4c1.3,0,2.4,1.1,2.4,2.4v2.7
					C73.5,105,72.5,106.1,71.1,106.1z M71.1,103.7v1.2V103.7L71.1,103.7L71.1,103.7z M71.1,101l-9.3,0l0,2.7l9.3,0V101z"/>
			</g>
			<g id="XMLID_248_">
				<path class="st0" d="M138.1,141.7c-0.7,0-1.2-0.5-1.2-1.2V91.7c0-0.7,0.5-1.2,1.2-1.2s1.2,0.5,1.2,1.2v48.8
					C139.3,141.1,138.8,141.7,138.1,141.7z"/>
			</g>
			<g id="XMLID_245_">
				<path class="st0" d="M136.7,90.6h-22.3c-0.7,0-1.2-0.5-1.2-1.2c0-5,5.6-9.1,12.4-9.1s12.4,4.1,12.4,9.1
					C137.9,90,137.3,90.6,136.7,90.6z M115.7,88.2h19.6c-0.8-3.1-4.9-5.5-9.8-5.5S116.6,85,115.7,88.2z"/>
			</g>
			<g id="XMLID_244_">
				<path class="st0" d="M125.5,82.6c-0.7,0-1.2-0.5-1.2-1.2v-9.8c0-0.2,0.1-0.4,0.2-0.6l8.9-15.4l-18.6-18.3
					c-0.5-0.5-0.5-1.2,0-1.7c0.5-0.5,1.2-0.5,1.7,0l19.3,18.9c0.4,0.4,0.5,1,0.2,1.5l-9.2,15.9v9.5
					C126.7,82.1,126.2,82.6,125.5,82.6z"/>
			</g>
			<g id="XMLID_241_">
				<path class="st0" d="M113.6,56.2c-0.3,0-0.6-0.1-0.8-0.3L100,43.1c-0.3-0.3-0.4-0.7-0.3-1.1c0.1-0.4,0.3-0.7,0.7-0.9l8.8-3.8
					c0.4-0.2,1-0.1,1.3,0.3l7.7,7.6c0.3,0.3,0.5,0.9,0.3,1.3l-3.7,8.9c-0.2,0.4-0.5,0.6-0.9,0.7C113.8,56.2,113.7,56.2,113.6,56.2z
					 M102.9,42.7l10.3,10.2l2.7-6.5l-6.5-6.5L102.9,42.7z"/>
			</g>
			<g id="XMLID_236_">
				<path class="st0" d="M117.3,47.3c-0.3,0-0.6-0.1-0.8-0.3l-7.7-7.6c-0.2-0.2-0.4-0.5-0.4-0.9c0-0.3,0.1-0.6,0.3-0.9l4-4
					c0.5-0.5,1.2-0.5,1.7,0l7.7,7.6c0.5,0.5,0.5,1.2,0,1.7l-4,4C117.9,47.2,117.6,47.3,117.3,47.3L117.3,47.3z M111.3,38.5l6,5.9
					l2.3-2.3l-6-5.9L111.3,38.5z"/>
			</g>
		</g>
	</g>
</g>
</svg>
