<?xml version="1.0" encoding="utf-8"?>
<!-- Generator: Adobe Illustrator 20.0.0, SVG Export Plug-In . SVG Version: 6.00 Build 0)  -->
<svg version="1.1" id="Layer_1" xmlns="http://www.w3.org/2000/svg" xmlns:xlink="http://www.w3.org/1999/xlink" x="0px" y="0px"
	 viewBox="0 0 185.4 185.4" style="enable-background:new 0 0 185.4 185.4;" xml:space="preserve">
<style type="text/css">
	.st0{fill:#7E7E7E;}
</style>
<g>
	<g id="XMLID_1011_">
		<g>
			<path class="st0" d="M185.4,185.4H0V0h185.4V185.4z M3,182.4h179.4V3H3V182.4z"/>
		</g>
	</g>
	<g id="XMLID_1336_">
		<g>
			<path class="st0" d="M162.1,134.6h-15.8V72.7h9h0c0.6,0,1.1-0.5,1.1-1.1c0-0.1,0-0.3-0.1-0.4l-3.3-13.4c-0.1-0.5-0.6-0.9-1.1-0.9
				h-13.5c-0.5,0-1,0.4-1.1,0.9L134,71.3c-0.1,0.3,0,0.7,0.2,1c0.2,0.3,0.5,0.4,0.9,0.4h9v61.9h-11.3v-4.5h2.3
				c0.6,0,1.1-0.5,1.1-1.1v-20.3c0-0.6-0.5-1.1-1.1-1.1h-5.6v-5.6c0-2.5-2-4.5-4.5-4.5h-20.3c-1.3,0-2.5,0.6-3.4,1.5
				c-0.8-0.9-2-1.5-3.4-1.5H77.7c-2.5,0-4.5,2-4.5,4.5v5.6h-5.6c-0.6,0-1.1,0.5-1.1,1.1v20.3c0,0.6,0.5,1.1,1.1,1.1h2.3v4.5H57.9
				l-9.5-9.5v-8.5h3.7h5.3c0.6,0,1.1-0.5,1.1-1.1c0-0.6-0.5-1.1-1.1-1.1h-3.9l1.6-8.8c0.1-0.3,0-0.7-0.2-0.9
				c-0.2-0.3-0.5-0.4-0.9-0.4h-3.6l1.2-11c0.3,0.1,0.7,0.1,1,0.1c1.5,0,2.9-0.8,3.7-2.1c2.6-4.4,1.4-9,1.3-9.2
				c-0.2-0.6-0.8-1-1.4-0.8c-0.2,0.1-4.8,1.3-7.3,5.7c-1,1.7-0.7,3.7,0.6,5l-1.3,12.2h-1.7l-1.4-15.5c1-0.7,1.7-1.8,2-3
				c0.4-1.4,0.2-2.9-0.5-4.1c-3.4-6-9.6-7.7-9.9-7.8c-0.3-0.1-0.6,0-0.9,0.1c-0.3,0.2-0.4,0.4-0.5,0.7c-0.1,0.3-1.7,6.4,1.8,12.4
				c1,1.7,2.8,2.7,4.7,2.7c0.4,0,0.7,0,1.1-0.1l1.3,14.5h-3.6c-0.3,0-0.7,0.2-0.9,0.4c-0.2,0.3-0.3,0.6-0.2,0.9l1.6,8.8h-3.9
				c-0.6,0-1.1,0.5-1.1,1.1c0,0.6,0.5,1.1,1.1,1.1h5.2h3.8v8.5l-9.5,9.5h-9.7c-0.6,0-1.1,0.5-1.1,1.1c0,0.6,0.5,1.1,1.1,1.1h135
				c0.6,0,1.1-0.5,1.1-1.1C163.2,135.1,162.7,134.6,162.1,134.6z M139.3,59.2h11.7l2.8,11.3h-17.4L139.3,59.2z M50.9,88.1
				c1.4-2.3,3.5-3.6,4.8-4.2c0.1,1.4,0.1,3.9-1.3,6.2c-0.4,0.6-1,1-1.7,1c-0.3,0-0.7-0.1-1-0.3C50.7,90.3,50.3,89,50.9,88.1z
				 M39.1,85.9c-2.1-3.7-2-7.6-1.8-9.5c1.8,0.7,5.2,2.6,7.3,6.3c0.4,0.7,0.5,1.6,0.3,2.4c-0.2,0.8-0.8,1.5-1.5,2
				c-0.5,0.3-1,0.4-1.6,0.4C40.7,87.5,39.6,86.9,39.1,85.9z M41.9,106.4h10.8l-1.5,7.9h-7.9L41.9,106.4z M100.2,121.1H75.5v-4.5
				h24.8V121.1z M102.5,116.6h24.8v4.5h-24.8V116.6z M104.7,99.7H125c1.2,0,2.3,1,2.3,2.3v12.4h-24.8v-12.4
				C102.5,100.7,103.5,99.7,104.7,99.7z M75.5,101.9c0-1.2,1-2.3,2.3-2.3H98c1.2,0,2.3,1,2.3,2.3v12.4H75.5V101.9z M68.7,109.8h4.5
				v12.4c0,0.6,0.5,1.1,1.1,1.1h27h27c0.6,0,1.1-0.5,1.1-1.1v-12.4h4.5v18H68.7V109.8z M72.1,130.1h58.5v4.5H72.1V130.1z
				 M54.7,134.6h-6.3v-6.3L54.7,134.6z M46.2,128.3v6.3h-6.3L46.2,128.3z"/>
		</g>
	</g>
	<g id="XMLID_1328_">
		<g>
			<path class="st0" d="M74.3,82.8h40.5c0.6,0,1.1-0.5,1.1-1.1V51.3c0-0.6-0.5-1.1-1.1-1.1H74.3c-0.6,0-1.1,0.5-1.1,1.1v30.4
				C73.2,82.3,73.7,82.8,74.3,82.8z M75.5,72l5.6-5.6l14.2,14.2H75.5V72z M113.7,52.4v28.1H98.4L81.9,64c-0.4-0.4-1.2-0.4-1.6,0
				l-4.8,4.8V52.4H113.7z"/>
		</g>
	</g>
	<g id="XMLID_1324_">
		<g>
			<path class="st0" d="M101.3,72.7c4.3,0,7.9-3.5,7.9-7.9s-3.5-7.9-7.9-7.9s-7.9,3.5-7.9,7.9S97,72.7,101.3,72.7z M101.3,59.2
				c3.1,0,5.6,2.5,5.6,5.6c0,3.1-2.5,5.6-5.6,5.6s-5.6-2.5-5.6-5.6C95.7,61.7,98.2,59.2,101.3,59.2z"/>
		</g>
	</g>
</g>
</svg>
