<?xml version="1.0" encoding="utf-8"?>
<!-- Generator: Adobe Illustrator 20.0.0, SVG Export Plug-In . SVG Version: 6.00 Build 0)  -->
<svg version="1.1" id="Layer_1" xmlns="http://www.w3.org/2000/svg" xmlns:xlink="http://www.w3.org/1999/xlink" x="0px" y="0px"
	 viewBox="0 0 185.4 185.4" style="enable-background:new 0 0 185.4 185.4;" xml:space="preserve">
<style type="text/css">
	.st0{fill:#7E7E7E;}
</style>
<g>
	<g id="XMLID_115_">
		<g id="XMLID_567_">
			<path id="XMLID_617_" class="st0" d="M92.4,103.1c-0.2,0-0.3,0-0.5-0.1L60.5,84.4c-0.3-0.2-0.5-0.5-0.5-0.8l0-35.9
				c0-0.3,0.2-0.6,0.5-0.8l27.8-16.4c0.3-0.2,0.6-0.2,0.9,0l14,5.6l-0.4,1.7l17.1,9.9c0.9,0.5,1.5,1.1,1.6,1.7
				c0.1,0.3,0.1,0.5,0,0.6l1,35.5c0,0.3-0.2,0.7-0.5,0.8l-29.3,16.5C92.8,103,92.6,103.1,92.4,103.1z M62,83l30.5,18l28.3-16
				l-1-35.1c0,0,0-0.1,0-0.1c-0.1-0.1-0.3-0.3-0.7-0.5L101.3,39l0.9-2.4l-13.3-4.3L62,48.2L62,83z"/>
		</g>
		<g id="XMLID_566_">
			<path id="XMLID_616_" class="st0" d="M92.3,66.6c-0.2,0-0.3,0-0.5-0.1L60.6,48.5c-0.4-0.3-0.6-0.8-0.3-1.3
				c0.3-0.5,0.8-0.6,1.3-0.3l30.8,17.7l27.9-15.9c0.4-0.3,1-0.1,1.3,0.3c0.3,0.4,0.1,1-0.3,1.3L92.8,66.4
				C92.7,66.5,92.5,66.6,92.3,66.6z"/>
		</g>
		<g id="XMLID_564_">
			<path id="XMLID_614_" class="st0" d="M92.4,103.1c-0.5,0-0.9-0.4-0.9-0.9l-0.1-36.5c0-0.5,0.4-0.9,0.9-0.9h0
				c0.5,0,0.9,0.4,0.9,0.9l0.1,36.5C93.4,102.6,93,103.1,92.4,103.1L92.4,103.1z"/>
		</g>
		<g id="XMLID_563_">
			<path id="XMLID_596_" class="st0" d="M76.7,53c-0.1,0-0.2,0-0.2,0l-15.7-4.1c-0.4-0.1-0.6-0.4-0.7-0.8s0.1-0.7,0.4-0.9l27.9-16.6
				c0.2-0.1,0.5-0.2,0.8-0.1l15.6,5.1c0.4,0.1,0.6,0.4,0.6,0.8c0,0.4-0.1,0.7-0.5,0.9L77.2,52.9C77.1,53,76.9,53,76.7,53z
				 M63.4,47.6l13.2,3.5l25.6-14.4L89,32.3L63.4,47.6z"/>
		</g>
		<g id="XMLID_562_">
			<path id="XMLID_592_" class="st0" d="M76.7,57.6c-0.3,0-0.6-0.2-0.8-0.5c-0.3-0.4-0.1-1,0.3-1.3l28.3-16.5c0.4-0.3,1-0.1,1.3,0.3
				c0.3,0.4,0.1,1-0.3,1.3L77.2,57.5C77.1,57.5,76.9,57.6,76.7,57.6z"/>
		</g>
		<g id="XMLID_561_">
			<path id="XMLID_585_" class="st0" d="M107.3,148.6c-0.2,0-0.3,0-0.5-0.1l-28.4-15.9c-0.3-0.2-0.5-0.5-0.5-0.8l0.6-37
				c0-0.3,0.2-0.6,0.5-0.8c0.3-0.2,0.6-0.2,0.9,0l27.3,16.6L137.2,94c0.3-0.2,0.6-0.2,0.9,0c0.3,0.2,0.5,0.5,0.5,0.8v35.5
				c0,0.3-0.2,0.6-0.5,0.8l-30.4,17.4C107.6,148.5,107.5,148.6,107.3,148.6z M79.8,131.2l27.4,15.4l29.4-16.9V96.4l-29,16.1
				c-0.3,0.2-0.6,0.2-0.9,0l-26.4-16L79.8,131.2z"/>
		</g>
		<g id="XMLID_560_">
			<path id="XMLID_583_" class="st0" d="M137.7,95.7c-0.2,0-0.3,0-0.5-0.1l-15.9-9.2c-0.4-0.3-0.6-0.8-0.3-1.3
				c0.3-0.4,0.8-0.6,1.3-0.3l15.9,9.2c0.4,0.3,0.6,0.8,0.3,1.3C138.3,95.5,138,95.7,137.7,95.7z"/>
		</g>
		<g id="XMLID_558_">
			<path id="XMLID_582_" class="st0" d="M107.3,148.6L107.3,148.6c-0.5,0-0.9-0.4-0.9-0.9l0-36c0-0.5,0.4-0.9,0.9-0.9l0,0
				c0.5,0,0.9,0.4,0.9,0.9l0,36C108.2,148.2,107.8,148.6,107.3,148.6z"/>
		</g>
		<g id="XMLID_554_">
			<path id="XMLID_578_" class="st0" d="M74.4,136.7c-0.2,0-0.3,0-0.4-0.1l-27.4-15c-0.3-0.2-0.5-0.5-0.5-0.8V81.5
				c0-0.3,0.2-0.6,0.5-0.8c0.3-0.2,0.7-0.2,0.9,0l28,17.3c0.3,0.2,0.5,0.5,0.4,0.8l-0.6,37c0,0.3-0.2,0.6-0.5,0.8
				C74.8,136.6,74.6,136.7,74.4,136.7z M47.9,120.2l25.6,14l0.6-34.9L47.9,83.2V120.2z"/>
		</g>
		<g id="XMLID_551_">
			<path id="XMLID_577_" class="st0" d="M47,82.4c-0.3,0-0.7-0.2-0.8-0.5c-0.2-0.5-0.1-1,0.4-1.3l14-7.5c0.5-0.2,1-0.1,1.3,0.4
				c0.2,0.5,0.1,1-0.4,1.3l-14,7.5C47.3,82.4,47.1,82.4,47,82.4z"/>
		</g>
		<g id="XMLID_569_">
			<path id="XMLID_576_" class="st0" d="M75,99.7c-0.3,0-0.5-0.1-0.7-0.3c-0.3-0.4-0.3-1,0.1-1.3l4.5-4c0.4-0.3,1-0.3,1.3,0.1
				c0.3,0.4,0.3,1-0.1,1.3l-4.5,4C75.5,99.6,75.2,99.7,75,99.7z"/>
		</g>
		<g id="XMLID_572_">
			<path id="XMLID_573_" class="st0" d="M74.4,136.7c-0.3,0-0.5-0.1-0.7-0.3c-0.3-0.4-0.3-1,0.1-1.3l4.5-4c0.4-0.3,1-0.3,1.3,0.1
				c0.3,0.4,0.3,1-0.1,1.3l-4.5,4C74.9,136.6,74.7,136.7,74.4,136.7z"/>
		</g>
	</g>
	<g id="XMLID_1713_">
		<path id="XMLID_1137_" class="st0" d="M185.4,185.4H0V0h185.4V185.4z M3,182.4h179.4V3H3V182.4z"/>
	</g>
</g>
</svg>
