<?xml version="1.0" encoding="utf-8"?>
<!-- Generator: Adobe Illustrator 20.0.0, SVG Export Plug-In . SVG Version: 6.00 Build 0)  -->
<svg version="1.1" id="Layer_1" xmlns="http://www.w3.org/2000/svg" xmlns:xlink="http://www.w3.org/1999/xlink" x="0px" y="0px"
	 viewBox="0 0 185.4 185.4" style="enable-background:new 0 0 185.4 185.4;" xml:space="preserve">
<style type="text/css">
	.st0{fill:#7E7E7E;}
</style>
<g>
	<g id="XMLID_223_">
		<g id="XMLID_703_">
			<path id="XMLID_1010_" class="st0" d="M27.8,155.2c-0.6,0-1.1-0.5-1.1-1.1v-54c0-0.6,0.5-1.1,1.1-1.1h119.7
				c0.6,0,1.1,0.5,1.1,1.1v52.5c0,0.6-0.5,1.1-1.1,1.1h-34c-0.6,0-1.1-0.5-1.1-1.1v-46.1c0-0.6,0.5-1.1,1.1-1.1s1.1,0.5,1.1,1.1
				v44.9h31.8v-50.3H28.9v52.9C28.9,154.7,28.4,155.2,27.8,155.2z"/>
		</g>
		<g id="XMLID_704_">
			<path id="XMLID_1009_" class="st0" d="M147.5,107.4H27.8c-0.6,0-1.1-0.5-1.1-1.1c0-0.6,0.5-1.1,1.1-1.1h119.7
				c0.6,0,1.1,0.5,1.1,1.1C148.6,106.9,148.1,107.4,147.5,107.4z"/>
		</g>
		<g id="XMLID_637_">
			<path id="XMLID_1006_" class="st0" d="M76.9,127.4H49.7c-3.1,0-5.7-2.6-5.7-5.7s2.6-5.7,5.7-5.7h27.1c3.1,0,5.7,2.6,5.7,5.7
				S80,127.4,76.9,127.4z M49.7,118.2c-1.9,0-3.5,1.6-3.5,3.5s1.6,3.5,3.5,3.5h27.1c1.9,0,3.5-1.6,3.5-3.5s-1.6-3.5-3.5-3.5H49.7z"
				/>
		</g>
		<g id="XMLID_705_">
			<path id="XMLID_1005_" class="st0" d="M77,153.6c-0.1,0-0.3,0-0.4-0.1l-13.8-6.1c-0.4-0.2-0.7-0.6-0.7-1v-20.1
				c0-0.6,0.5-1.1,1.1-1.1s1.1,0.5,1.1,1.1v19.4l13.2,5.8c0.6,0.2,0.8,0.9,0.6,1.5C77.9,153.3,77.5,153.6,77,153.6z"/>
		</g>
		<g id="XMLID_12_">
			<path id="XMLID_1004_" class="st0" d="M49.3,153.6c-0.4,0-0.8-0.2-1-0.7c-0.2-0.6,0-1.2,0.6-1.5l13.8-6.1c0.6-0.2,1.2,0,1.5,0.6
				s0,1.2-0.6,1.5l-13.8,6.1C49.6,153.6,49.5,153.6,49.3,153.6z"/>
		</g>
		<g id="XMLID_16_">
			<path id="XMLID_1003_" class="st0" d="M147.5,138.1h-34c-0.6,0-1.1-0.5-1.1-1.1c0-0.6,0.5-1.1,1.1-1.1h34c0.6,0,1.1,0.5,1.1,1.1
				C148.6,137.6,148.1,138.1,147.5,138.1z"/>
		</g>
		<g id="XMLID_81_">
			<path id="XMLID_1002_" class="st0" d="M147.5,122.8h-34c-0.6,0-1.1-0.5-1.1-1.1s0.5-1.1,1.1-1.1h34c0.6,0,1.1,0.5,1.1,1.1
				S148.1,122.8,147.5,122.8z"/>
		</g>
		<g id="XMLID_83_">
			<path id="XMLID_999_" class="st0" d="M134,116.7h-6.2c-1.4,0-2.6-1.2-2.6-2.6c0-1.4,1.2-2.6,2.6-2.6h6.2c1.4,0,2.6,1.2,2.6,2.6
				C136.6,115.6,135.4,116.7,134,116.7z M127.8,113.7c-0.2,0-0.4,0.2-0.4,0.4c0,0.2,0.2,0.4,0.4,0.4h6.2c0.2,0,0.4-0.2,0.4-0.4
				c0-0.2-0.2-0.4-0.4-0.4H127.8z"/>
		</g>
		<g id="XMLID_86_">
			<path id="XMLID_996_" class="st0" d="M134,132.1h-6.2c-1.4,0-2.6-1.2-2.6-2.6c0-1.4,1.2-2.6,2.6-2.6h6.2c1.4,0,2.6,1.2,2.6,2.6
				C136.6,130.9,135.4,132.1,134,132.1z M127.8,129.1c-0.2,0-0.4,0.2-0.4,0.4c0,0.2,0.2,0.4,0.4,0.4h6.2c0.2,0,0.4-0.2,0.4-0.4
				c0-0.2-0.2-0.4-0.4-0.4H127.8z"/>
		</g>
		<g id="XMLID_87_">
			<path id="XMLID_993_" class="st0" d="M134,147.5h-6.2c-1.4,0-2.6-1.2-2.6-2.6c0-1.4,1.2-2.6,2.6-2.6h6.2c1.4,0,2.6,1.2,2.6,2.6
				C136.6,146.3,135.4,147.5,134,147.5z M127.8,144.4c-0.2,0-0.4,0.2-0.4,0.4c0,0.2,0.2,0.4,0.4,0.4h6.2c0.2,0,0.4-0.2,0.4-0.4
				c0-0.2-0.2-0.4-0.4-0.4H127.8z"/>
		</g>
		<g id="XMLID_88_">
			<path id="XMLID_992_" class="st0" d="M81.4,101.2c-0.6,0-1.1-0.5-1.1-1.1V97H46.1v3.1c0,0.6-0.5,1.1-1.1,1.1
				c-0.6,0-1.1-0.5-1.1-1.1v-4.2c0-0.6,0.5-1.1,1.1-1.1h36.4c0.6,0,1.1,0.5,1.1,1.1v4.2C82.5,100.7,82,101.2,81.4,101.2z"/>
		</g>
		<g id="XMLID_89_">
			<path id="XMLID_987_" class="st0" d="M78.5,97H47.8c-0.6,0-1.1-0.5-1.1-1.1V73.8c0-0.6,0.5-1.1,1.1-1.1h30.7
				c0.6,0,1.1,0.5,1.1,1.1v22.1C79.6,96.5,79.1,97,78.5,97z M48.9,94.8h28.5V74.9H48.9V94.8z"/>
		</g>
		<g id="XMLID_90_">
			<path id="XMLID_986_" class="st0" d="M51.9,79.3c-0.1,0-0.2,0-0.3-0.1l-2.4-2.7c-0.1-0.2-0.1-0.4,0-0.5c0.2-0.1,0.4-0.1,0.5,0
				l2.4,2.7c0.1,0.2,0.1,0.4,0,0.5C52.1,79.3,52,79.3,51.9,79.3z"/>
		</g>
		<g id="XMLID_92_">
			<path id="XMLID_974_" class="st0" d="M55.1,80.1c-0.1,0-0.2,0-0.3-0.1l-3.5-3.9c-0.1-0.2-0.1-0.4,0-0.5c0.2-0.1,0.4-0.1,0.5,0
				l3.5,3.9c0.1,0.2,0.1,0.4,0,0.5C55.3,80.1,55.2,80.1,55.1,80.1z"/>
		</g>
		<g id="XMLID_99_">
			<path id="XMLID_973_" class="st0" d="M76,93.7c-0.1,0-0.2,0-0.3-0.1l-2.4-2.7c-0.1-0.2-0.1-0.4,0-0.5c0.2-0.1,0.4-0.1,0.5,0
				l2.4,2.7c0.1,0.2,0.1,0.4,0,0.5C76.2,93.7,76.1,93.7,76,93.7z"/>
		</g>
		<g id="XMLID_93_">
			<path id="XMLID_972_" class="st0" d="M73.9,93.9c-0.1,0-0.2,0-0.3-0.1l-3.5-3.9c-0.1-0.2-0.1-0.4,0-0.5c0.2-0.1,0.4-0.1,0.5,0
				l3.5,3.9c0.1,0.2,0.1,0.4,0,0.5C74,93.9,74,93.9,73.9,93.9z"/>
		</g>
		<g id="XMLID_100_">
			<path id="XMLID_969_" class="st0" d="M101.4,101.2H89.5c-0.6,0-1.1-0.5-1.1-1.1V82c0-0.6,0.5-1.1,1.1-1.1h11.9
				c0.6,0,1.1,0.5,1.1,1.1v18C102.5,100.7,102,101.2,101.4,101.2z M90.6,99h9.7V83.1h-9.7V99z"/>
		</g>
		<g id="XMLID_101_">
			<path id="XMLID_968_" class="st0" d="M101.4,96.3c-0.5,0-1-0.4-1.1-0.9c-0.1-0.6,0.2-1.2,0.8-1.3c0.2,0,4.3-1,4.3-4.4
				c0-3.4-4.1-4.4-4.3-4.5c-0.6-0.1-1-0.7-0.8-1.3c0.1-0.6,0.7-1,1.3-0.8c2.1,0.5,6,2.5,6,6.6c0,4.2-3.9,6.1-6,6.6
				C101.5,96.3,101.5,96.3,101.4,96.3z"/>
		</g>
		<g id="XMLID_102_">
			<path id="XMLID_965_" class="st0" d="M147.5,101.2h-32c-0.6,0-1.1-0.5-1.1-1.1V70.5c0-0.6,0.5-1.1,1.1-1.1h32
				c0.6,0,1.1,0.5,1.1,1.1v29.5C148.6,100.7,148.1,101.2,147.5,101.2z M116.6,99h29.8V71.6h-29.8V99z"/>
		</g>
		<g id="XMLID_103_">
			<path id="XMLID_964_" class="st0" d="M137,101.2c-0.6,0-1.1-0.5-1.1-1.1V70.5c0-0.6,0.5-1.1,1.1-1.1c0.6,0,1.1,0.5,1.1,1.1v29.5
				C138.1,100.7,137.6,101.2,137,101.2z"/>
		</g>
		<g id="XMLID_105_">
			<path id="XMLID_963_" class="st0" d="M126.3,101.2c-0.6,0-1.1-0.5-1.1-1.1V70.5c0-0.6,0.5-1.1,1.1-1.1s1.1,0.5,1.1,1.1v29.5
				C127.4,100.7,126.9,101.2,126.3,101.2z"/>
		</g>
		<g id="XMLID_107_">
			<path id="XMLID_960_" class="st0" d="M143.2,96.7h-1.5c-1.5,0-2.6-1.2-2.6-2.6c0-1.5,1.2-2.6,2.6-2.6h1.5c1.5,0,2.6,1.2,2.6,2.6
				C145.8,95.5,144.6,96.7,143.2,96.7z M141.6,93.7c-0.2,0-0.4,0.2-0.4,0.4c0,0.2,0.2,0.4,0.4,0.4h1.5c0.2,0,0.4-0.2,0.4-0.4
				c0-0.2-0.2-0.4-0.4-0.4H141.6z"/>
		</g>
		<g id="XMLID_156_">
			<path id="XMLID_916_" class="st0" d="M132.4,96.7h-1.5c-1.5,0-2.6-1.2-2.6-2.6c0-1.5,1.2-2.6,2.6-2.6h1.5c1.5,0,2.6,1.2,2.6,2.6
				C135,95.5,133.9,96.7,132.4,96.7z M130.9,93.7c-0.2,0-0.4,0.2-0.4,0.4c0,0.2,0.2,0.4,0.4,0.4h1.5c0.2,0,0.4-0.2,0.4-0.4
				c0-0.2-0.2-0.4-0.4-0.4H130.9z"/>
		</g>
		<g id="XMLID_731_">
			<path id="XMLID_913_" class="st0" d="M121.7,96.7h-1.5c-1.5,0-2.6-1.2-2.6-2.6c0-1.5,1.2-2.6,2.6-2.6h1.5c1.5,0,2.6,1.2,2.6,2.6
				C124.3,95.5,123.1,96.7,121.7,96.7z M120.1,93.7c-0.2,0-0.4,0.2-0.4,0.4c0,0.2,0.2,0.4,0.4,0.4h1.5c0.2,0,0.4-0.2,0.4-0.4
				c0-0.2-0.2-0.4-0.4-0.4H120.1z"/>
		</g>
		<g id="XMLID_148_">
			<path id="XMLID_910_" class="st0" d="M47,61.8c-8.5,0-15.4-6.9-15.4-15.4S38.6,31,47,31s15.4,6.9,15.4,15.4S55.5,61.8,47,61.8z
				 M47,33.2c-7.3,0-13.2,5.9-13.2,13.2S39.8,59.6,47,59.6s13.2-5.9,13.2-13.2S54.3,33.2,47,33.2z"/>
		</g>
		<g id="XMLID_228_">
			<path id="XMLID_886_" class="st0" d="M55.1,49h-8.5c-0.6,0-1.1-0.5-1.1-1.1V36.6c0-0.6,0.5-1.1,1.1-1.1c0.6,0,1.1,0.5,1.1,1.1
				v10.2h7.4c0.6,0,1.1,0.5,1.1,1.1C56.2,48.5,55.7,49,55.1,49z"/>
		</g>
		<g id="XMLID_232_">
			<path id="XMLID_878_" class="st0" d="M149.3,61.3H77c-0.6,0-1.1-0.5-1.1-1.1s0.5-1.1,1.1-1.1h72.3c0.6,0,1.1,0.5,1.1,1.1
				S149.9,61.3,149.3,61.3z"/>
		</g>
		<g id="XMLID_229_">
			<path id="XMLID_861_" class="st0" d="M95.5,61.3H83c-0.6,0-1.1-0.5-1.1-1.1v-26c0-0.6,0.5-1.1,1.1-1.1h12.5
				c0.6,0,1.1,0.5,1.1,1.1v26C96.6,60.9,96.1,61.3,95.5,61.3z M84.1,59.1h10.3V35.3H84.1V59.1z"/>
		</g>
		<g id="XMLID_237_">
			<path id="XMLID_807_" class="st0" d="M101.7,61.3h-6.2c-0.6,0-1.1-0.5-1.1-1.1V37.1c0-0.6,0.5-1.1,1.1-1.1h6.2
				c0.6,0,1.1,0.5,1.1,1.1v23.2C102.8,60.9,102.3,61.3,101.7,61.3z M96.6,59.1h4v-21h-4V59.1z"/>
		</g>
		<g id="XMLID_706_">
			<path id="XMLID_799_" class="st0" d="M118.3,61.3c-0.3,0-0.7-0.2-0.9-0.5l-16.2-23.1c-0.2-0.2-0.2-0.5-0.2-0.8
				c0.1-0.3,0.2-0.5,0.5-0.7l5.1-3.6c0.5-0.3,1.2-0.2,1.5,0.3L124.3,56c0.2,0.2,0.2,0.5,0.2,0.8c-0.1,0.3-0.2,0.5-0.5,0.7l-5.1,3.6
				C118.8,61.3,118.6,61.3,118.3,61.3z M103.7,37.4l14.9,21.3l3.3-2.3L107,35.1L103.7,37.4z"/>
		</g>
		<g id="XMLID_709_">
			<path id="XMLID_793_" class="st0" d="M141.6,61.3h-8.3c-0.5,0-1-0.4-1.1-0.9l-0.3-1.5l-2.3-9.1c-0.1-0.3,0-0.7,0.2-0.9
				c0.2-0.3,0.5-0.4,0.9-0.4h13.6c0.3,0,0.7,0.2,0.9,0.4c0.2,0.3,0.3,0.6,0.2,0.9l-2.7,10.7C142.5,61,142.1,61.3,141.6,61.3z
				 M134.2,59.1h6.6l2.1-8.5h-10.8l2,7.8c0,0,0,0,0,0.1L134.2,59.1z"/>
		</g>
		<g id="XMLID_235_">
			<path id="XMLID_775_" class="st0" d="M142.2,50.7h-9.6c-0.5,0-0.9-0.3-1.1-0.8c-0.2-0.6-1.7-5.6-1.6-7.9c0.2-3.5,2.3-7.2,7.5-7.2
				c0,0,0,0,0.1,0c0.2,0,3.9,0.2,6.1,2.7c1.1,1.2,1.6,2.7,1.4,4.5c-0.4,5.7-1.7,7.9-1.8,8.2C142.9,50.5,142.6,50.7,142.2,50.7z
				 M133.4,48.5h8.1c0.4-0.9,1-2.9,1.3-6.6c0.1-1.2-0.2-2.1-0.9-2.9c-1.5-1.6-4.3-1.9-4.5-1.9c-4.5,0-5.1,3.6-5.2,5.1
				C132,43.5,132.9,46.7,133.4,48.5z"/>
		</g>
		<g id="XMLID_732_">
			<path id="XMLID_774_" class="st0" d="M146.6,44.4H141c-0.6,0-1.1-0.5-1.1-1.1c0-0.6,0.5-1.1,1.1-1.1h5.6c0.6,0,1.1,0.5,1.1,1.1
				C147.7,43.9,147.2,44.4,146.6,44.4z"/>
		</g>
		<g id="XMLID_739_">
			<path id="XMLID_773_" class="st0" d="M136.5,38.7c-0.5,0-0.9-0.3-1-0.7l-2.1-6.1c-0.2-0.6,0.1-1.2,0.7-1.4
				c0.6-0.2,1.2,0.1,1.4,0.7l2.1,6.1c0.2,0.6-0.1,1.2-0.7,1.4C136.7,38.7,136.6,38.7,136.5,38.7z"/>
		</g>
		<g id="XMLID_740_">
			<path id="XMLID_772_" class="st0" d="M133.7,41.1c-0.3,0-0.5-0.1-0.7-0.3l-4.8-4.4c-0.5-0.4-0.5-1.1-0.1-1.6
				c0.4-0.5,1.1-0.5,1.6-0.1l4.8,4.4c0.5,0.4,0.5,1.1,0.1,1.6C134.3,41,134,41.1,133.7,41.1z"/>
		</g>
		<g id="XMLID_635_">
			<path id="XMLID_636_" class="st0" d="M89.3,61.3c-0.6,0-1.1-0.5-1.1-1.1V34.5c0-0.6,0.5-1.1,1.1-1.1s1.1,0.5,1.1,1.1v25.7
				C90.4,60.9,89.9,61.3,89.3,61.3z"/>
		</g>
	</g>
	<g id="XMLID_1717_">
		<path id="XMLID_533_" class="st0" d="M185.4,185.4H0V0h185.4V185.4z M3,182.4h179.4V3H3V182.4z"/>
	</g>
</g>
</svg>
