<?xml version="1.0" encoding="utf-8"?>
<!-- Generator: Adobe Illustrator 20.0.0, SVG Export Plug-In . SVG Version: 6.00 Build 0)  -->
<svg version="1.1" id="Layer_1" xmlns="http://www.w3.org/2000/svg" xmlns:xlink="http://www.w3.org/1999/xlink" x="0px" y="0px"
	 viewBox="0 0 185.4 185.4" style="enable-background:new 0 0 185.4 185.4;" xml:space="preserve">
<style type="text/css">
	.st0{fill:#7E7E7E;}
</style>
<g>
	<g id="XMLID_1715_">
		<path id="XMLID_1168_" class="st0" d="M185.7,185.4H0.4V0h185.4V185.4z M3.4,182.4h179.4V3H3.4V182.4z"/>
	</g>
	<g id="XMLID_1424_">
		<g id="XMLID_1443_">
			<path id="XMLID_1628_" class="st0" d="M142.2,119.6H92.4c-1,0-1.9-0.8-1.9-1.9s0.8-1.9,1.9-1.9h49.8c1,0,1.9,0.8,1.9,1.9
				S143.2,119.6,142.2,119.6z"/>
		</g>
		<g id="XMLID_1477_">
			<path id="XMLID_1625_" class="st0" d="M95.3,144.4c-0.2,0-0.4,0-0.6-0.1c-1-0.4-1.5-1.4-1.1-2.4l9-24.8c0.4-1,1.4-1.5,2.4-1.1
				c1,0.4,1.5,1.4,1.1,2.4l-9,24.8C96.8,144,96.1,144.4,95.3,144.4z"/>
		</g>
		<g id="XMLID_1490_">
			<path id="XMLID_1624_" class="st0" d="M139.3,144.4c-0.8,0-1.5-0.5-1.8-1.3l-8.4-24.8c-0.3-1,0.2-2.1,1.2-2.4
				c1-0.3,2.1,0.2,2.4,1.2l8.4,24.8c0.3,1-0.2,2.1-1.2,2.4C139.7,144.4,139.5,144.4,139.3,144.4z"/>
		</g>
		<g id="XMLID_1491_">
			<path id="XMLID_1559_" class="st0" d="M139.6,66.8V48.7H95V70v6.1h44.6V66.8z M98.4,52.1h37.7v11.3l-4.2-4.2
				c-2.3-2.3-6.3-2.5-8.8-0.3l-6.4,5.5c-0.9,0.7-2.1,0.9-3.1,0.5l-3.6-1.4c-2-0.8-4.3-0.5-6,0.6l-5.5,3.7V52.1z M136.2,72.7H98.4
				v-0.8l7.4-5c0.8-0.5,1.9-0.7,2.8-0.3l3.6,1.4c2.2,0.9,4.8,0.4,6.6-1.1l6.4-5.5c1.2-1,3.1-0.9,4.1,0.2l6.7,6.7V72.7z"/>
			<path id="XMLID_1492_" class="st0" d="M147.6,141.3H79.3c0.2-0.5,0.3-1.1,0.3-1.7c0-2.8-2.3-5.1-5.1-5.1h-8.6v-31.9l15.4-15.4
				c1,0.6,2.2,1,3.5,1c3.8,0,6.9-3.1,6.9-6.9s-3.1-6.9-6.9-6.9c-3.8,0-6.9,3.1-6.9,6.9c0,1.3,0.4,2.4,1,3.5l-13,13V76.8l6.8-6.8
				c1,0.6,2.2,1,3.5,1c3.8,0,6.9-3.1,6.9-6.9s-3.1-6.9-6.9-6.9c-3.8,0-6.9,3.1-6.9,6.9c0,1.3,0.4,2.4,1,3.5L65.9,72V55.3
				c2.9-0.8,5.1-3.4,5.1-6.6c0-3.8-3.1-6.9-6.9-6.9s-6.9,3.1-6.9,6.9c0,3.2,2.2,5.8,5.1,6.6v33.8L56.3,83c0.6-1,1-2.2,1-3.5
				c0-3.8-3.1-6.9-6.9-6.9s-6.9,3.1-6.9,6.9s3.1,6.9,6.9,6.9c1.3,0,2.4-0.4,3.5-1l8.5,8.5v40.4h-8.6c-2.8,0-5.1,2.3-5.1,5.1
				c0,0.6,0.1,1.2,0.3,1.7h-7.2c-0.9,0-1.7,0.8-1.7,1.7s0.8,1.7,1.7,1.7h12h20.6h73.2c0.9,0,1.7-0.8,1.7-1.7
				S148.5,141.3,147.6,141.3z M84.7,77.8c1.9,0,3.4,1.5,3.4,3.4s-1.5,3.4-3.4,3.4s-3.4-1.5-3.4-3.4S82.8,77.8,84.7,77.8z M76.1,60.7
				c1.9,0,3.4,1.5,3.4,3.4s-1.5,3.4-3.4,3.4c-1.9,0-3.4-1.5-3.4-3.4S74.3,60.7,76.1,60.7z M47,79.5c0-1.9,1.5-3.4,3.4-3.4
				c1.9,0,3.4,1.5,3.4,3.4S52.3,83,50.4,83C48.5,83,47,81.4,47,79.5z M60.7,48.7c0-1.9,1.5-3.4,3.4-3.4s3.4,1.5,3.4,3.4
				s-1.5,3.4-3.4,3.4S60.7,50.6,60.7,48.7z M53.9,141.3c-0.9,0-1.7-0.8-1.7-1.7c0-0.9,0.8-1.7,1.7-1.7h20.6c0.9,0,1.7,0.8,1.7,1.7
				c0,0.9-0.8,1.7-1.7,1.7H53.9z"/>
		</g>
	</g>
</g>
</svg>
