<?xml version="1.0" encoding="utf-8"?>
<!-- Generator: Adobe Illustrator 20.0.0, SVG Export Plug-In . SVG Version: 6.00 Build 0)  -->
<svg version="1.1" id="Layer_1" xmlns="http://www.w3.org/2000/svg" xmlns:xlink="http://www.w3.org/1999/xlink" x="0px" y="0px"
	 viewBox="0 0 38.4 38.4" style="enable-background:new 0 0 38.4 38.4;" xml:space="preserve">
<style type="text/css">
	.st0{fill:#F0DA10;}
	.st1{enable-background:new    ;}
	.st2{fill:#333333;}
</style>
<rect id="XMLID_725_" x="5.6" y="5.6" transform="matrix(0.7071 -0.7071 0.7071 0.7071 -7.9529 19.2)" class="st0" width="27.2" height="27.2"/>
<g class="st1">
	<path class="st2" d="M24.2,26.7h-10v-1.8l3.8-3.8c1.1-1.1,1.9-2,2.2-2.4c0.4-0.5,0.6-0.9,0.8-1.4s0.3-0.9,0.3-1.4
		c0-0.7-0.2-1.2-0.6-1.6s-0.9-0.6-1.7-0.6c-0.6,0-1.1,0.1-1.6,0.3c-0.5,0.2-1.1,0.6-1.8,1.1l-1.3-1.6c0.8-0.7,1.6-1.2,2.4-1.5
		c0.8-0.3,1.6-0.4,2.5-0.4c1.4,0,2.5,0.4,3.3,1.1s1.2,1.7,1.2,2.9c0,0.7-0.1,1.3-0.4,1.9c-0.2,0.6-0.6,1.2-1.1,1.8
		c-0.5,0.6-1.3,1.5-2.5,2.6l-2.6,2.5v0.1h7V26.7z"/>
</g>
</svg>
