<?xml version="1.0" encoding="utf-8"?>
<!-- Generator: Adobe Illustrator 20.0.0, SVG Export Plug-In . SVG Version: 6.00 Build 0)  -->
<svg version="1.1" id="Layer_1" xmlns="http://www.w3.org/2000/svg" xmlns:xlink="http://www.w3.org/1999/xlink" x="0px" y="0px"
	 viewBox="0 0 81.7 119.8" style="enable-background:new 0 0 81.7 119.8;" xml:space="preserve">
<style type="text/css">
	.st0{fill:#525454;}
	.st1{fill:#7B7F81;}
	.st2{fill:#D0D3D2;}
	.st3{fill:#62B5A2;}
	.st4{fill:#9AD2CF;}
	.st5{fill:#C0D357;}
	.st6{fill:#DBE171;}
</style>
<g id="XMLID_1_">
	<g id="XMLID_36_">
		<path id="XMLID_45_" class="st0" d="M7,97.4c-3.9,0-7,3.1-7,7v8.5c0,3.9,3.1,7,7,7s7-3.1,7-7v-8.5C14,100.5,10.8,97.4,7,97.4z
			 M13.4,112.9c0,3.5-2.9,6.4-6.4,6.4s-6.4-2.9-6.4-6.4v-8.5c0-3.5,2.9-6.4,6.4-6.4s6.4,2.9,6.4,6.4V112.9z"/>
		<path id="XMLID_42_" class="st0" d="M80.8,108.3h0.3h0.3v-3.9c0-3.9-3.1-7-7-7h-0.5c-3.9,0-7,3.1-7,7v8.5c0,3.9,3.1,7,7,7h0.5
			c3.9,0,7-3.1,7-7v-0.1h-0.6v0.1c0,3.5-2.9,6.4-6.4,6.4h-0.5c-3.5,0-6.4-2.9-6.4-6.4v-4.5H80.8z M67.5,104.4c0-3.5,2.9-6.4,6.4-6.4
			h0.5c3.5,0,6.4,2.9,6.4,6.4v3.3H67.5V104.4z"/>
		
			<rect id="XMLID_41_" x="41.3" y="91.2" transform="matrix(0.7071 -0.7071 0.7071 0.7071 -53.1759 57.8485)" class="st0" width="3.9" height="3.9"/>
		<path id="XMLID_40_" class="st0" d="M24.4,97.4h-0.5c-3.9,0-7,3.1-7,7v14.9h0.6v-14.9c0-3.5,2.9-6.4,6.4-6.4h0.5
			c3.5,0,6.4,2.9,6.4,6.4v14.9h0.6v-14.9C31.4,100.5,28.3,97.4,24.4,97.4z"/>
		<rect id="XMLID_39_" x="42.9" y="97.7" class="st0" width="0.6" height="21.5"/>
		<path id="XMLID_38_" class="st0" d="M57.6,97.4H57c-3.9,0-7,3.1-7,7v14.9h0.6v-14.9c0-3.5,2.9-6.4,6.4-6.4h0.5
			c3.5,0,6.4,2.9,6.4,6.4v14.9h0.6v-14.9C64.6,100.5,61.4,97.4,57.6,97.4z"/>
		<rect id="XMLID_37_" x="35.5" y="88.7" class="st0" width="0.6" height="30.6"/>
	</g>
	<g id="XMLID_27_">
		<path id="XMLID_33_" class="st0" d="M72.1,54.8c-5.1,0-9.3,4.2-9.3,9.3v11.6c0,5.1,4.2,9.3,9.3,9.3s9.3-4.2,9.3-9.3V64.1
			C81.4,59,77.2,54.8,72.1,54.8z M80.2,75.8c0,4.5-3.7,8.1-8.1,8.1s-8.1-3.7-8.1-8.1V64.1c0-4.5,3.7-8.1,8.1-8.1s8.1,3.7,8.1,8.1
			V75.8z"/>
		<polygon id="XMLID_32_" class="st0" points="23,83.5 23,70 35.5,70 35.5,68.8 23,68.8 23,56.6 36.9,56.6 36.9,55.4 23,55.4 
			22.4,55.4 21.8,55.4 21.8,84.7 23,84.7 23,84.7 36.9,84.7 36.9,83.5 		"/>
		<path id="XMLID_29_" class="st0" d="M8.4,54.8H0.6v0.6V56v28.1v0.6v0.6c0.3,0,0.6,0,0.9,0c2,0,4.3-0.1,7-0.2
			c5.1,0,9.3-4.2,9.3-9.3V64.1C17.8,59,13.6,54.8,8.4,54.8z M16.6,75.8c0,4.5-3.7,8.1-8.1,8.1l0,0c-2.5,0.1-4.7,0.2-6.6,0.2V56h6.7
			c4.5,0,8.1,3.7,8.1,8.1V75.8z"/>
		<path id="XMLID_28_" class="st0" d="M50.3,83.9h-0.9c-4.5,0-8.1-3.7-8.1-8.1V64.1c0-4.5,3.7-8.1,8.1-8.1h0.9c4.5,0,8.1,3.6,8.1,8
			h1.2c-0.1-5.1-4.2-9.2-9.3-9.2h-0.9c-5.1,0-9.3,4.2-9.3,9.3v11.6c0,5.1,4.2,9.3,9.3,9.3h0.9c5.1,0,9.3-4.2,9.3-9.3h-1.2
			C58.5,80.3,54.8,83.9,50.3,83.9z"/>
	</g>
	<g id="XMLID_11_">
		<path id="XMLID_24_" class="st0" d="M6.2,31.4H5.8c-2.9,0-5.2,2.3-5.2,5.2V43c0,2.9,2.3,5.2,5.2,5.2h0.4c2.9,0,5.2-2.3,5.2-5.2V43
			H11V43c0,2.6-2.1,4.8-4.8,4.8H5.8C3.2,47.8,1,45.7,1,43v-3.4h10h0.2h0.2v-3C11.5,33.8,9.1,31.4,6.2,31.4z M11,39.2H1v-2.5
			c0-2.6,2.1-4.8,4.8-4.8h0.4c2.6,0,4.8,2.1,4.8,4.8V39.2z"/>
		<path id="XMLID_23_" class="st0" d="M21.8,40c-1-0.8-2.3-1-3.5-1.2l-0.5-0.1c-1.2-0.2-2.6-0.7-3.4-1.7c-0.7-1-0.7-2.4,0-3.5
			c0.6-1,1.8-1.7,3.1-1.8c1.2-0.1,2.5,0.2,3.7,0.9c0.3,0.2,1.9,1.2,1.4,2.3l0.5,0.2c0.5-1.3-0.5-2.4-1.6-3.1c-1.3-0.7-2.7-1.1-4-0.9
			c-1.5,0.2-2.8,0.9-3.6,2.1c-0.8,1.3-0.8,3,0,4.1c0.9,1.3,2.5,1.7,3.8,2l0.5,0.1c1.2,0.2,2.3,0.5,3.3,1.1c1.6,1.2,2,3.9,0.7,5.6
			c-1.2,1.7-3.7,2.3-5.7,1.6c-1.3-0.5-2.7-1.9-2.6-3.4l-0.6,0c-0.1,1.9,1.5,3.4,3,4c0.6,0.2,1.3,0.4,2,0.4c1.7,0,3.4-0.8,4.4-2.1
			C24.1,44.4,23.6,41.4,21.8,40z"/>
		<path id="XMLID_20_" class="st0" d="M30.9,31.1c-3,0-5.4,2.4-5.4,5.4v1.3v5.2v10.8h0.6v-8.3c0.9,1.8,2.7,3,4.8,3
			c3,0,5.4-2.4,5.4-5.4v-6.6C36.3,33.6,33.9,31.1,30.9,31.1z M35.7,43.1c0,2.7-2.2,4.8-4.8,4.8s-4.8-2.2-4.8-4.8v-5.2v-1.3
			c0-2.7,2.2-4.8,4.8-4.8s4.8,2.2,4.8,4.8V43.1z"/>
		<path id="XMLID_17_" class="st0" d="M76.3,31.1c-3,0-5.4,2.4-5.4,5.4v6.6c0,3,2.4,5.4,5.4,5.4c3,0,5.4-2.4,5.4-5.4v-6.6
			C81.7,33.6,79.3,31.1,76.3,31.1z M81.1,43.1c0,2.7-2.2,4.8-4.8,4.8s-4.8-2.2-4.8-4.8v-6.6c0-2.7,2.2-4.8,4.8-4.8s4.8,2.2,4.8,4.8
			V43.1z"/>
		<rect id="XMLID_16_" x="65.8" y="31.9" class="st0" width="0.6" height="16"/>
		<path id="XMLID_13_" class="st0" d="M43.7,31.1c-3,0-5.4,2.4-5.4,5.4v0.2h0.6v-0.2c0-2.7,2.2-4.8,4.8-4.8s4.8,2.2,4.8,4.8v4
			c-0.9-1.8-2.7-3-4.8-3c-2.9,0-5.2,2.2-5.4,5.1h0V43v0.1c0,3,2.4,5.4,5.4,5.4s5.4-2.4,5.4-5.4V43v-6.4
			C49.1,33.6,46.7,31.1,43.7,31.1z M48.5,43.1c0,2.7-2.2,4.8-4.8,4.8s-4.8-2.2-4.8-4.8V43c0-2.7,2.2-4.8,4.8-4.8s4.8,2.2,4.8,4.8
			V43.1z"/>
		<path id="XMLID_12_" class="st0" d="M56.1,31.1c-3,0-5.4,2.4-5.4,5.4v6.6c0,3,2.4,5.4,5.4,5.4c3,0,5.4-2.4,5.4-5.3h-0.6
			c-0.1,2.6-2.2,4.7-4.8,4.7c-2.7,0-4.8-2.2-4.8-4.8v-6.6c0-2.7,2.2-4.8,4.8-4.8s4.8,2.2,4.8,4.8v0.1h0.6v-0.1
			C61.5,33.6,59.1,31.1,56.1,31.1z"/>
	</g>
	<g id="XMLID_8_">
		<polygon id="XMLID_10_" class="st0" points="0.6,1.2 7.3,1.2 7.3,22.4 8.5,22.4 8.5,1.2 15.2,1.2 15.2,0 0.6,0 		"/>
		<path id="XMLID_9_" class="st0" d="M30.8,0v15.7c0,3.4-2.7,6.1-6.1,6.1s-6.1-2.7-6.1-6.1V0h-1.2v15.7c0,4,3.3,7.3,7.3,7.3
			s7.3-3.3,7.3-7.3V0H30.8z"/>
	</g>
	<polygon id="XMLID_7_" class="st1" points="54.6,6.1 54.6,27.7 65.3,16.9 	"/>
	<polygon id="XMLID_6_" class="st2" points="43.8,16.9 54.6,27.7 54.6,6.1 	"/>
	<polygon id="XMLID_5_" class="st3" points="66.5,-0.2 66.5,15.6 74.3,7.7 	"/>
	<polygon id="XMLID_4_" class="st4" points="58.6,7.7 66.5,15.6 66.5,-0.2 	"/>
	<polygon id="XMLID_3_" class="st5" points="66.5,18 66.5,28.9 71.9,23.4 	"/>
	<polygon id="XMLID_2_" class="st6" points="61.1,23.4 66.5,28.9 66.5,18 	"/>
</g>
</svg>
