<?xml version="1.0" encoding="utf-8"?>
<!-- Generator: Adobe Illustrator 20.0.0, SVG Export Plug-In . SVG Version: 6.00 Build 0)  -->
<svg version="1.1" xmlns="http://www.w3.org/2000/svg" xmlns:xlink="http://www.w3.org/1999/xlink" x="0px" y="0px"
	 viewBox="0 0 150 121.3" style="enable-background:new 0 0 150 121.3;" xml:space="preserve">
<style type="text/css">
	.st0{fill:#7F7F7F;}
	.st1{display:none;}
	.st2{display:inline;}
</style>
<g id="Layer_1">
	<g id="XMLID_681_">
		<g>
			<g id="XMLID_59_">
				<path class="st0" d="M91.2,2.7c30.9,0,56.1,22,56.1,49c0,17.8-11.1,34.2-28.9,42.9l-2,1l0.6,2.2l4.8,18.2l-29.3-14.9l-0.6-0.3
					h-0.7c-6.1,0-12-0.8-17.8-2.5c8.4-7.7,13.1-17.9,13.1-28.7c0-22.2-19.8-40.3-44.6-41.2C51.6,12.7,70.5,2.7,91.2,2.7 M91.2,0
					C67,0,46.2,12.8,37.2,31.2c0.9-0.1,1.9-0.1,2.8-0.1c24.2,0,43.7,17.2,43.7,38.5c0,12-6.2,22.6-15.9,29.7
					c7.2,2.7,15,4.2,23.3,4.2l34.8,17.7l-6.4-24.2c18.2-8.8,30.5-25.8,30.5-45.4C150,23.2,123.7,0,91.2,0L91.2,0z"/>
			</g>
			<g id="XMLID_56_">
				<path class="st0" d="M35.9,42C54.2,42,69,54.4,69,70.3c0,15.9-14.9,28.3-33.1,28.3h-0.7l-0.6,0.8l-15.7,8.3l2.3-8.7l0.6-2.1
					l-2-1c-10.5-5.1-17-14.7-17-25.2C2.7,54.9,17.6,42,35.9,42 M35.9,39.2C16.1,39.2,0,53.4,0,70.8c0,11.9,7.5,22.3,18.6,27.7
					l-3.9,14.7l21.2-10.8c19.8,0,35.9-14.1,35.9-31.6C71.8,53.4,55.7,39.2,35.9,39.2L35.9,39.2z"/>
			</g>
		</g>
	</g>
</g>
<g id="Layer_2" class="st1">
	<g id="XMLID_264_" class="st2">
		<g>
			<g id="XMLID_153_">
				<path class="st0" d="M49,119.3H3.7c-0.5,0-1-0.4-1-1V3c0-0.5,0.4-1,1-1h111.5c0.5,0,1,0.4,1,1v16c0,0.5-0.4,1-1,1
					c-0.5,0-1-0.4-1-1V4H4.7v113.3H49c0.5,0,1,0.4,1,1S49.6,119.3,49,119.3z"/>
			</g>
			<g id="XMLID_152_">
				<path class="st0" d="M115.2,119.3H61.5c-0.5,0-1-0.4-1-1s0.4-1,1-1h52.7v-15.1c0-0.5,0.4-1,1-1c0.5,0,1,0.4,1,1v16.1
					C116.2,118.8,115.8,119.3,115.2,119.3z"/>
			</g>
			<g id="XMLID_151_">
				<path class="st0" d="M36.6,57.4H3.7c-0.5,0-1-0.4-1-1c0-0.5,0.4-1,1-1h32.9c0.5,0,1,0.4,1,1C37.6,57,37.2,57.4,36.6,57.4z"/>
			</g>
			<g id="XMLID_150_">
				<path class="st0" d="M36.6,28.3c-0.5,0-1-0.4-1-1V3c0-0.5,0.4-1,1-1c0.5,0,1,0.4,1,1v24.3C37.6,27.9,37.2,28.3,36.6,28.3z"/>
			</g>
			<g id="XMLID_149_">
				<path class="st0" d="M36.6,74.1c-0.5,0-1-0.4-1-1V44c0-0.5,0.4-1,1-1c0.5,0,1,0.4,1,1v29.1C37.6,73.6,37.2,74.1,36.6,74.1z"/>
			</g>
			<g id="XMLID_148_">
				<path class="st0" d="M36.6,119.3c-0.5,0-1-0.4-1-1V89.7c0-0.5,0.4-1,1-1c0.5,0,1,0.4,1,1v28.6C37.6,118.8,37.2,119.3,36.6,119.3
					z"/>
			</g>
			<g id="XMLID_147_">
				<path class="st0" d="M90.6,44.4h-25c-0.5,0-1-0.4-1-1V3c0-0.5,0.4-1,1-1c0.5,0,1,0.4,1,1v39.4h24c0.5,0,1,0.4,1,1
					C91.6,44,91.2,44.4,90.6,44.4z"/>
			</g>
			<g id="XMLID_144_">
				<path class="st0" d="M83.5,100c-0.3,0-0.5-0.1-0.7-0.3l-17-17c-0.2-0.2-0.3-0.4-0.3-0.7c0-0.3,0.1-0.5,0.3-0.7L120,27.1
					c0.4-0.4,1-0.4,1.4,0l17,17c0.2,0.2,0.3,0.4,0.3,0.7s-0.1,0.5-0.3,0.7L84.2,99.7C84,99.9,83.8,100,83.5,100z M67.9,82l15.6,15.6
					l52.8-52.8l-15.6-15.6L67.9,82z"/>
			</g>
			<g id="XMLID_143_">
				<path class="st0" d="M55.2,111.2c-0.3,0-0.5-0.1-0.7-0.3c-0.3-0.3-0.4-0.7-0.2-1.1l11.3-28.3c0.2-0.5,0.8-0.8,1.3-0.6
					c0.5,0.2,0.8,0.8,0.6,1.3L57,108.5l26.1-10.4c0.5-0.2,1.1,0,1.3,0.6c0.2,0.5,0,1.1-0.6,1.3l-28.3,11.3
					C55.5,111.2,55.4,111.2,55.2,111.2z"/>
			</g>
			<g id="XMLID_140_">
				<path class="st0" d="M137.7,45.8c-0.3,0-0.5-0.1-0.7-0.3l-17-17c-0.2-0.2-0.3-0.4-0.3-0.7c0-0.3,0.1-0.5,0.3-0.7l5-5
					c5.1-5.1,13.3-5.1,18.4,0l0,0c5.1,5.1,5.1,13.3,0,18.4l-5,5C138.2,45.7,138,45.8,137.7,45.8z M122.1,27.8l15.6,15.6l4.3-4.3
					c4.3-4.3,4.3-11.3,0-15.6c-4.3-4.3-11.3-4.3-15.6,0L122.1,27.8z"/>
			</g>
		</g>
	</g>
</g>
<g id="Layer_3" class="st1">
	<g id="XMLID_684_" class="st2">
		<g>
			<g id="XMLID_84_">
				<path class="st0" d="M137.6,18.3c4.3,0,7.8,3.5,7.8,7.8v69c0,4.3-3.5,7.8-7.8,7.8H12.4c-4.3,0-7.8-3.5-7.8-7.8v-69
					c0-4.3,3.5-7.8,7.8-7.8H137.6 M137.6,15.6H12.4c-5.8,0-10.6,4.7-10.6,10.6v69c0,5.8,4.7,10.6,10.6,10.6h125.1
					c5.8,0,10.6-4.7,10.6-10.6v-69C148.1,20.3,143.4,15.6,137.6,15.6L137.6,15.6z"/>
			</g>
			<g id="XMLID_81_">
				<path class="st0" d="M145.4,31.5v19.4H4.6V31.5H145.4 M148.1,28.8h-2.7H4.6H1.9v2.7v19.4v2.7h2.7h140.8h2.7v-2.7V31.5V28.8
					L148.1,28.8z"/>
			</g>
			<g id="XMLID_80_">
				<path class="st0" d="M51.6,83.5H16.9c-0.8,0-1.4-0.6-1.4-1.4s0.6-1.4,1.4-1.4h34.8c0.8,0,1.4,0.6,1.4,1.4S52.4,83.5,51.6,83.5z"
					/>
			</g>
			<g id="XMLID_79_">
				<path class="st0" d="M51.6,90.9H16.9c-0.8,0-1.4-0.6-1.4-1.4s0.6-1.4,1.4-1.4h34.8c0.8,0,1.4,0.6,1.4,1.4S52.4,90.9,51.6,90.9z"
					/>
			</g>
		</g>
	</g>
</g>
<g id="Layer_4" class="st1">
	<g id="XMLID_113_" class="st2">
		<g>
			<g id="XMLID_46_">
				<path class="st0" d="M130.3,100H19.7c-5.1,0-9.2-4.1-9.2-9.2V30.5c0-5.1,4.1-9.2,9.2-9.2h110.6c5.1,0,9.2,4.1,9.2,9.2v60.2
					C139.5,95.8,135.3,100,130.3,100z M19.7,24.1c-3.6,0-6.5,2.9-6.5,6.5v60.2c0,3.6,2.9,6.5,6.5,6.5h110.6c3.6,0,6.5-2.9,6.5-6.5
					V30.5c0-3.6-2.9-6.5-6.5-6.5H19.7z"/>
			</g>
			<g id="XMLID_45_">
				<path class="st0" d="M75,62c-0.3,0-0.5-0.1-0.7-0.2C51.9,47.5,17.6,25.9,15,25c-0.7-0.2-1.1-1-0.9-1.7c0.2-0.7,0.9-1.1,1.7-0.9
					c3.6,1,54.2,33.4,60,37.1c0.6,0.4,0.8,1.3,0.4,1.9C75.9,61.8,75.5,62,75,62z"/>
			</g>
			<g id="XMLID_44_">
				<path class="st0" d="M75,62c-0.5,0-0.9-0.2-1.2-0.6c-0.4-0.6-0.2-1.5,0.4-1.9c5.8-3.7,56.5-36.1,60-37.1
					c0.7-0.2,1.5,0.2,1.7,0.9c0.2,0.7-0.2,1.5-0.9,1.7c-2.7,0.8-36.9,22.5-59.3,36.8C75.5,62,75.2,62,75,62z"/>
			</g>
		</g>
	</g>
</g>
</svg>
