<?xml version="1.0" encoding="utf-8"?>
<!-- Generator: Adobe Illustrator 20.0.0, SVG Export Plug-In . SVG Version: 6.00 Build 0)  -->
<svg version="1.1" id="Layer_1" xmlns="http://www.w3.org/2000/svg" xmlns:xlink="http://www.w3.org/1999/xlink" x="0px" y="0px"
	 viewBox="0 0 38.4 38.4" style="enable-background:new 0 0 38.4 38.4;" xml:space="preserve">
<style type="text/css">
	.st0{fill:#F0DA10;}
	.st1{enable-background:new    ;}
	.st2{fill:#333333;}
</style>
<rect id="XMLID_725_" x="5.6" y="5.6" transform="matrix(0.7071 -0.7071 0.7071 0.7071 -7.9529 19.2)" class="st0" width="27.2" height="27.2"/>
<g class="st1">
	<path class="st2" d="M23.7,15.2c0,0.9-0.3,1.7-0.8,2.3c-0.5,0.6-1.3,1-2.3,1.3v0.1c1.2,0.1,2.1,0.5,2.7,1.1
		c0.6,0.6,0.9,1.4,0.9,2.3c0,1.4-0.5,2.5-1.5,3.3c-1,0.8-2.4,1.2-4.3,1.2c-1.6,0-3-0.3-4.1-0.8v-2.1c0.6,0.3,1.3,0.5,2,0.7
		c0.7,0.2,1.4,0.3,2,0.3c1.1,0,2-0.2,2.6-0.6c0.6-0.4,0.8-1.1,0.8-2c0-0.8-0.3-1.4-0.9-1.7c-0.6-0.4-1.6-0.6-2.9-0.6h-1.3V18h1.3
		c2.3,0,3.5-0.8,3.5-2.4c0-0.6-0.2-1.1-0.6-1.5c-0.4-0.3-1-0.5-1.8-0.5c-0.6,0-1.1,0.1-1.6,0.2c-0.5,0.2-1.1,0.5-1.8,0.9l-1.2-1.6
		c1.3-1,2.9-1.5,4.7-1.5c1.5,0,2.6,0.3,3.5,1S23.7,14.1,23.7,15.2z"/>
</g>
</svg>
