<?xml version="1.0" encoding="utf-8"?>
<!-- Generator: Adobe Illustrator 20.0.0, SVG Export Plug-In . SVG Version: 6.00 Build 0)  -->
<svg version="1.1" id="Layer_1" xmlns="http://www.w3.org/2000/svg" xmlns:xlink="http://www.w3.org/1999/xlink" x="0px" y="0px"
	 viewBox="0 0 69.7 69.7" style="enable-background:new 0 0 69.7 69.7;" xml:space="preserve">
<style type="text/css">
	.st0{fill:#7E7E7E;}
</style>
<circle id="XMLID_3903_" class="st0" cx="14.9" cy="29" r="1.3"/>
<path id="XMLID_3902_" class="st0" d="M57.5,30.2H20c-0.6,0-1.2-0.5-1.2-1.2v0c0-0.6,0.5-1.2,1.2-1.2h37.5c0.6,0,1.2,0.5,1.2,1.2v0
	C58.7,29.7,58.1,30.2,57.5,30.2z"/>
<path id="XMLID_3901_" class="st0" d="M57.5,36H20c-0.6,0-1.2-0.5-1.2-1.2l0,0c0-0.6,0.5-1.2,1.2-1.2h37.5c0.6,0,1.2,0.5,1.2,1.2
	l0,0C58.7,35.5,58.1,36,57.5,36z"/>
<path id="XMLID_3900_" class="st0" d="M57.5,42H20c-0.6,0-1.2-0.5-1.2-1.2l0,0c0-0.6,0.5-1.2,1.2-1.2h37.5c0.6,0,1.2,0.5,1.2,1.2
	l0,0C58.7,41.4,58.1,42,57.5,42z"/>
<circle id="XMLID_3899_" class="st0" cx="14.9" cy="34.9" r="1.3"/>
<circle id="XMLID_3897_" class="st0" cx="14.9" cy="40.8" r="1.3"/>
<g id="XMLID_3896_">
	<path class="st0" d="M34.9,3c17.6,0,31.9,14.3,31.9,31.9c0,17.6-14.3,31.9-31.9,31.9C17.3,66.7,3,52.4,3,34.9C3,17.3,17.3,3,34.9,3
		 M34.9,0C15.6,0,0,15.6,0,34.9s15.6,34.9,34.9,34.9s34.9-15.6,34.9-34.9S54.1,0,34.9,0L34.9,0z"/>
</g>
</svg>
