<?xml version="1.0" encoding="utf-8"?>
<!-- Generator: Adobe Illustrator 20.0.0, SVG Export Plug-In . SVG Version: 6.00 Build 0)  -->
<svg version="1.1" id="Layer_1" xmlns="http://www.w3.org/2000/svg" xmlns:xlink="http://www.w3.org/1999/xlink" x="0px" y="0px"
	 viewBox="0 0 69.7 69.7" style="enable-background:new 0 0 69.7 69.7;" xml:space="preserve">
<style type="text/css">
	.st0{fill:#7E7E7E;}
	.st1{fill:none;}
</style>
<g id="XMLID_3894_">
	<path class="st0" d="M34.9,3c17.6,0,31.9,14.3,31.9,31.9c0,17.6-14.3,31.9-31.9,31.9C17.3,66.7,3,52.4,3,34.9C3,17.3,17.3,3,34.9,3
		 M34.9,0C15.6,0,0,15.6,0,34.9s15.6,34.9,34.9,34.9s34.9-15.6,34.9-34.9S54.1,0,34.9,0L34.9,0z"/>
</g>
<g id="XMLID_3879_">
	<path id="XMLID_3881_" class="st0" d="M51.9,13.5h-34c-3.2,0-5.8,2.6-5.8,5.8l0,0v22.3c0,3.2,2.6,5.8,5.8,5.8h10.4l0.5,9.6H22
		c-0.3,0-0.5,0.2-0.5,0.5c0,0.3,0.2,0.5,0.5,0.5h25.2c0.3,0,0.5-0.2,0.5-0.5c0-0.3-0.2-0.5-0.5-0.5H41l0.5-9.6h10.4
		c3.2,0,5.8-2.6,5.8-5.8V19.4C57.7,16.1,55.1,13.5,51.9,13.5C51.9,13.5,51.9,13.5,51.9,13.5z M13.1,19.4c0-2.6,2.1-4.8,4.8-4.8h34
		c2.6,0,4.8,2.1,4.8,4.8V38H13.1V19.4z M39.9,57.2H29.8l-0.5-9.6h11.1L39.9,57.2z M51.9,46.5h-34c-2.6,0-4.8-2.1-4.8-4.8V39h43.6
		v2.7C56.7,44.3,54.5,46.5,51.9,46.5z"/>
	<circle id="XMLID_3880_" class="st0" cx="34.9" cy="42.7" r="1.1"/>
</g>
<g id="XMLID_3802_">
	<path id="XMLID_3870_" class="st1" d="M23.1,25.6v6.5l1,0.6v-4.5c0-0.1,0.1-0.2,0.1-0.2c0.1,0,0.2,0,0.3,0l1.4,0.8h0l0,0l1.7,1
		c0.1,0,0.1,0.1,0.1,0.2v4.8l1.1,0.7v-5.8l-3-4.4L23.1,25.6z"/>
	<path id="XMLID_3868_" class="st1" d="M33.1,32C33.1,32,33.1,32,33.1,32c-0.1,0.1-0.1,0.1-0.2,0.2l-3.3,1.9c0,0-0.1,0-0.1,0
		c0,0,0,0-0.1,0v1.3l7.1-4.1v-1.2L33.3,32C33.2,32,33.2,32,33.1,32z"/>
	<polygon id="XMLID_3867_" class="st1" points="29.7,31.1 29.7,33.4 30.9,32.8 30.9,30.4 	"/>
	<polygon id="XMLID_3866_" class="st1" points="33.4,29 33.4,31.3 34.5,30.6 34.5,28.3 	"/>
	<polygon id="XMLID_3865_" class="st1" points="33.4,20.3 38.8,17.2 37.2,17.5 24.2,24.9 25.9,24.7 	"/>
	<polygon id="XMLID_3864_" class="st1" points="35.2,28 35.2,30.3 36.2,29.7 36.2,27.4 	"/>
	<polygon id="XMLID_3863_" class="st1" points="26.2,33.9 27.2,34.5 27.2,30.1 26.2,29.5 	"/>
	<polygon id="XMLID_3862_" class="st1" points="24.7,33 25.3,33.4 25.6,33.5 25.6,29.1 24.7,28.6 	"/>
	<polygon id="XMLID_3861_" class="st1" points="31.5,30.1 31.5,32.4 32.5,31.8 32.5,29.5 	"/>
	<path id="XMLID_3860_" class="st1" d="M30.2,22.8L26.4,25l2.8,4.1l7.4-4.3c0,0,0.1,0,0.1,0c0,0,0.1,0,0.1,0l3.2,1.8l2.4-1.4l4-2.4
		l-6.3-5.9L30.2,22.8z"/>
	<path id="XMLID_3857_" class="st1" d="M40.3,27.2v5.7l5.4-3.1V24l-3,1.7L40.3,27.2z M44.8,25.8c0.1,0,0.1,0.1,0.1,0.2v2.9
		c0,0.1-0.1,0.2-0.1,0.2L41.5,31c0,0-0.1,0-0.1,0s-0.1,0-0.1,0c-0.1,0-0.1-0.1-0.1-0.2v-2.9c0-0.1,0.1-0.2,0.1-0.2l3.3-1.9
		C44.6,25.7,44.7,25.7,44.8,25.8z"/>
	<polygon id="XMLID_3856_" class="st1" points="42.8,27.4 41.6,28 41.6,30.4 42.8,29.7 	"/>
	<path id="XMLID_3853_" class="st1" d="M37,31.3l0.4,0.2v-3.8c0-0.1,0.1-0.2,0.1-0.2c0.1,0,0.2,0,0.3,0l1.4,0.8
		c0.1,0,0.1,0.1,0.1,0.2v4.1l0.4,0.2v-5.8L37,25.6L37,31.3z"/>
	<polygon id="XMLID_3852_" class="st1" points="38,31.9 38.9,32.4 38.9,28.8 38,28.3 	"/>
	<path id="XMLID_3851_" class="st1" d="M29.4,30.7l3.2-1.9c0.1,0,0.1,0,0.2,0c0-0.1,0.1-0.1,0.1-0.2l3.3-1.9c0.1,0,0.1,0,0.2,0v-1.1
		l-7.1,4.1V30.7z"/>
	<polygon id="XMLID_3848_" class="st1" points="44.4,26.4 43.4,27 43.4,29.3 44.4,28.8 	"/>
	<path id="XMLID_3803_" class="st0" d="M41.1,27.9v2.9c0,0.1,0.1,0.2,0.1,0.2c0,0,0.1,0,0.1,0s0.1,0,0.1,0l3.3-1.9
		c0.1,0,0.1-0.1,0.1-0.2V26c0-0.1-0.1-0.2-0.1-0.2c-0.1,0-0.2,0-0.3,0l-3.3,1.9C41.2,27.7,41.1,27.8,41.1,27.9z M43.4,27l1-0.6v2.3
		l-1,0.6V27z M41.6,28l1.1-0.7v2.3l-1.1,0.7V28z M47.2,23C47.1,22.9,47.1,22.9,47.2,23C47.1,22.9,47.1,22.9,47.2,23
		C47.1,22.9,47.1,22.9,47.2,23c-0.1-0.1-0.1-0.1-0.1-0.1l-6.7-6.3c0,0,0,0,0,0c0,0,0,0,0,0c0,0,0,0,0,0c0,0,0,0,0,0c0,0,0,0-0.1,0
		c0,0,0,0,0,0L37,17c0,0-0.1,0-0.1,0l-14.2,8.2c0,0,0,0-0.1,0c0,0,0,0,0,0c0,0-0.1,0.1-0.1,0.2l0,0v6.8c0,0.1,0.1,0.2,0.1,0.2
		l1.4,0.8c0,0,0,0,0,0l0.1,0.1l0,0l0.8,0.5l0.6,0.3c0,0,0,0,0,0l0.1,0.1h0l1.6,0.9l0,0l0.1,0.1c0,0,0,0,0,0l1.6,0.9c0,0,0.1,0,0.1,0
		c0,0,0.1,0,0.1,0l7.5-4.3l3.2,1.8c0,0,0.1,0,0.1,0s0.1,0,0.1,0l6-3.5c0.1,0,0.1-0.1,0.1-0.2v-6.3l0.7-0.4c0,0,0,0,0,0c0,0,0,0,0,0
		c0,0,0,0,0,0c0,0,0,0,0,0c0,0,0,0,0,0C47.2,23.1,47.2,23.1,47.2,23C47.2,23,47.2,23,47.2,23C47.2,23,47.2,23,47.2,23z M37.2,17.5
		l1.7-0.3l-5.4,3.1l-7.5,4.3l-1.7,0.3L37.2,17.5z M25.6,33.5l-0.2-0.1L24.7,33v-4.4l0.9,0.5V33.5z M27.2,34.5l-1-0.6v-4.4l1,0.6
		V34.5z M28.9,35.4l-1.1-0.7v-4.8c0-0.1-0.1-0.2-0.1-0.2l-1.7-1l0,0h0l-1.4-0.8c-0.1,0-0.2,0-0.3,0c-0.1,0-0.1,0.1-0.1,0.2v4.5
		l-1-0.6v-6.5l2.7-0.4l3,4.4V35.4z M36.5,31.3l-7.1,4.1v-1.3c0,0,0,0,0.1,0c0,0,0.1,0,0.1,0l3.3-1.9c0.1,0,0.1-0.1,0.1-0.2
		c0,0,0.1,0,0.1,0c0,0,0.1,0,0.1,0l3.2-1.9L36.5,31.3L36.5,31.3z M29.7,33.4v-2.3l1.1-0.7v2.3L29.7,33.4z M31.5,32.4v-2.3l1-0.6v2.3
		L31.5,32.4z M33.4,31.3V29l1.1-0.7v2.3L33.4,31.3z M35.2,30.3V28l1-0.6v2.3L35.2,30.3z M36.5,26.7c-0.1,0-0.1,0-0.2,0L33,28.6
		c-0.1,0-0.1,0.1-0.1,0.2c-0.1,0-0.2,0-0.2,0l-3.2,1.9v-1l7.1-4.1V26.7z M38.9,32.4L38,31.9v-3.6l0.9,0.5V32.4z M39.8,32.9l-0.4-0.2
		v-4.1c0-0.1,0-0.2-0.1-0.2l-1.4-0.8c-0.1,0-0.2,0-0.3,0c-0.1,0-0.1,0.1-0.1,0.2v3.8L37,31.3v-5.8l2.8,1.6V32.9z M45.8,29.8
		l-5.4,3.1v-5.7l2.4-1.4l3-1.7L45.8,29.8L45.8,29.8z M42.5,25.3l-2.4,1.4l-3.2-1.8c0,0-0.1,0-0.1,0s-0.1,0-0.1,0l-7.4,4.3L26.4,25
		l3.8-2.2l10-5.8l6.3,5.9L42.5,25.3z"/>
</g>
</svg>
