<?xml version="1.0" encoding="utf-8"?>
<!-- Generator: Adobe Illustrator 20.0.0, SVG Export Plug-In . SVG Version: 6.00 Build 0)  -->
<svg version="1.1" id="Layer_1" xmlns="http://www.w3.org/2000/svg" xmlns:xlink="http://www.w3.org/1999/xlink" x="0px" y="0px"
	 viewBox="0 0 195.9 136" style="enable-background:new 0 0 195.9 136;" xml:space="preserve">
<style type="text/css">
	.st0{fill:#9D9D9C;}
</style>
<g id="XMLID_895_">
	<g id="XMLID_723_">
		<path id="XMLID_1222_" class="st0" d="M174.8,108.5h-58c-0.6,0-1-0.4-1-1V96.2c-3,0.5-11.3,2.6-11.3,11.3c0,0.5-0.4,1-0.9,1
			c-0.5,0-1-0.3-1.1-0.9c-0.1-0.5-1.5-10.9-12-11.5v11.4c0,0.6-0.4,1-1,1H21.1c-0.6,0-1-0.4-1-1v-79c0-0.6,0.4-1,1-1h153.8
			c0.6,0,1,0.4,1,1v79C175.8,108.1,175.4,108.5,174.8,108.5z M117.8,106.5h56v-77H22.1v77h66.4V95.1c0-0.6,0.4-1,1-1
			c8.2,0,12,5.1,13.7,9c1-3,3.2-5.4,6.5-7c3.5-1.7,6.9-2,7-2c0.3,0,0.5,0.1,0.8,0.3c0.2,0.2,0.3,0.5,0.3,0.7V106.5z"/>
	</g>
	<g id="XMLID_722_">
		<path id="XMLID_1213_" class="st0" d="M73.8,108.5c-0.6,0-1-0.4-1-1v-8.6H42.9v8.6c0,0.6-0.4,1-1,1s-1-0.4-1-1v-9.6
			c0-0.6,0.4-1,1-1h31.9c0.6,0,1,0.4,1,1v9.6C74.8,108.1,74.4,108.5,73.8,108.5z"/>
	</g>
	<g id="XMLID_716_">
		<path id="XMLID_1138_" class="st0" d="M58.2,83.4c-9.5,0-17-4.1-17-9.3s7.5-9.3,17-9.3s17,4.1,17,9.3S67.7,83.4,58.2,83.4z
			 M58.2,66.9c-8.1,0-15,3.3-15,7.3c0,3.9,6.9,7.3,15,7.3s15-3.3,15-7.3C73.1,70.2,66.3,66.9,58.2,66.9z"/>
	</g>
	<g id="XMLID_713_">
		<path id="XMLID_1129_" class="st0" d="M84.4,61.3h-9.8c-0.6,0-1-0.4-1-1v-9.6l-30.4,0v9.6c0,0.6-0.4,1-1,1h-11c-0.6,0-1-0.4-1-1
			V39.1c0-0.6,0.4-1,1-1h53.2c0.6,0,1,0.4,1,1v21.2C85.4,60.9,85,61.3,84.4,61.3z M75.6,59.3h7.8V40.1H32.2v19.2h9v-9.6
			c0-0.6,0.4-1,1-1l32.4,0c0.3,0,0.5,0.1,0.7,0.3s0.3,0.4,0.3,0.7V59.3z"/>
	</g>
	<g id="XMLID_710_">
		<path id="XMLID_1121_" class="st0" d="M42.2,50.7c-0.6,0-1-0.4-1-1V39.1c0-0.6,0.4-1,1-1s1,0.4,1,1v10.6
			C43.2,50.3,42.7,50.7,42.2,50.7z"/>
	</g>
	<g id="XMLID_707_">
		<path id="XMLID_1120_" class="st0" d="M74.6,50.7c-0.6,0-1-0.4-1-1V39.1c0-0.6,0.4-1,1-1s1,0.4,1,1v10.6
			C75.6,50.3,75.1,50.7,74.6,50.7z"/>
	</g>
	<g id="XMLID_689_">
		<path id="XMLID_1088_" class="st0" d="M153.9,64.1h-21.4c-0.6,0-1-0.4-1-1v-16c0-0.6,0.4-1,1-1h21.4c0.6,0,1,0.4,1,1v16
			C154.9,63.6,154.5,64.1,153.9,64.1z M133.5,62.1h19.4v-14h-19.4V62.1z"/>
	</g>
	<g id="XMLID_676_">
		<rect id="XMLID_1235_" x="119.3" y="49.7" class="st0" width="5.3" height="10.7"/>
	</g>
	<g id="XMLID_675_">
		
			<rect id="XMLID_1218_" x="140.7" y="33.7" transform="matrix(4.463611e-11 1 -1 4.463611e-11 182.4062 -104.2401)" class="st0" width="5.3" height="10.7"/>
	</g>
	<g id="XMLID_674_">
		
			<rect id="XMLID_1206_" x="140.7" y="68.4" transform="matrix(4.463611e-11 1 -1 4.463611e-11 217.0565 -69.5897)" class="st0" width="5.3" height="10.7"/>
	</g>
	<g id="XMLID_673_">
		<rect id="XMLID_1204_" x="162" y="49.7" class="st0" width="5.3" height="10.7"/>
	</g>
	<g id="XMLID_671_">
		<path id="XMLID_1083_" class="st0" d="M130,108.5c-0.6,0-1-0.4-1-1V86.9c0-0.6,0.4-1,1-1h44.8c0.6,0,1,0.4,1,1s-0.4,1-1,1H131
			v19.6C131,108.1,130.5,108.5,130,108.5z"/>
	</g>
	<g id="XMLID_668_">
		<path id="XMLID_1012_" class="st0" d="M161.9,108.5c-0.6,0-1-0.4-1-1V86.9c0-0.6,0.4-1,1-1s1,0.4,1,1v20.6
			C162.9,108.1,162.5,108.5,161.9,108.5z"/>
	</g>
	<g id="XMLID_667_">
		<rect id="XMLID_1151_" x="148.7" y="95.1" class="st0" width="5.3" height="5.3"/>
	</g>
	<g id="XMLID_656_">
		<rect id="XMLID_1089_" x="138" y="95.1" class="st0" width="5.3" height="5.3"/>
	</g>
</g>
</svg>
