<?xml version="1.0" encoding="utf-8"?>
<!-- Generator: Adobe Illustrator 20.0.0, SVG Export Plug-In . SVG Version: 6.00 Build 0)  -->
<svg version="1.1" id="Layer_1" xmlns="http://www.w3.org/2000/svg" xmlns:xlink="http://www.w3.org/1999/xlink" x="0px" y="0px"
	 viewBox="0 0 195.9 136" style="enable-background:new 0 0 195.9 136;" xml:space="preserve">
<style type="text/css">
	.st0{fill:#9D9D9C;}
</style>
<g id="XMLID_726_">
	<g id="XMLID_609_">
		<path id="XMLID_874_" class="st0" d="M87.4,114H53.3c-0.6,0-1-0.4-1-1V81.2c0-0.6,0.4-1,1-1s1,0.4,1,1V112h32.2V24H54.1v49.9h26
			c0.6,0,1,0.4,1,1s-0.4,1-1,1h-27c-0.6,0-1-0.4-1-1V23c0-0.6,0.4-1,1-1h34.3c0.6,0,1,0.4,1,1v90C88.4,113.6,88,114,87.4,114z"/>
	</g>
	<g id="XMLID_605_">
		<path id="XMLID_872_" class="st0" d="M80.1,63h-27c-0.6,0-1-0.4-1-1s0.4-1,1-1h27c0.6,0,1,0.4,1,1S80.7,63,80.1,63z"/>
	</g>
	<g id="XMLID_602_">
		<path id="XMLID_871_" class="st0" d="M104.7,114c-0.6,0-1-0.4-1-1V86c0-0.6,0.4-1,1-1s1,0.4,1,1v27
			C105.7,113.6,105.2,114,104.7,114z"/>
	</g>
	<g id="XMLID_598_">
		<path id="XMLID_870_" class="st0" d="M117.4,114c-0.6,0-1-0.4-1-1V86c0-0.6,0.4-1,1-1s1,0.4,1,1v27C118.4,113.6,118,114,117.4,114
			z"/>
	</g>
	<g id="XMLID_593_">
		<path id="XMLID_868_" class="st0" d="M130.2,114c-0.6,0-1-0.4-1-1V86c0-0.6,0.4-1,1-1s1,0.4,1,1v27
			C131.2,113.6,130.7,114,130.2,114z"/>
	</g>
	<g id="XMLID_590_">
		<path id="XMLID_866_" class="st0" d="M80.1,50h-27c-0.6,0-1-0.4-1-1s0.4-1,1-1h27c0.6,0,1,0.4,1,1S80.7,50,80.1,50z"/>
	</g>
	<g id="XMLID_584_">
		<path id="XMLID_862_" class="st0" d="M80.1,37.2h-27c-0.6,0-1-0.4-1-1s0.4-1,1-1h27c0.6,0,1,0.4,1,1S80.7,37.2,80.1,37.2z"/>
	</g>
	<g id="XMLID_529_">
		<path id="XMLID_858_" class="st0" d="M70.4,101.9c-3.1,0-5.7-2.5-5.7-5.7s2.5-5.7,5.7-5.7s5.7,2.5,5.7,5.7S73.5,101.9,70.4,101.9z
			 M70.4,92.6c-2,0-3.7,1.6-3.7,3.7c0,2,1.6,3.7,3.7,3.7s3.7-1.6,3.7-3.7C74,94.2,72.4,92.6,70.4,92.6z"/>
	</g>
	<g id="XMLID_514_">
		<path id="XMLID_854_" class="st0" d="M142.8,114H94c-0.6,0-1-0.4-1-1s0.4-1,1-1h47.8V80.1H94c-0.6,0-1-0.4-1-1s0.4-1,1-1h48.8
			c0.6,0,1,0.4,1,1V113C143.8,113.6,143.3,114,142.8,114z"/>
	</g>
	<g id="XMLID_511_">
		<path id="XMLID_851_" class="st0" d="M114.8,73c-0.3,0-0.5-0.1-0.7-0.3l-17-17c-0.4-0.4-0.4-1,0-1.4c0.4-0.4,1-0.4,1.4,0l17,17
			c0.4,0.4,0.4,1,0,1.4C115.3,72.9,115,73,114.8,73z"/>
	</g>
	<g id="XMLID_499_">
		<path id="XMLID_850_" class="st0" d="M126.4,65.5c-0.3,0-0.5-0.1-0.7-0.3l-19.1-19.1c-0.4-0.4-0.4-1,0-1.4s1-0.4,1.4,0l19.1,19.1
			c0.4,0.4,0.4,1,0,1.4C126.9,65.4,126.6,65.5,126.4,65.5z"/>
	</g>
	<g id="XMLID_493_">
		<path id="XMLID_848_" class="st0" d="M119.2,72.4c-0.3,0-0.5-0.1-0.7-0.3c-0.4-0.4-0.4-1,0-1.4l16-16l-22.6-22.6L95.6,48.4
			c-0.4,0.4-1,0.4-1.4,0s-0.4-1,0-1.4L111.2,30c0.4-0.4,1-0.4,1.4,0l24,24c0.4,0.4,0.4,1,0,1.4l-16.7,16.7
			C119.7,72.3,119.4,72.4,119.2,72.4z"/>
	</g>
</g>
</svg>
