<?xml version="1.0" encoding="utf-8"?>
<!-- Generator: Adobe Illustrator 20.0.0, SVG Export Plug-In . SVG Version: 6.00 Build 0)  -->
<svg version="1.1" id="Layer_1" xmlns="http://www.w3.org/2000/svg" xmlns:xlink="http://www.w3.org/1999/xlink" x="0px" y="0px"
	 viewBox="0 0 195.9 136" style="enable-background:new 0 0 195.9 136;" xml:space="preserve">
<style type="text/css">
	.st0{fill:#9D9D9C;}
</style>
<g id="XMLID_350_">
	<g id="XMLID_492_">
		<path id="XMLID_839_" class="st0" d="M194.9,136H1c-0.6,0-1-0.4-1-1s0.4-1,1-1h193.9c0.6,0,1,0.4,1,1S195.4,136,194.9,136z"/>
	</g>
	<g id="XMLID_486_">
		<path id="XMLID_838_" class="st0" d="M163.8,136c-0.6,0-1-0.4-1-1V24.5c0-0.6,0.4-1,1-1s1,0.4,1,1V135
			C164.8,135.6,164.4,136,163.8,136z"/>
	</g>
	<g id="XMLID_485_">
		<path id="XMLID_835_" class="st0" d="M181.8,25.5H146c-0.3,0-0.6-0.1-0.8-0.4c-0.2-0.2-0.3-0.6-0.2-0.9l6-23.5
			c0.1-0.4,0.5-0.8,1-0.8h23.9c0.5,0,0.9,0.3,1,0.8l6,23.5c0.1,0.3,0,0.6-0.2,0.9C182.4,25.4,182.1,25.5,181.8,25.5z M147.3,23.5
			h33.2L175,2h-22.3L147.3,23.5z"/>
	</g>
	<g id="XMLID_480_">
		<path id="XMLID_815_" class="st0" d="M146.1,124H30c-0.6,0-1-0.4-1-1V88.1c0-0.6,0.4-1,1-1h10.1L40,71.2c0-0.3,0.1-0.5,0.3-0.7
			c0.2-0.2,0.4-0.3,0.7-0.3h43c1.7,0,3,1,3.9,1.9c1-1.2,2.9-1.7,4.1-1.9c0,0,0.1,0,0.1,0h42.5c0.6,0,1,0.4,1,1v15.9h10.5
			c0.6,0,1,0.4,1,1V123C147.1,123.6,146.6,124,146.1,124z M31,122h114.1V89.1h-10.5c-0.6,0-1-0.4-1-1V72.2H92.1
			c-0.8,0.1-3.1,0.7-3.1,1.9c0,0.5-0.3,0.9-0.8,1c-0.5,0.1-0.9-0.1-1.1-0.5c0,0-1.2-2.3-3.2-2.3H42l0.1,15.9c0,0.3-0.1,0.5-0.3,0.7
			c-0.2,0.2-0.4,0.3-0.7,0.3H31V122z"/>
	</g>
	<g id="XMLID_478_">
		<path id="XMLID_798_" class="st0" d="M88,113H41.1c-0.6,0-1-0.4-1-1V99.6c0-0.6,0.4-1,1-1H88c0.6,0,1,0.4,1,1V112
			C89,112.6,88.6,113,88,113z M42.1,111H87v-10.4H42.1V111z"/>
	</g>
	<g id="XMLID_434_">
		<path id="XMLID_778_" class="st0" d="M134.7,113H88c-0.6,0-1-0.4-1-1V99.6c0-0.6,0.4-1,1-1h46.7c0.6,0,1,0.4,1,1V112
			C135.7,112.6,135.2,113,134.7,113z M89,111h44.7v-10.4H89V111z"/>
	</g>
	<g id="XMLID_429_">
		<path id="XMLID_777_" class="st0" d="M134.6,100.6c-0.6,0-1-0.4-1-1V88.1c0-0.6,0.4-1,1-1s1,0.4,1,1v11.5
			C135.6,100.2,135.1,100.6,134.6,100.6z"/>
	</g>
	<g id="XMLID_410_">
		<path id="XMLID_776_" class="st0" d="M41.1,100.6c-0.6,0-1-0.4-1-1V88.1c0-0.6,0.4-1,1-1s1,0.4,1,1v11.5
			C42.1,100.2,41.6,100.6,41.1,100.6z"/>
	</g>
	<g id="XMLID_407_">
		<path id="XMLID_758_" class="st0" d="M88,100.6c-0.6,0-1-0.4-1-1V74.1c0-0.6,0.4-1,1-1s1,0.4,1,1v25.5
			C89,100.2,88.6,100.6,88,100.6z"/>
	</g>
	<g id="XMLID_403_">
		<path id="XMLID_744_" class="st0" d="M35.5,136c-0.6,0-1-0.4-1-1v-12c0-0.6,0.4-1,1-1s1,0.4,1,1v12C36.5,135.6,36,136,35.5,136z"
			/>
	</g>
	<g id="XMLID_402_">
		<path id="XMLID_742_" class="st0" d="M140.6,136c-0.6,0-1-0.4-1-1v-12c0-0.6,0.4-1,1-1s1,0.4,1,1v12
			C141.6,135.6,141.1,136,140.6,136z"/>
	</g>
</g>
</svg>
