<?xml version="1.0" encoding="utf-8"?>
<!-- Generator: Adobe Illustrator 20.0.0, SVG Export Plug-In . SVG Version: 6.00 Build 0)  -->
<svg version="1.1" id="Layer_1" xmlns="http://www.w3.org/2000/svg" xmlns:xlink="http://www.w3.org/1999/xlink" x="0px" y="0px"
	 viewBox="0 0 20.8 20.8" style="enable-background:new 0 0 20.8 20.8;" xml:space="preserve">
<style type="text/css">
	.st0{fill-rule:evenodd;clip-rule:evenodd;fill:#7E7E7E;}
</style>
<g>
	<g>
		<path class="st0" d="M14.6,7H6.2c1.1,0.7,2.5,1.5,4.2,2.6C12.3,8.4,13.7,7.6,14.6,7z"/>
		<path class="st0" d="M10.8,11.2c-0.1,0-0.1,0.1-0.2,0.1c0,0,0,0,0,0c-0.1,0-0.1,0-0.2,0c0,0,0,0,0,0h0c-0.1,0-0.1,0-0.2,0
			c0,0,0,0,0,0c-0.1,0-0.1,0-0.2-0.1c0,0,0,0,0,0C7.4,9.5,5.1,8.1,4,7.4V14c0,0.1,0.1,0.1,0.1,0.1h12.7c0.1,0,0.1-0.1,0.1-0.1V7.4
			C15.8,8.1,13.5,9.5,10.8,11.2C10.8,11.2,10.8,11.2,10.8,11.2z"/>
		<path class="st0" d="M10.4,0C4.7,0,0,4.7,0,10.4c0,5.8,4.7,10.4,10.4,10.4c5.8,0,10.4-4.7,10.4-10.4C20.8,4.7,16.2,0,10.4,0z
			 M16.8,15.7H4.1c-0.9,0-1.7-0.8-1.7-1.7V7.1c0-0.5,0.2-0.9,0.6-1.2c0.1-0.2,0.3-0.3,0.4-0.3c0.2-0.1,0.4-0.1,0.7-0.1h12.7
			c0.2,0,0.5,0.1,0.7,0.1c0.1,0,0.1,0,0.2,0.1c0.1,0.1,0.2,0.1,0.3,0.2c0.3,0.3,0.5,0.7,0.5,1.2V14C18.4,14.9,17.7,15.7,16.8,15.7z"
			/>
	</g>
</g>
</svg>
