<?xml version="1.0" encoding="utf-8"?>
<!-- Generator: Adobe Illustrator 20.0.0, SVG Export Plug-In . SVG Version: 6.00 Build 0)  -->
<svg version="1.1" id="Layer_1" xmlns="http://www.w3.org/2000/svg" xmlns:xlink="http://www.w3.org/1999/xlink" x="0px" y="0px"
	 viewBox="0 0 480 480" style="enable-background:new 0 0 480 480;" xml:space="preserve">
<style type="text/css">
	.st0{fill-rule:evenodd;clip-rule:evenodd;fill:#FFFFFF;}
</style>
<g>
	<path class="st0" d="M248.9,331.5c-23.7,2.4-45.2-4-63.3-19.5c-24.2-20.8-33.4-47.9-29.6-78.9c-9.7,0-20.1,0-29.1,0
		c0,1,0,1.3,0,2.1c0,38.6,0,77.1,0,115.7c0,0.5-0.2,1.1-0.1,1.6c0.2,5.1,2.5,7.4,7.6,7.6c0.6,0,1.2,0,1.8,0c69.4,0,138.7,0,208.1,0
		c1.3,0,2.6-0.1,3.9-0.3c3.3-0.6,4.7-2,5.3-5.2c0.2-1.1,0.3-2.3,0.3-3.5c0-38.6,0-77.3,0-115.9c0-0.8,0-1.1,0-2.1
		c-10,0-19.7,0-29.6,0C332.3,283,295.9,326.8,248.9,331.5z"/>
	<path class="st0" d="M240.5,303.2c31.3-0.2,56.7-25.7,56.6-56.8c-0.1-31.2-25.6-56.7-56.8-56.7c-31.2,0-56.7,25.5-56.8,56.7
		C183.5,277.6,209.3,303.3,240.5,303.2z"/>
	<path class="st0" d="M240.3-0.8C107.6-0.8-0.1,106.8-0.1,239.6S107.6,480,240.3,480s240.4-107.6,240.4-240.4S373.1-0.8,240.3-0.8z
		 M353.1,388.4c-75.2,0-150.4,0-225.6,0c-16.6,0-29.2-12.6-29.2-29.1c0-37.6,0-75.3,0-112.9c0-37.6,0-75.1,0-112.7
		c0-16.9,12.5-29.4,29.4-29.4c75.1,0,150.2,0,225.3,0c16.7,0,29.3,12.5,29.3,29.2c0,75.2,0,150.4,0,225.6
		C382.4,375.9,369.8,388.4,353.1,388.4z"/>
	<path class="st0" d="M346.4,132.8c-9.1-0.1-18.3-0.1-27.5,0c-3,0-5.8,0.8-6.9,4c-0.5,1.3-0.6,2.7-0.6,4.1c-0.1,8.8,0,17.5,0,26.3
		c0,1,0.1,2,0.3,3c0.5,2.6,2.1,4.6,4.8,4.7c10.8,0.2,21.5,0.2,32.3,0c2.7-0.1,4.6-2.1,4.7-4.9c0.2-5.3,0.1-10.7,0.1-16
		c0.1,0,0.2,0,0.4,0c0-4.5,0.1-9,0-13.5C353.8,135.3,351.6,132.9,346.4,132.8z"/>
</g>
</svg>
