<?xml version="1.0" encoding="utf-8"?>
<!-- Generator: Adobe Illustrator 20.0.0, SVG Export Plug-In . SVG Version: 6.00 Build 0)  -->
<svg version="1.1" id="Layer_1" xmlns="http://www.w3.org/2000/svg" xmlns:xlink="http://www.w3.org/1999/xlink" x="0px" y="0px"
	 viewBox="0 0 480 480" style="enable-background:new 0 0 480 480;" xml:space="preserve">
<style type="text/css">
	.st0{fill-rule:evenodd;clip-rule:evenodd;fill:#FFFFFF;}
</style>
<path class="st0" d="M240,0C107.5,0,0,107.5,0,240s107.5,240,240,240s240-107.5,240-240S372.5,0,240,0z M313,132c-2,0-3.1,0-4.3,0
	c-9.9,0-19.8,0-29.7,0.3c-13.6,0.5-23.6,5.8-24.1,22.7c-0.3,12.4-0.5,40.9-0.5,40.9s31.9,0.1,45.7,0c3.5,0,7-0.4,11-0.4
	c-2.6,19.7-5,38.4-7.5,57.4H255v145h-60V253h-48v-58h48v-3.3c0-11.6-0.1-23.1,0.2-34.7c0.2-7.4,0.6-14.8,1.9-22.1
	c3.1-17.5,11.2-32.4,25.9-43c12.8-9.2,27.5-13,43-13.3c10.2-0.2,20.5,0.3,30.6,0.7c5.5,0.3,10.5,1,16.5,1.6V132z"/>
</svg>
