<?xml version="1.0" encoding="utf-8"?>
<!-- Generator: Adobe Illustrator 20.0.0, SVG Export Plug-In . SVG Version: 6.00 Build 0)  -->
<svg version="1.1" id="Layer_1" xmlns="http://www.w3.org/2000/svg" xmlns:xlink="http://www.w3.org/1999/xlink" x="0px" y="0px"
	 viewBox="0 0 480 480" style="enable-background:new 0 0 480 480;" xml:space="preserve">
<style type="text/css">
	.st0{fill-rule:evenodd;clip-rule:evenodd;fill:#FFFFFF;}
</style>
<g>
	<path class="st0" d="M249.7,258.1c-1.2,0.7-2.4,1.3-3.7,1.7c-0.3,0.1-0.5,0.2-0.8,0.3c-1.6,0.4-3.2,0.7-4.9,0.7c0,0,0,0,0,0l0,0
		c-1.7,0-3.3-0.3-4.9-0.7c-0.3-0.1-0.5-0.2-0.7-0.3c-1.3-0.4-2.6-1-3.8-1.7c-0.1-0.1-0.7-0.1-0.8-0.1
		C170.3,219.6,117,186.1,91,170.8v151.4c0,1.5,2.2,2.7,3.7,2.7H386c1.5,0,3-1.2,3-2.7V170.7c-25,14.9-78.5,48.6-139,87.3
		C250,258,249.7,258.1,249.7,258.1z"/>
	<path class="st0" d="M336.7,160H144c24.4,16,56.6,35.4,96.3,60.9C283.8,193.1,314.7,174,336.7,160z"/>
	<path class="st0" d="M240.4,0.3C108,0.3,0.7,107.6,0.7,239.9S108,479.6,240.4,479.6S480,372.3,480,239.9S372.7,0.3,240.4,0.3z
		 M386,361H94.7C73.5,361,56,343.5,56,322.3V163.6c0-11.3,5.1-21.3,12.8-28.4c2.5-3.5,6.2-5.9,10.4-6.9c4.7-2.1,10-3.4,15.5-3.4H386
		c5.6,0,10.8,1.3,15.6,3.5c1.5,0.4,3,0.7,4.4,1.4c2.4,1.3,4.6,3.3,6.1,5.4c7.7,7,12.9,17.1,12.9,28.3v158.6
		C425,343.5,407.2,361,386,361z"/>
</g>
</svg>
