<?xml version="1.0" encoding="utf-8"?>
<!-- Generator: Adobe Illustrator 20.0.0, SVG Export Plug-In . SVG Version: 6.00 Build 0)  -->
<svg version="1.1" id="Layer_1" xmlns="http://www.w3.org/2000/svg" xmlns:xlink="http://www.w3.org/1999/xlink" x="0px" y="0px"
	 viewBox="0 0 50.2 30" style="enable-background:new 0 0 50.2 30;" xml:space="preserve">
<style type="text/css">
	.st0{fill:#7E7E7E;}
</style>
<g id="XMLID_134_">
	<g id="XMLID_4964_">
		<path id="XMLID_4993_" class="st0" d="M49.7,30H0.5C0.2,30,0,29.8,0,29.5v-29C0,0.2,0.2,0,0.5,0h49.2c0.3,0,0.5,0.2,0.5,0.5v29
			C50.2,29.8,50,30,49.7,30z M1,29h48.3V1H1V29z"/>
	</g>
	<path id="XMLID_4956_" class="st0" d="M24.9,3.2c-9.4,0-17.1,5-17.1,11.2c0,0.2,0,0.6,0,0.7c0,6.5,6.7,11.8,17.1,11.8
		C35.4,26.8,42,21.5,42,15c0-0.2,0-0.4,0-0.7C42,8.2,34.3,3.2,24.9,3.2z M41.2,13.1c-3.7,0.8-6.5,2-7.2,2.3
		c-1.6-1.4-5.4-4.7-6.4-5.4c-0.6-0.4-1-0.7-1.3-0.8c-0.2,0-0.4-0.1-0.7-0.1c-0.3,0-0.5,0-0.8,0.1c-0.7,0.2-1.3,0.7-1.9,1.2l0,0
		c-0.6,0.5-1.2,1-1.7,1.1c-0.2,0-0.4,0.1-0.6,0.1c-0.5,0-1-0.1-1.2-0.4c0,0,0-0.1,0.1-0.2l0,0L21,9.6c1.1-1.1,2.2-2.2,4.6-2.2
		c0,0,0.1,0,0.1,0c1.5,0,3,0.7,3.2,0.8c1.4,0.7,2.9,1,4.4,1c1.5,0,3.1-0.4,4.8-1.1C39.7,9.4,40.9,11.2,41.2,13.1z M24.9,3.8
		c5,0,9.5,1.4,12.5,3.7c-1.5,0.6-2.8,0.9-4.2,0.9c-1.4,0-2.7-0.3-4.1-1c-0.1,0-1.7-0.8-3.5-0.8c0,0-0.1,0-0.1,0c-2,0-3.2,0.8-4,1.4
		c-0.8,0-1.4,0.2-2,0.4c-0.5,0.1-1,0.3-1.4,0.3c-0.2,0-0.5,0-0.5,0c-0.5,0-3-0.6-5-1.4C15.7,5.2,20.1,3.8,24.9,3.8z M12.1,7.8
		c2.1,0.9,4.6,1.5,5.4,1.6c0.2,0,0.5,0,0.7,0c0.5,0,1.1-0.1,1.6-0.3c0.3-0.1,0.6-0.2,1-0.2c-0.1,0.1-0.2,0.2-0.3,0.3L19,10.7
		c-0.1,0.1-0.4,0.4-0.2,0.8c0.1,0.2,0.2,0.3,0.4,0.4c0.3,0.2,1,0.4,1.5,0.4c0.2,0,0.4,0,0.6-0.1c0.6-0.1,1.2-0.6,1.9-1.2
		c0.5-0.4,1.3-1,1.9-1.1c0.2,0,0.4-0.1,0.5-0.1c0,0,0.1,0,0.1,0c0.4,0,0.8,0.2,1.4,0.7c1.2,0.9,6.5,5.5,6.5,5.5c0,0,0.3,0.3,0.3,0.8
		c0,0.3-0.2,0.5-0.4,0.7c-0.2,0.1-0.5,0.2-0.7,0.2c-0.4,0-0.6-0.2-0.6-0.2c0,0-1.8-1.7-2.5-2.2c-0.1-0.1-0.2-0.2-0.3-0.2
		c-0.1,0-0.1,0-0.1,0.1c-0.1,0.1,0,0.3,0.2,0.4l2.1,2.1c0,0,0.3,0.2,0.3,0.6c0,0.4-0.2,0.6-0.5,0.9c-0.2,0.2-0.5,0.2-0.7,0.2
		c-0.3,0-0.6-0.1-0.6-0.2L29.8,19c-0.6-0.5-1.1-1.1-1.5-1.5c-0.1-0.1-0.2-0.2-0.3-0.2c-0.1,0-0.1,0-0.1,0.1c0,0.1-0.1,0.1,0,0.3
		c0,0.1,0.1,0.1,0.1,0.1l1.5,1.7c0,0,0.3,0.4,0,0.7l-0.1,0.1c0,0.1-0.1,0.1-0.1,0.1c-0.3,0.2-0.6,0.2-0.8,0.2c-0.1,0-0.1,0-0.2,0
		c-0.2,0-0.3-0.1-0.3-0.1l0,0c-0.1-0.1-0.9-0.9-1.5-1.4c-0.1-0.1-0.2-0.2-0.3-0.2c-0.1,0-0.1,0-0.1,0.1c-0.1,0.1,0.1,0.3,0.1,0.4
		l1.3,1.4c0,0,0,0,0,0.1c0,0.1-0.2,0.2-0.7,0.3c-0.1,0-0.1,0-0.2,0c-0.5,0-1-0.2-1.3-0.4c0.1-0.3,0.2-0.5,0.2-0.8c0-1.1-0.9-2-2-2
		c0,0,0,0-0.1,0c0-0.5,0-1.4-1-1.8c-0.3-0.1-0.6-0.2-0.8-0.2c-0.2,0-0.4,0-0.6,0.1c-0.2-0.4-0.5-0.7-1-0.8c-0.2-0.1-0.5-0.1-0.7-0.1
		c-0.4,0-0.8,0.1-1.1,0.4c-0.3-0.4-0.8-0.6-1.3-0.6c-0.4,0-0.9,0.2-1.2,0.5c-0.4-0.3-2-1.3-6.4-2.3c-0.2,0-0.7-0.2-1-0.3
		C9,11,10.3,9.2,12.1,7.8z M20.1,19L20.1,19L20.1,19c-0.1,0-0.2,0-0.2,0c-0.2,0.2-0.4,0.2-0.6,0.2c-0.1,0-0.2,0-0.4-0.1
		c-1-0.4-0.9-1.3-0.9-1.6c0-0.1,0-0.1,0-0.1l-0.1-0.1l-0.1,0.1c-0.2,0.2-0.5,0.3-0.7,0.3c-0.6,0-1-0.5-1-1c0-0.6,0.5-1,1-1
		c0.5,0,1,0.4,1,0.9l0,0.3l0.2-0.2c0,0,0.4-0.7,1.2-0.7c0.1,0,0.3,0,0.5,0.1c0.6,0.2,0.7,0.7,0.7,1c0,0.1,0.1,0.1,0.1,0.1
		c0.1,0,0.1,0,0.1-0.1c0.1-0.1,0.4-0.3,0.8-0.3c0.2,0,0.4,0,0.6,0.1c1,0.4,0.5,1.7,0.5,1.7c-0.1,0.2-0.1,0.3,0,0.4l0,0h0
		c0,0,0.1,0,0.2-0.1c0.1,0,0.3-0.1,0.5-0.1h0c0.7,0,1.3,0.6,1.3,1.3c0,0.7-0.6,1.3-1.3,1.3c-0.7,0-1.3-0.6-1.3-1.3
		c0-0.1,0-0.2-0.1-0.2c-0.1,0-0.1,0-0.2,0.1c-0.2,0.1-0.4,0.3-0.7,0.3c-0.1,0-0.3,0-0.4-0.1c-0.8-0.3-0.8-0.8-0.7-1
		C20.2,19.1,20.2,19.1,20.1,19z M24.9,24.9c-9.1,0-16.4-4.7-16.4-10.5c0-0.2,0-0.5,0-0.7c0.1,0,0.8,0.2,0.9,0.2c4.4,1,5.9,2,6.1,2.2
		c-0.1,0.2-0.1,0.4-0.1,0.6c0,0.9,0.7,1.7,1.7,1.7c0.1,0,0.2,0,0.3,0c0.1,0.7,0.6,1.2,1.3,1.4c0.2,0.1,0.4,0.1,0.6,0.1
		c0.1,0,0.3,0,0.4,0c0.1,0.3,0.4,0.7,1,1c0.2,0.1,0.4,0.1,0.7,0.1c0.2,0,0.3,0,0.5-0.1c0.3,0.7,1,1.2,1.8,1.2c0.5,0,1-0.2,1.4-0.6
		c0.3,0.2,1,0.5,1.7,0.5c0.1,0,0.2,0,0.3,0c0.7-0.1,1-0.3,1.1-0.6c0,0,0-0.1,0.1-0.1c0.2,0,0.3,0.1,0.5,0.1c0.4,0,0.7-0.1,1.1-0.4
		c0.3-0.3,0.6-0.6,0.6-0.9c0,0,0,0,0,0c0.1,0,0.2,0,0.4,0c0.4,0,0.7-0.1,1.1-0.3c0.7-0.4,0.8-1,0.8-1.4c0.1,0,0.2,0,0.4,0
		c0.4,0,0.7-0.1,1-0.3c0.4-0.3,0.7-0.7,0.7-1.2c0-0.3-0.1-0.7-0.2-0.9c1.1-0.5,3.7-1.4,6.8-2.1c0,0.2,0,0.3,0,0.5
		C41.4,20.2,34,24.9,24.9,24.9z"/>
</g>
</svg>
