<?xml version="1.0" encoding="utf-8"?>
<!-- Generator: Adobe Illustrator 20.0.0, SVG Export Plug-In . SVG Version: 6.00 Build 0)  -->
<svg version="1.1" id="Layer_1" xmlns="http://www.w3.org/2000/svg" xmlns:xlink="http://www.w3.org/1999/xlink" x="0px" y="0px"
	 viewBox="0 0 20.8 20.8" style="enable-background:new 0 0 20.8 20.8;" xml:space="preserve">
<style type="text/css">
	.st0{fill:#7E7E7E;}
</style>
<path class="st0" d="M10.4,0C4.7,0,0,4.7,0,10.4c0,5.8,4.7,10.4,10.4,10.4s10.4-4.7,10.4-10.4C20.9,4.7,16.2,0,10.4,0z M6.1,4.4
	c0.2-0.2,0.6-0.2,0.8,0l1.8,1.8c0.2,0.2,0.2,0.6,0,0.8L8.1,7.5L5.5,4.9L6.1,4.4z M15.4,15.9c-1.4,1.4-4,0.9-5.9-1L6,11.4
	C4.1,9.5,3.6,6.8,5,5.4c0,0,0,0,0.1,0L7.6,8L7.3,8.3C7,8.7,7.1,9.3,7.5,9.7l3.7,3.7c0.4,0.4,1.1,0.5,1.4,0.2l0.3-0.3L15.4,15.9
	C15.4,15.8,15.4,15.9,15.4,15.9z M16.5,14.8L16,15.3l-2.6-2.6l0.5-0.5c0.2-0.2,0.6-0.2,0.8,0l1.8,1.8C16.7,14.2,16.7,14.6,16.5,14.8
	z"/>
</svg>
