<?xml version="1.0" encoding="utf-8"?>
<!-- Generator: Adobe Illustrator 20.0.0, SVG Export Plug-In . SVG Version: 6.00 Build 0)  -->
<svg version="1.1" id="Layer_1" xmlns="http://www.w3.org/2000/svg" xmlns:xlink="http://www.w3.org/1999/xlink" x="0px" y="0px"
	 viewBox="0 0 60.7 30" style="enable-background:new 0 0 60.7 30;" xml:space="preserve">
<style type="text/css">
	.st0{fill:#7E7E7E;}
</style>
<g id="XMLID_4997_">
	<g>
		<g id="XMLID_100_">
			<path class="st0" d="M49.7,5c5.5,0,10,4.5,10,10s-4.5,10-10,10s-10-4.5-10-10S44.2,5,49.7,5 M49.7,4c-6.1,0-11,4.9-11,11
				c0,6.1,4.9,11,11,11s11-4.9,11-11C60.7,8.9,55.8,4,49.7,4L49.7,4z"/>
		</g>
		<g id="XMLID_96_">
			<path class="st0" d="M28.6,17.2c0,0.8-0.3,1.5-0.9,2c-0.6,0.5-1.5,0.9-2.5,1v2.1H24v-2c-0.7,0-1.3-0.1-1.9-0.2
				c-0.6-0.1-1.1-0.2-1.5-0.4v-1.4c0.5,0.2,1.1,0.4,1.7,0.5C22.8,19,23.4,19,24,19v-3.9c-1.2-0.4-2.1-0.8-2.6-1.3
				c-0.5-0.5-0.7-1.2-0.7-2c0-0.8,0.3-1.4,0.9-1.9C22.2,9.4,23,9.1,24,9V7.4h1.1V9c1.1,0,2.1,0.2,3.2,0.7l-0.5,1.2
				c-0.9-0.4-1.8-0.6-2.7-0.6V14c0.9,0.3,1.6,0.6,2.1,0.9c0.5,0.3,0.8,0.6,1,1C28.4,16.2,28.6,16.7,28.6,17.2z M22.2,11.8
				c0,0.5,0.1,0.8,0.4,1.1c0.3,0.3,0.7,0.5,1.4,0.8v-3.4c-0.6,0.1-1,0.3-1.3,0.6C22.3,11,22.2,11.4,22.2,11.8z M27,17.3
				c0-0.4-0.1-0.8-0.4-1s-0.8-0.5-1.5-0.8v3.5C26.4,18.8,27,18.2,27,17.3z"/>
		</g>
		<g id="XMLID_92_">
			<g id="XMLID_95_">
				<rect x="43.6" y="14.3" class="st0" width="10.8" height="1.5"/>
			</g>
			<g id="XMLID_93_">
				<g id="XMLID_94_">
					<polygon class="st0" points="49.5,9 48.5,10.1 53.8,15 48.5,19.9 49.5,21 55.9,15 					"/>
				</g>
			</g>
		</g>
		<g id="XMLID_91_">
			<path class="st0" d="M49.7,26.9c-0.2,0-0.3,0-0.5,0V29H1V1h48.3v2.2c0.2,0,0.3,0,0.5,0s0.3,0,0.5,0V0.5C50.2,0.2,50,0,49.7,0H0.5
				C0.2,0,0,0.2,0,0.5v29C0,29.8,0.2,30,0.5,30h49.2c0.3,0,0.5-0.2,0.5-0.5v-2.7C50.1,26.9,49.9,26.9,49.7,26.9z"/>
		</g>
	</g>
</g>
</svg>
