<?xml version="1.0" encoding="utf-8"?>
<!-- Generator: Adobe Illustrator 20.0.0, SVG Export Plug-In . SVG Version: 6.00 Build 0)  -->
<svg version="1.1" id="Layer_1" xmlns="http://www.w3.org/2000/svg" xmlns:xlink="http://www.w3.org/1999/xlink" x="0px" y="0px"
	 viewBox="0 0 29 29" style="enable-background:new 0 0 29 29;" xml:space="preserve">
<style type="text/css">
	.st0{fill:#F0DA0B;}
</style>
<path id="XMLID_5047_" class="st0" d="M14.5,0C6.5,0,0,6.5,0,14.5S6.5,29,14.5,29S29,22.5,29,14.5S22.5,0,14.5,0z M19.4,8
	c-0.1,0-0.2,0-0.2,0c-0.6,0-1.2,0-1.8,0c-0.8,0-1.4,0.3-1.5,1.4c0,0.7,0,2.5,0,2.5s1.9,0,2.8,0c0.2,0,0.4,0,0.7,0
	c-0.2,1.2-0.3,2.3-0.5,3.5H16V24h-3.6v-8.7h-3v-3.5h3v-0.3c0-0.7,0-1.4,0-2.1c0-0.4,0-0.9,0.1-1.3c0.2-1.1,0.7-2,1.6-2.6
	c0.8-0.6,1.7-0.8,2.6-0.8c0.6,0,1.2,0,1.8,0c0.3,0,0.7,0.1,1,0.1V8H19.4z"/>
</svg>
